<?xml version="1.0" encoding="UTF-8" standalone="no"?>
<svg
   xmlns:dc="http://purl.org/dc/elements/1.1/"
   xmlns:cc="http://creativecommons.org/ns#"
   xmlns:rdf="http://www.w3.org/1999/02/22-rdf-syntax-ns#"
   xmlns:svg="http://www.w3.org/2000/svg"
   xmlns="http://www.w3.org/2000/svg"
   xmlns:sodipodi="http://sodipodi.sourceforge.net/DTD/sodipodi-0.dtd"
   xmlns:inkscape="http://www.inkscape.org/namespaces/inkscape"
   version="1.1"
   width="16px"
   height="16px"
   viewBox="0 0 24 24"
   id="svg4"
   sodipodi:docname="killProcess.svg"
   inkscape:version="0.92.3 (unknown)">
  <metadata
     id="metadata10">
    <rdf:RDF>
      <cc:Work
         rdf:about="">
        <dc:format>image/svg+xml</dc:format>
        <dc:type
           rdf:resource="http://purl.org/dc/dcmitype/StillImage" />
      </cc:Work>
    </rdf:RDF>
  </metadata>
  <defs
     id="defs8" />
  <sodipodi:namedview
     pagecolor="#ffffff"
     bordercolor="#666666"
     borderopacity="1"
     objecttolerance="10"
     gridtolerance="10"
     guidetolerance="10"
     inkscape:pageopacity="0"
     inkscape:pageshadow="2"
     inkscape:window-width="857"
     inkscape:window-height="1046"
     id="namedview6"
     showgrid="false"
     inkscape:zoom="11.313709"
     inkscape:cx="5.633903"
     inkscape:cy="9.3188736"
     inkscape:window-x="93"
     inkscape:window-y="135"
     inkscape:window-maximized="0"
     inkscape:current-layer="svg4" />
  <path
     d="M 11.232203,4.2372881 A 8.0389831,8.0389831 0 0 0 3.1932203,12.276271 c 0,2.706458 1.3666271,5.198543 3.5728814,6.672356 v 3.153068 h 1.7864407 v -2.679661 h 1.7864406 v 2.679661 h 1.78644 v -2.679661 h 1.786441 v 2.679661 h 1.786441 v -3.162 c 2.206254,-1.473814 3.572881,-3.983763 3.572881,-6.663424 A 8.0389831,8.0389831 0 0 0 11.232203,4.2372881 M 7.659322,12.276271 A 1.7864407,1.7864407 0 0 1 9.4457624,14.062712 1.7864407,1.7864407 0 0 1 7.659322,15.849153 1.7864407,1.7864407 0 0 1 5.8728813,14.062712 1.7864407,1.7864407 0 0 1 7.659322,12.276271 m 7.145762,0 a 1.7864407,1.7864407 0 0 1 1.786441,1.786441 1.7864407,1.7864407 0 0 1 -1.786441,1.786441 1.7864407,1.7864407 0 0 1 -1.78644,-1.786441 1.7864407,1.7864407 0 0 1 1.78644,-1.786441 m -3.572881,2.679661 1.33983,2.679661 H 9.8923724 Z"
     id="path2"
     inkscape:connector-curvature="0"
     style="fill:#ffca28;stroke-width:0.3;stroke-miterlimit:4;stroke-dasharray:none;stroke:#000000;stroke-opacity:1" />
  <path
     sodipodi:nodetypes="cscccsc"
     inkscape:connector-curvature="0"
     id="path1445-6"
     d="M 5.7231483,6.5893795 C 5.7879132,6.4924664 5.9891888,6.132199 6.3830612,5.7982833 7.2911485,5.0284134 8.2766255,5.9587301 8.1136354,7.130469 7.894347,8.0353018 7.4795926,8.6139361 7.1149451,9.27122 6.3675617,9.191048 5.6556618,9.197114 4.7895573,8.855569 3.7375937,8.3143558 3.5441268,6.9730087 4.6963948,6.6736142 5.1961962,6.543812 5.6065857,6.5866271 5.7231483,6.5893795"
     style="fill:#febce0;fill-opacity:1;stroke:#00000f;stroke-width:0.35285476;stroke-linecap:round;stroke-linejoin:miter;stroke-miterlimit:4.69999981;stroke-dasharray:none;stroke-opacity:0.94117647"
     inkscape:transform-center-x="-0.059514211"
     inkscape:transform-center-y="0.40899745" />
  <g
     id="g889">
    <path
       sodipodi:nodetypes="ccccsc"
       inkscape:connector-curvature="0"
       id="path883"
       d="M 7.5494038,5.6442183 C 8.6288528,5.0964348 8.4458782,5.2378432 8.9211061,3.9363386 10.301678,3.7300851 11.131447,3.9757696 11.163377,5.0519889 11.012848,6.0983964 9.2981749,7.9342991 7.8222557,8.1184192 7.8695827,7.8578593 8.1399411,7.4036848 8.2291821,6.9324624 8.3184231,6.4612399 8.2265466,5.9729696 7.5494038,5.6442183 Z"
       style="fill:#febce0;stroke:#000000;stroke-width:0.30000001;stroke-linecap:round;stroke-linejoin:round;stroke-miterlimit:4;stroke-dasharray:none;stroke-opacity:1;fill-opacity:1" />
    <path
       sodipodi:nodetypes="cc"
       inkscape:connector-curvature="0"
       id="path885"
       d="M 9.28125,5.6367187 C 9.2055656,6.2735195 8.8693156,6.330854 8.2382812,6.6679687"
       style="fill:none;stroke:#000000;stroke-width:0.15000001;stroke-linecap:round;stroke-linejoin:miter;stroke-miterlimit:4;stroke-dasharray:none;stroke-opacity:1" />
  </g>
  <g
     id="g895"
     transform="matrix(-0.73146895,0.68187475,0.68187475,0.73146895,5.6330938,-2.019396)">
    <path
       style="fill:#febce0;fill-opacity:1;stroke:#000000;stroke-width:0.30000001;stroke-linecap:round;stroke-linejoin:round;stroke-miterlimit:4;stroke-dasharray:none;stroke-opacity:1"
       d="M 7.5494038,5.6442183 C 8.6288528,5.0964348 8.4458782,5.2378432 8.9211061,3.9363386 10.301678,3.7300851 11.131447,3.9757696 11.163377,5.0519889 11.012848,6.0983964 9.2981749,7.9342991 7.8222557,8.1184192 7.8695827,7.8578593 8.1399411,7.4036848 8.2291821,6.9324624 8.3184231,6.4612399 8.2265466,5.9729696 7.5494038,5.6442183 Z"
       id="path891"
       inkscape:connector-curvature="0"
       sodipodi:nodetypes="ccccsc" />
    <path
       style="fill:none;stroke:#000000;stroke-width:0.15000001;stroke-linecap:round;stroke-linejoin:miter;stroke-miterlimit:4;stroke-dasharray:none;stroke-opacity:1"
       d="M 9.28125,5.6367187 C 9.2576008,6.2460929 8.8551538,6.3440118 8.2382812,6.6679687"
       id="path893"
       inkscape:connector-curvature="0"
       sodipodi:nodetypes="cc" />
  </g>
</svg>
