<?xml version="1.0" encoding="UTF-8" standalone="no"?>
<svg
   xmlns:dc="http://purl.org/dc/elements/1.1/"
   xmlns:cc="http://creativecommons.org/ns#"
   xmlns:rdf="http://www.w3.org/1999/02/22-rdf-syntax-ns#"
   xmlns:svg="http://www.w3.org/2000/svg"
   xmlns="http://www.w3.org/2000/svg"
   xmlns:sodipodi="http://sodipodi.sourceforge.net/DTD/sodipodi-0.dtd"
   xmlns:inkscape="http://www.inkscape.org/namespaces/inkscape"
   version="1.1"
   width="16px"
   height="16px"
   viewBox="0 0 24 24"
   id="svg4"
   sodipodi:docname="gearPlain.svg"
   inkscape:version="0.92.3 (unknown)">
  <metadata
     id="metadata10">
    <rdf:RDF>
      <cc:Work
         rdf:about="">
        <dc:format>image/svg+xml</dc:format>
        <dc:type
           rdf:resource="http://purl.org/dc/dcmitype/StillImage" />
      </cc:Work>
    </rdf:RDF>
  </metadata>
  <defs
     id="defs8" />
  <sodipodi:namedview
     pagecolor="#ffffff"
     bordercolor="#666666"
     borderopacity="1"
     objecttolerance="10"
     gridtolerance="10"
     guidetolerance="10"
     inkscape:pageopacity="0"
     inkscape:pageshadow="2"
     inkscape:window-width="640"
     inkscape:window-height="491"
     id="namedview6"
     showgrid="false"
     inkscape:zoom="14.75"
     inkscape:cx="6.7912171"
     inkscape:cy="6.6521166"
     inkscape:window-x="67"
     inkscape:window-y="27"
     inkscape:window-maximized="0"
     inkscape:current-layer="svg4" />
  <path
     style="fill:#607d8b;stroke-width:0.66666669"
     d="M 6.6660156 1.3339844 C 6.499349 1.3339844 6.360651 1.4532813 6.3339844 1.6132812 L 6.0859375 3.3808594 C 5.6659375 3.547526 5.3076042 3.7732031 4.9609375 4.0332031 L 3.3007812 3.3671875 C 3.1541146 3.3071875 2.9725781 3.3670052 2.8925781 3.5136719 L 1.5605469 5.8203125 C 1.4738802 5.9669792 1.5139583 6.1460938 1.640625 6.2460938 L 3.046875 7.3339844 C 3.0202083 7.560651 3 7.78 3 8 C 3 8.22 3.0202083 8.433151 3.046875 8.6464844 L 1.640625 9.7539062 C 1.5139583 9.8539062 1.4738802 10.033021 1.5605469 10.179688 L 2.8925781 12.486328 C 2.9725781 12.632995 3.1541146 12.686146 3.3007812 12.632812 L 4.9609375 11.960938 C 5.3076042 12.227604 5.6659375 12.452474 6.0859375 12.619141 L 6.3339844 14.386719 C 6.360651 14.546719 6.499349 14.666016 6.6660156 14.666016 L 9.3339844 14.666016 C 9.500651 14.666016 9.639349 14.546719 9.6660156 14.386719 L 9.9140625 12.619141 C 10.334062 12.445807 10.692396 12.227604 11.039062 11.960938 L 12.699219 12.632812 C 12.845885 12.686146 13.027422 12.632995 13.107422 12.486328 L 14.439453 10.179688 C 14.519453 10.033021 14.486042 9.8539063 14.359375 9.7539062 L 12.953125 8.6464844 C 12.979792 8.433151 13 8.22 13 8 C 13 7.78 12.979792 7.560651 12.953125 7.3339844 L 14.359375 6.2460938 C 14.486042 6.1460937 14.519453 5.9669792 14.439453 5.8203125 L 13.107422 3.5136719 C 13.027422 3.3670052 12.845885 3.3071875 12.699219 3.3671875 L 11.039062 4.0332031 C 10.692396 3.7732031 10.334063 3.547526 9.9140625 3.3808594 L 9.6660156 1.6132812 C 9.639349 1.4532813 9.500651 1.3339844 9.3339844 1.3339844 L 6.6660156 1.3339844 z M 6.2011719 5.7363281 C 6.3068111 5.7441502 6.4185834 5.7609361 6.5332031 5.7871094 C 7.3286283 5.9688402 7.8717325 6.3292703 8.0332031 6.4179688 C 8.1945698 6.3291904 8.7397316 5.9687379 9.5351562 5.7871094 C 11.369048 5.3683366 12.073606 7.3913316 10.992188 8.9160156 C 10.026076 10.025399 9.0229985 10.534998 8.0332031 11.191406 C 7.0433818 10.534998 6.0403053 10.025398 5.0742188 8.9160156 C 4.0603872 7.4866244 4.6165837 5.6189965 6.2011719 5.7363281 z "
     transform="scale(1.5)"
     id="path2" />
</svg>
