<svg xmlns="http://www.w3.org/2000/svg"
     width="18x"
     height="18x"
     viewBox="0 0 20.592512 21.02">
    <g transform="translate(-14.637487,-13)" >
        <path d="m 17,19.39 c -0.15,0 -0.25,0 -0.29,-0.07 a 0.65,0.65 0 0 1 -0.06,-0.35 1.23,1.23 0 0 1 0,-0.35 0.33,0.33 0 0 1 0.23,-0.13 c 0.11,0 0.46,0 1,0 a 8.44,8.44 0 0 1 1.25,0.05 1.65,1.65 0 0 1 1.18,1.27 6.51,6.51 0 0 1 0.27,2.05 c 0.05,2.12 0.53,3.63 1.43,4.53 a 3.5,3.5 0 0 0 1.45,0.87 l 0.22,0.08 c 0,0 0,-1.79 0,-5.38 v -5.39 l -0.22,-0.16 a 0.72,0.72 0 0 0 -0.21,-0.09 1.59,1.59 0 0 0 -0.34,-0.06 h -0.56 q -0.27,0 -1.2,0 H 20.48 V 15 h 0.3 c 0.3,0.05 1.67,0.08 4.12,0.08 2.45,0 3.83,0 4.12,-0.08 h 0.31 v 1.15 h -0.68 q -0.93,0 -1.2,0 a 4.69,4.69 0 0 0 -0.9,0.09 1,1 0 0 0 -0.4,0.26 v 5.37 c 0,3.59 0,5.38 0,5.38 a 2.44,2.44 0 0 0 0.68,-0.28 q 2.27,-1.12 2.4,-5.2 a 6,6 0 0 1 0.27,-2.05 1.64,1.64 0 0 1 1.18,-1.27 8.6,8.6 0 0 1 1.27,-0.05 h 1.1 a 1,1 0 0 0 0.18,0.15 v 0.62 a 0.64,0.64 0 0 1 -0.35,0.15 1.08,1.08 0 0 0 -0.86,0.68 4.51,4.51 0 0 0 -0.34,1.9 10,10 0 0 1 -0.4,2.47 5.65,5.65 0 0 1 -4.83,3.85 l -0.32,0.05 v 1.13 1.12 a 1,1 0 0 0 0.4,0.27 4.2,4.2 0 0 0 0.9,0.08 q 0.27,0 1.2,0 h 0.68 v 1.15 H 29 c -0.29,0 -1.67,-0.08 -4.12,-0.08 -2.45,0 -3.82,0 -4.12,0.08 h -0.3 V 31 h 0.67 q 0.93,0 1.2,0 a 3.88,3.88 0 0 0 0.88,-0.08 2,2 0 0 0 0.45,-0.27 V 28.34 C 20.06,27.88 18.2,25.75 18.08,21.97 A 4.48,4.48 0 0 0 17.73,20.07 1.06,1.06 0 0 0 17,19.39 Z"
              fill="#389FD6" accentTint="fill"/>
    </g>
</svg>