<?xml version="1.0" encoding="UTF-8" standalone="no"?>
<svg
   xmlns:dc="http://purl.org/dc/elements/1.1/"
   xmlns:cc="http://creativecommons.org/ns#"
   xmlns:rdf="http://www.w3.org/1999/02/22-rdf-syntax-ns#"
   xmlns:svg="http://www.w3.org/2000/svg"
   xmlns="http://www.w3.org/2000/svg"
   xmlns:xlink="http://www.w3.org/1999/xlink"
   xmlns:sodipodi="http://sodipodi.sourceforge.net/DTD/sodipodi-0.dtd"
   xmlns:inkscape="http://www.inkscape.org/namespaces/inkscape"
   version="1.1"
   width="16px"
   height="16px"
   viewBox="0 0 24 24"
   id="svg6"
   sodipodi:docname="CodeAssistantClassExtension.svg"
   inkscape:version="0.92.3 (2405546, 2018-03-11)">
  <metadata
     id="metadata12">
    <rdf:RDF>
      <cc:Work
         rdf:about="">
        <dc:format>image/svg+xml</dc:format>
        <dc:type
           rdf:resource="http://purl.org/dc/dcmitype/StillImage" />
      </cc:Work>
    </rdf:RDF>
  </metadata>
  <defs
     id="defs10">
    <linearGradient
       inkscape:collect="always"
       xlink:href="#linearGradient6020-7-5"
       id="linearGradient6022"
       x1="8.3356228"
       y1="21.034628"
       x2="17.712017"
       y2="-2.1378632"
       gradientUnits="userSpaceOnUse" />
    <linearGradient
       inkscape:collect="always"
       id="linearGradient6020-7-5">
      <stop
         stop-color="#870ad2"
         style="stop-opacity:1"
         offset="0"
         themedStart="true"
         id="stop6016" />
      <stop
         stop-color="#f667ff"
         style=";stop-opacity:1"
         offset="1"
         themedStop="true"
         id="stop6018" />
    </linearGradient>
  </defs>
  <sodipodi:namedview
     pagecolor="#ffffff"
     bordercolor="#666666"
     borderopacity="1"
     objecttolerance="10"
     gridtolerance="10"
     guidetolerance="10"
     inkscape:pageopacity="0"
     inkscape:pageshadow="2"
     inkscape:window-width="817"
     inkscape:window-height="480"
     id="namedview8"
     showgrid="false"
     inkscape:zoom="14.75"
     inkscape:cx="8"
     inkscape:cy="8"
     inkscape:window-x="0"
     inkscape:window-y="27"
     inkscape:window-maximized="0"
     inkscape:current-layer="svg6" />
  <path
     inkscape:connector-curvature="0"
     d="m 21,16.5 c 0,0.38 -0.21,0.71 -0.53,0.88 l -7.9,4.439999 c -0.16,0.12 -0.36,0.18 -0.57,0.18 -0.21,0 -0.41,-0.06 -0.57,-0.18 l -7.9000002,-4.44 C 3.2099997,17.21 2.9999997,16.88 2.9999997,16.5 v -9 c 0,-0.38 0.21,-0.7100001 0.5300001,-0.8800001 l 7.9000002,-4.44 c 0.16,-0.12 0.36,-0.18 0.57,-0.18 0.21,0 0.41,0.06 0.57,0.18 l 7.9,4.44 c 0.32,0.17 0.53,0.5000001 0.53,0.88 V 16.5 M 12,4.1499998 6.0399997,7.4999999 12,10.85 17.96,7.4999999 Z"
     id="path2-3"
     style="fill:url(#linearGradient6022);fill-opacity:1;fill-rule:nonzero;stroke-width:1" />
  <path
     themedFill="true"
     style="fill:#870ad2;fill-opacity:1;stroke:#870ad2;stroke-width:0.55049998;stroke-linecap:round;stroke-linejoin:round;stroke-miterlimit:4;stroke-dasharray:none;stroke-opacity:1"
     d="m 12.288573,12.530207 0.08423,9.059729 8.236001,-4.655501 0.09296,-9.1764962 z"
     id="path6028"
     inkscape:connector-curvature="0"
     sodipodi:nodetypes="ccccc" />
  <path
     fill="#303F9F"
     transform="scale(0.5) translate(24 24)"
     d="M20.5,11H19V7C19,5.89 18.1,5 17,5H13V3.5A2.5,2.5 0 0,0 10.5,1A2.5,2.5 0 0,0 8,3.5V5H4A2,2 0 0,0 2,7V10.8H3.5C5,10.8 6.2,12 6.2,13.5C6.2,15 5,16.2 3.5,16.2H2V20A2,2 0 0,0 4,22H7.8V20.5C7.8,19 9,17.8 10.5,17.8C12,17.8 13.2,19 13.2,20.5V22H17A2,2 0 0,0 19,20V16H20.5A2.5,2.5 0 0,0 23,13.5A2.5,2.5 0 0,0 20.5,11Z"
     id="path4" />
  <path
     style="fill:none;stroke:#000000;stroke-width:1.5px;stroke-linecap:butt;stroke-linejoin:miter;stroke-opacity:1"
     d="m 12,10.85 c 0,0 0,0 0,0 z"
     id="path6024"
     inkscape:connector-curvature="0" />
</svg>
