<svg
        xmlns="http://www.w3.org/2000/svg"
        xmlns:xlink="http://www.w3.org/1999/xlink"
        version="1.1"
        width="16px"
        height="16px"
        viewBox="0 0 24 24"
        fill="#4FC3F7">
    <defs
            id="defs8">
        <linearGradient
                id="linearGradient6020-7-5">
            <stop
                    stop-color="#870ad2"
                    style="stop-opacity:1"
                    offset="0"
                    themedStart="true"
                    id="stop6016"/>
            <stop
                    stop-color="#f667ff"
                    style=";stop-opacity:1"
                    offset="1"
                    themedStop="true"
                    id="stop6018"/>
        </linearGradient>
        <linearGradient
                xlink:href="#linearGradient6020-7-5"
                id="linearGradient6022"
                x1="8.3356228"
                y1="21.034628"
                x2="17.712017"
                y2="-2.1378632"
                gradientUnits="userSpaceOnUse"/>
    </defs>
    <path
            d="M21,16.5C21,16.88 20.79,17.21 20.47,17.38L12.57,21.82C12.41,21.94 12.21,22 12,22C11.79,22 11.59,21.94 11.43,21.82L3.53,17.38C3.21,17.21 3,16.88 3,16.5V7.5C3,7.12 3.21,6.79 3.53,6.62L11.43,2.18C11.59,2.06 11.79,2 12,2C12.21,2 12.41,2.06 12.57,2.18L20.47,6.62C20.79,6.79 21,7.12 21,7.5V16.5M12,4.15L6.04,7.5L12,10.85L17.96,7.5L12,4.15Z"
            id="path2"
            style="fill-opacity:1;fill:url(#linearGradient6022);fill-rule:nonzero"/>
    <path
            style="fill:none;stroke:#000000;stroke-width:1.5px;stroke-linecap:butt;stroke-linejoin:miter;stroke-opacity:1"
            d="m 12,10.85 c 0,0 0,0 0,0 z"/>
    <path
            stroke="#870ad2"
            fill="#870ad2"
            themedFill="true"
            style="fill-opacity:1;stroke-width:0.55049998;stroke-linecap:round;stroke-linejoin:round;stroke-miterlimit:4;stroke-dasharray:none;stroke-opacity:1"
            d="m 12.288573,12.530207 0.08423,9.059729 8.236002,-4.655501 0.09296,-9.1764962 z"
            id="path6028"/>
</svg>
