<?xml version="1.0" encoding="UTF-8" standalone="no"?>
<svg
   xmlns:dc="http://purl.org/dc/elements/1.1/"
   xmlns:cc="http://creativecommons.org/ns#"
   xmlns:rdf="http://www.w3.org/1999/02/22-rdf-syntax-ns#"
   xmlns:svg="http://www.w3.org/2000/svg"
   xmlns="http://www.w3.org/2000/svg"
   xmlns:xlink="http://www.w3.org/1999/xlink"
   xmlns:sodipodi="http://sodipodi.sourceforge.net/DTD/sodipodi-0.dtd"
   xmlns:inkscape="http://www.inkscape.org/namespaces/inkscape"
   version="1.1"
   width="16px"
   height="16px"
   tint="true"
   viewBox="0 0 24 24"
   fill="#4FC3F7"
   id="svg4"
   sodipodi:docname="class.svg"
   inkscape:version="0.92.3 (unknown)">
  <metadata
     id="metadata10">
    <rdf:RDF>
      <cc:Work
         rdf:about="">
        <dc:format>image/svg+xml</dc:format>
        <dc:type
           rdf:resource="http://purl.org/dc/dcmitype/StillImage" />
      </cc:Work>
    </rdf:RDF>
  </metadata>
  <defs
     id="defs8">
    <linearGradient
       inkscape:collect="always"
       id="linearGradient6020">
      <stop
         style="stop-color:#00f006;stop-opacity:1"
         offset="0"
         id="stop6016" />
      <stop
         style="stop-color:#f0ed47;stop-opacity:1"
         offset="1"
         id="stop6018" />
    </linearGradient>
    <linearGradient
       inkscape:collect="always"
       xlink:href="#linearGradient6020"
       id="linearGradient6022"
       x1="8.3356228"
       y1="21.034628"
       x2="17.712017"
       y2="-2.1378632"
       gradientUnits="userSpaceOnUse" />
  </defs>
  <sodipodi:namedview
     pagecolor="#ffffff"
     bordercolor="#666666"
     borderopacity="1"
     objecttolerance="10"
     gridtolerance="10"
     guidetolerance="10"
     inkscape:pageopacity="0"
     inkscape:pageshadow="2"
     inkscape:window-width="1024"
     inkscape:window-height="1049"
     id="namedview6"
     showgrid="false"
     inkscape:zoom="11.409873"
     inkscape:cx="3.1348724"
     inkscape:cy="-7.5535186"
     inkscape:window-x="1136"
     inkscape:window-y="125"
     inkscape:window-maximized="0"
     inkscape:current-layer="svg4" />
  <path
     d="M21,16.5C21,16.88 20.79,17.21 20.47,17.38L12.57,21.82C12.41,21.94 12.21,22 12,22C11.79,22 11.59,21.94 11.43,21.82L3.53,17.38C3.21,17.21 3,16.88 3,16.5V7.5C3,7.12 3.21,6.79 3.53,6.62L11.43,2.18C11.59,2.06 11.79,2 12,2C12.21,2 12.41,2.06 12.57,2.18L20.47,6.62C20.79,6.79 21,7.12 21,7.5V16.5M12,4.15L6.04,7.5L12,10.85L17.96,7.5L12,4.15Z"
     id="path2"
     style="fill-opacity:1;fill:url(#linearGradient6022);fill-rule:nonzero" />
  <path
     style="fill:none;stroke:#000000;stroke-width:1.5px;stroke-linecap:butt;stroke-linejoin:miter;stroke-opacity:1"
     d="m 12,10.85 c 0,0 0,0 0,0 z"
     id="path6024"
     inkscape:connector-curvature="0" />
  <path
     style="fill:#00f006;fill-opacity:1;stroke:#00f006;stroke-opacity:1;stroke-width:0.5505;stroke-miterlimit:4;stroke-dasharray:none;stroke-linecap:round;stroke-linejoin:round"
     d="m 12.288573,12.530207 0.08423,8.96113 8.398682,-4.951981 V 7.6325964 Z"
     id="path6028"
     inkscape:connector-curvature="0"
     sodipodi:nodetypes="ccccc" />
</svg>
