<?xml version="1.0" encoding="UTF-8" standalone="no"?>
<svg
   xmlns:dc="http://purl.org/dc/elements/1.1/"
   xmlns:cc="http://creativecommons.org/ns#"
   xmlns:rdf="http://www.w3.org/1999/02/22-rdf-syntax-ns#"
   xmlns:svg="http://www.w3.org/2000/svg"
   xmlns="http://www.w3.org/2000/svg"
   xmlns:sodipodi="http://sodipodi.sourceforge.net/DTD/sodipodi-0.dtd"
   xmlns:inkscape="http://www.inkscape.org/namespaces/inkscape"
   version="1.1"
   width="16px"
   height="16px"
   viewBox="0 0 24 24"
   fill="#F78C6C"
   id="svg4"
   sodipodi:docname="constant.svg"
   inkscape:version="0.92.3 (unknown)">
  <metadata
     id="metadata10">
    <rdf:RDF>
      <cc:Work
         rdf:about="">
        <dc:format>image/svg+xml</dc:format>
        <dc:type
           rdf:resource="http://purl.org/dc/dcmitype/StillImage" />
      </cc:Work>
    </rdf:RDF>
  </metadata>
  <defs
     id="defs8" />
  <sodipodi:namedview
     pagecolor="#ffffff"
     bordercolor="#666666"
     borderopacity="1"
     objecttolerance="10"
     gridtolerance="10"
     guidetolerance="10"
     inkscape:pageopacity="0"
     inkscape:pageshadow="2"
     inkscape:window-width="863"
     inkscape:window-height="491"
     id="namedview6"
     showgrid="false"
     inkscape:zoom="7.375"
     inkscape:cx="6.0699404"
     inkscape:cy="5.1256035"
     inkscape:window-x="1197"
     inkscape:window-y="390"
     inkscape:window-maximized="0"
     inkscape:current-layer="svg4" />
  <path
     style="stroke-width:0.66666669"
     d="M 3.3339844 2 C 2.5939844 2 2 2.600651 2 3.3339844 L 2 12.666016 C 2 13.402395 2.5976047 14 3.3339844 14 L 12.666016 14 C 13.402395 14 14 13.402395 14 12.666016 L 14 3.3339844 C 14 2.5976047 13.402395 2 12.666016 2 L 3.3339844 2 z M 4.3886719 3.4726562 L 9.2695312 3.4726562 C 9.7919819 3.4726619 10.184693 3.5484773 10.449219 3.6972656 C 10.713755 3.8460708 10.99222 4.1320485 11.283203 4.5585938 C 11.574186 4.9851558 11.825489 5.5635604 12.037109 6.2910156 L 11.679688 6.2910156 C 11.421773 5.7421233 11.142702 5.3771805 10.841797 5.1953125 C 10.540893 5.0134502 10.118465 4.9218863 9.5761719 4.921875 L 8.59375 4.921875 L 8.9609375 7.7792969 C 9.1064315 8.9035569 9.1796875 9.8417951 9.1796875 10.595703 C 9.1796875 12.090303 8.5274267 12.837891 7.2246094 12.837891 C 5.9813191 12.837891 5.2514447 11.918567 5.0332031 10.080078 L 5.4003906 10.080078 C 5.5194381 10.880286 5.8963785 11.279297 6.53125 11.279297 C 6.8156229 11.279297 7.0675272 11.18022 7.2890625 10.978516 C 7.5106152 10.776811 7.6210997 10.201562 7.6210938 9.2558594 C 7.6210998 8.759872 7.5990277 8.2655299 7.5527344 7.7695312 L 7.265625 4.921875 L 4.3886719 4.921875 L 4.3886719 3.4726562 z "
     transform="scale(1.5)"
     id="path2" />
</svg>
