<?xml version="1.0" encoding="UTF-8" standalone="no"?>
<svg
   xmlns:dc="http://purl.org/dc/elements/1.1/"
   xmlns:cc="http://creativecommons.org/ns#"
   xmlns:rdf="http://www.w3.org/1999/02/22-rdf-syntax-ns#"
   xmlns:svg="http://www.w3.org/2000/svg"
   xmlns="http://www.w3.org/2000/svg"
   xmlns:sodipodi="http://sodipodi.sourceforge.net/DTD/sodipodi-0.dtd"
   xmlns:inkscape="http://www.inkscape.org/namespaces/inkscape"
   version="1.1"
   width="16px"
   height="16px"
   viewBox="0 0 24 24"
   fill="#C792EA"
   id="svg4"
   sodipodi:docname="function.svg"
   inkscape:version="0.92.3 (unknown)">
  <metadata
     id="metadata10">
    <rdf:RDF>
      <cc:Work
         rdf:about="">
        <dc:format>image/svg+xml</dc:format>
        <dc:type
           rdf:resource="http://purl.org/dc/dcmitype/StillImage" />
        <dc:title></dc:title>
      </cc:Work>
    </rdf:RDF>
  </metadata>
  <defs
     id="defs8" />
  <sodipodi:namedview
     pagecolor="#ffffff"
     bordercolor="#666666"
     borderopacity="1"
     objecttolerance="10"
     gridtolerance="10"
     guidetolerance="10"
     inkscape:pageopacity="0"
     inkscape:pageshadow="2"
     inkscape:window-width="863"
     inkscape:window-height="491"
     id="namedview6"
     showgrid="false"
     inkscape:zoom="10.429825"
     inkscape:cx="6.7082153"
     inkscape:cy="7.4664368"
     inkscape:window-x="67"
     inkscape:window-y="27"
     inkscape:window-maximized="0"
     inkscape:current-layer="svg4" />
  <path
     style="font-style:normal;font-weight:normal;font-size:2050.27807617px;font-family:'Times New Roman';display:inline;opacity:0.98000004;fill:#c792ea;fill-opacity:1;stroke:none;stroke-width:0.15095216;stroke-linecap:round;stroke-linejoin:round;stroke-miterlimit:4;stroke-dasharray:0.01509521, 0.01509521;stroke-dashoffset:0;stroke-opacity:0.57647059;paint-order:stroke fill markers"
     d="m 19.540399,17.577305 h 0.517482 c 0,1.514121 -0.246779,2.616163 -0.740289,3.306137 -0.493538,0.689977 -1.109244,1.034964 -1.847121,1.034964 -0.603741,0 -1.183512,-0.227598 -1.739314,-0.682789 -0.555824,-0.455193 -1.054142,-1.674628 -1.494951,-3.658312 L 13,12 8.7164,21.717161 H 5.999618 L 12.151905,8.4638745 C 11.826075,6.7485307 11.433173,5.4787836 10.973195,4.6546323 10.513208,3.8305106 9.943018,3.418442 9.262631,3.4184242 c -0.546235,0 -1.022988,0.208449 -1.430264,0.6252919 C 7.425088,4.460593 7.197491,5.1050478 7.149578,5.9770847 H 6.632097 C 6.660847,4.5683997 6.943544,3.440005 7.480193,2.5918903 8.016836,1.7438127 8.687646,1.3197648 9.492621,1.3197467 c 0.517479,0 1.008607,0.2132426 1.473387,0.6396652 0.464771,0.4264629 0.867256,1.1547686 1.207457,2.184925 0.34019,1.0301888 0.86965,3.1647974 1.588383,6.4038371 l 1.020588,4.556718 c 0.412061,1.887858 0.845693,3.150419 1.300894,3.787684 0.455182,0.637271 0.999018,0.955906 1.631506,0.955902 1.073282,4e-6 1.681803,-0.757052 1.825563,-2.271173 z"
     id="path7"
     inkscape:connector-curvature="0" />
</svg>
