<?xml version="1.0" encoding="UTF-8" standalone="no"?>
<svg
   xmlns:dc="http://purl.org/dc/elements/1.1/"
   xmlns:cc="http://creativecommons.org/ns#"
   xmlns:rdf="http://www.w3.org/1999/02/22-rdf-syntax-ns#"
   xmlns:svg="http://www.w3.org/2000/svg"
   xmlns="http://www.w3.org/2000/svg"
   xmlns:sodipodi="http://sodipodi.sourceforge.net/DTD/sodipodi-0.dtd"
   xmlns:inkscape="http://www.inkscape.org/namespaces/inkscape"
   version="1.1"
   width="16px"
   height="16px"
   viewBox="0 0 24 24"
   fill="#C792EA"
   id="svg4"
   sodipodi:docname="function.svg"
   inkscape:version="0.92.3 (unknown)">
  <metadata
     id="metadata10">
    <rdf:RDF>
      <cc:Work
         rdf:about="">
        <dc:format>image/svg+xml</dc:format>
        <dc:type
           rdf:resource="http://purl.org/dc/dcmitype/StillImage" />
        <dc:title></dc:title>
      </cc:Work>
    </rdf:RDF>
  </metadata>
  <defs
     id="defs8" />
  <sodipodi:namedview
     pagecolor="#ffffff"
     bordercolor="#666666"
     borderopacity="1"
     objecttolerance="10"
     gridtolerance="10"
     guidetolerance="10"
     inkscape:pageopacity="0"
     inkscape:pageshadow="2"
     inkscape:window-width="863"
     inkscape:window-height="491"
     id="namedview6"
     showgrid="false"
     inkscape:zoom="10.429825"
     inkscape:cx="6.7082153"
     inkscape:cy="7.4664368"
     inkscape:window-x="67"
     inkscape:window-y="27"
     inkscape:window-maximized="0"
     inkscape:current-layer="svg4" />
  <path
     style="font-style:normal;font-weight:normal;font-size:2050.27807617px;font-family:'Times New Roman';display:inline;opacity:1;fill:#c792ea;fill-opacity:1;stroke:#c792ea;stroke-width:1.35;stroke-linecap:round;stroke-linejoin:miter;stroke-miterlimit:4;stroke-dasharray:none;stroke-dashoffset:0;stroke-opacity:1;paint-order:stroke fill markers"
     d="m 19.684878,17.577305 h 0.523003 c 0,1.514121 -0.249412,2.616163 -0.748188,3.306137 -0.498804,0.689977 -1.121079,1.034964 -1.866829,1.034964 -0.610183,0 -1.19614,-0.227598 -1.757873,-0.682789 -0.561754,-0.455193 -1.065389,-1.674628 -1.510902,-3.658312 L 13.074693,12 8.7453877,21.717161 H 5.999618 L 12.217549,8.4638745 C 11.888243,6.7485307 11.491148,5.4787836 11.026262,4.6546323 10.561367,3.8305106 9.9850936,3.418442 9.297447,3.4184242 c -0.5520633,0 -1.0339032,0.208449 -1.4455248,0.6252919 C 7.4402976,4.460593 7.2102722,5.1050478 7.1618479,5.9770847 H 6.6388455 C 6.6679022,4.5683997 6.9536156,3.440005 7.4959906,2.5918903 8.0383595,1.7438127 8.7163269,1.3197648 9.5298909,1.3197467 c 0.5230001,0 1.0193691,0.2132426 1.4891081,0.6396652 0.46973,0.4264629 0.876509,1.1547686 1.22034,2.184925 0.34382,1.0301888 0.878929,3.1647974 1.605331,6.4038371 l 1.031478,4.556718 c 0.416457,1.887858 0.854716,3.150419 1.314774,3.787684 0.460039,0.637271 1.009677,0.955906 1.648914,0.955902 1.084734,4e-6 1.699748,-0.757052 1.845042,-2.271173 z"
     id="path7"
     inkscape:connector-curvature="0" />
</svg>
