<?xml version="1.0" encoding="UTF-8"?>
<svg clip-rule="evenodd" fill-rule="evenodd" stroke-linejoin="round"
     stroke-miterlimit="1.4142" version="1.1" viewBox="0 0 24 24" width="16px" height="16px"
     xml:space="preserve" xmlns="http://www.w3.org/2000/svg">
    <path d="M 1,19.260657 H 22.968108 V 5.1383012 H 11.959843 L 9.9383992,3.116435 C 9.1935075,2.4481407 8.2427303,2.0542611 7.243462,2 H 1.080466 C 1.0360259,2 1,2.0360259 1,2.080466 Z" fill="#8E24AA" fill-rule="nonzero"/>
    <path d="m21.598 12.059h-6.0845v-1.2169h6.0845m-2.4339 6.0846h-3.6507v-1.2169h3.6507m2.4339-1.2169h-6.0845v-1.2169h6.0845m0.60845-4.2592h-7.3015a1.2169 1.2169 0 0 0 -1.2169 1.2169v7.3016a1.2169 1.2169 0 0 0 1.2169 1.2169h7.3015a1.2169 1.2169 0 0 0 1.2169 -1.2169v-7.3016a1.2169 1.2169 0 0 0 -1.2169 -1.2169m-9.7352 2.4339h-1.2169v8.5184a1.2169 1.2169 0 0 0 1.2169 1.2169h8.5184v-1.2169h-8.5184z" fill="#CE93D8" stroke-width=".60845"/>
</svg>
