<?xml version="1.0" encoding="iso-8859-1"?>
<!--<div>Icons made by <a href="http://www.freepik.com" title="Freepik">Freepik</a> from <a href="https://www.flaticon.com/" title="Flaticon">www.flaticon.com</a> is licensed by <a href="http://creativecommons.org/licenses/by/3.0/" title="Creative Commons BY 3.0" target="_blank">CC 3.0 BY</a></div>-->
<!-- Generator: Adobe Illustrator 19.0.0, SVG Export Plug-In . SVG Version: 6.00 Build 0)  -->
<svg version="1.1" id="Layer_1" xmlns="http://www.w3.org/2000/svg" xmlns:xlink="http://www.w3.org/1999/xlink" x="0px" y="0px"
	 viewBox="0 0 512 512"
	 width="16px" height="16px"
	 xml:space="preserve">
<polygon style="fill:#FF5EB5;" points="512,50.287 298.22,302.631 238.045,258.211 486.847,25.149 "/>
<polygon style="fill:#FF8EDF;" points="486.847,25.149 245.915,266.081 209.356,213.784 461.701,0.004 "/>
<path style="fill:#FFB55F;" d="M143.467,470.842L0,511.996l135.739-151.479l25.145,40.886
	C142.577,419.709,137.077,446.319,143.467,470.842z"/>
<polygon style="fill:#55A7A2;" points="298.22,302.631 233.243,379.335 167.212,329.044 253.785,258.211 "/>
<path style="fill:#FFCC75;" d="M143.609,368.387L0,511.996L41.154,368.53c24.523,6.391,51.133,0.889,69.439-17.417L143.609,368.387z
	"/>
<g>
	<polygon style="fill:#98D9D5;" points="253.785,258.211 175.082,336.914 132.669,278.745 209.356,213.784 	"/>
	<polygon style="fill:#98D9D5;" points="233.243,379.335 160.884,401.403 135.739,376.257 143.451,337.063 182.952,329.044 	"/>
</g>
<polygon style="fill:#C1E8E6;" points="182.952,329.044 135.739,376.257 110.593,351.112 132.669,278.745 "/>
<rect x="63.805" y="414.787" transform="matrix(-0.7071 0.7071 -0.7071 -0.7071 442.527 679.6635)" style="fill:#FF6E1D;" width="33.39" height="33.39"/>
<g>
</g>
<g>
</g>
<g>
</g>
<g>
</g>
<g>
</g>
<g>
</g>
<g>
</g>
<g>
</g>
<g>
</g>
<g>
</g>
<g>
</g>
<g>
</g>
<g>
</g>
<g>
</g>
<g>
</g>
</svg>
