<?xml version="1.0" encoding="UTF-8" standalone="no"?>
<svg
   xmlns:dc="http://purl.org/dc/elements/1.1/"
   xmlns:cc="http://creativecommons.org/ns#"
   xmlns:rdf="http://www.w3.org/1999/02/22-rdf-syntax-ns#"
   xmlns:svg="http://www.w3.org/2000/svg"
   xmlns="http://www.w3.org/2000/svg"
   xmlns:sodipodi="http://sodipodi.sourceforge.net/DTD/sodipodi-0.dtd"
   xmlns:inkscape="http://www.inkscape.org/namespaces/inkscape"
   clip-rule="evenodd"
   fill-rule="evenodd"
   stroke-linejoin="round"
   stroke-miterlimit="1.4142"
   version="1.1"
   viewBox="0 0 24 24"
   width="16px"
   height="16px"
   xml:space="preserve"
   id="svg6"
   sodipodi:docname="Assets.svg"
   inkscape:version="0.92.3 (unknown)"><metadata
   id="metadata12"><rdf:RDF><cc:Work
       rdf:about=""><dc:format>image/svg+xml</dc:format><dc:type
         rdf:resource="http://purl.org/dc/dcmitype/StillImage" /></cc:Work></rdf:RDF></metadata><defs
   id="defs10" /><sodipodi:namedview
   pagecolor="#ffffff"
   bordercolor="#666666"
   borderopacity="1"
   objecttolerance="10"
   gridtolerance="10"
   guidetolerance="10"
   inkscape:pageopacity="0"
   inkscape:pageshadow="2"
   inkscape:window-width="863"
   inkscape:window-height="491"
   id="namedview8"
   showgrid="false"
   inkscape:zoom="14.75"
   inkscape:cx="8"
   inkscape:cy="8"
   inkscape:window-x="67"
   inkscape:window-y="27"
   inkscape:window-maximized="0"
   inkscape:current-layer="svg6" />
    <path
   fill="#A1887F"
   d="M 1,19.260657 H 22.968108 V 5.1383012 H 11.959843 L 9.9383992,3.116435 C 9.1935075,2.4481407 8.2427303,2.0542611 7.243462,2 H 1.080466 C 1.0360259,2 1,2.0360259 1,2.080466 Z"
   fill-rule="nonzero"
   id="path2" />
    
<path
   sodipodi:nodetypes="cscccsc"
   inkscape:connector-curvature="0"
   id="path1445-6"
   d="m 18.101699,15.513922 c 0.238314,-0.131113 1.042451,-0.660953 2.217172,-0.929191 2.708381,-0.618463 3.749518,2.367714 2.152427,4.61944 -1.426801,1.638391 -2.907821,2.391047 -4.369599,3.360463 -1.461816,-0.969416 -2.942836,-1.722073 -4.369598,-3.360463 -1.597093,-2.251726 -0.55599,-5.237903 2.152426,-4.61944 1.174721,0.268389 1.978704,0.798196 2.217172,0.929191"
   style="fill:#ffcc6d;fill-opacity:1;stroke:#00000f;stroke-width:1.15986621;stroke-linecap:round;stroke-linejoin:miter;stroke-miterlimit:4.69999981;stroke-dasharray:none;stroke-opacity:0.94117647" /></svg>