<?xml version="1.0" encoding="UTF-8" standalone="no"?>
<svg
   xmlns:dc="http://purl.org/dc/elements/1.1/"
   xmlns:cc="http://creativecommons.org/ns#"
   xmlns:rdf="http://www.w3.org/1999/02/22-rdf-syntax-ns#"
   xmlns:svg="http://www.w3.org/2000/svg"
   xmlns="http://www.w3.org/2000/svg"
   xmlns:sodipodi="http://sodipodi.sourceforge.net/DTD/sodipodi-0.dtd"
   xmlns:inkscape="http://www.inkscape.org/namespaces/inkscape"
   clip-rule="evenodd"
   fill-rule="evenodd"
   stroke-linejoin="round"
   stroke-miterlimit="1.4142"
   version="1.1"
   viewBox="0 0 24 24"
   width="16px"
   height="16px"
   xml:space="preserve"
   fill="#C792EA"
   id="svg22"
   sodipodi:docname="GroupByModule.svg"
   inkscape:version="0.92.3 (unknown)"><metadata
   id="metadata28"><rdf:RDF><cc:Work
       rdf:about=""><dc:format>image/svg+xml</dc:format><dc:type
         rdf:resource="http://purl.org/dc/dcmitype/StillImage" /></cc:Work></rdf:RDF></metadata><defs
   id="defs26">
    
        
    
        
        
        
        
        
        
    </defs><sodipodi:namedview
   pagecolor="#ffffff"
   bordercolor="#666666"
   borderopacity="1"
   objecttolerance="10"
   gridtolerance="10"
   guidetolerance="10"
   inkscape:pageopacity="0"
   inkscape:pageshadow="2"
   inkscape:window-width="640"
   inkscape:window-height="491"
   id="namedview24"
   showgrid="false"
   inkscape:zoom="14.75"
   inkscape:cx="8"
   inkscape:cy="5.9855948"
   inkscape:window-x="67"
   inkscape:window-y="27"
   inkscape:window-maximized="0"
   inkscape:current-layer="svg22" />
    <rect
   id="rect2"
   y="3"
   x="1.5"
   height="18"
   width="1.5"
   style="stroke-width:1.5" /><rect
   id="rect4"
   y="3"
   x="3"
   height="1.5"
   width="3"
   style="stroke-width:1.5" /><rect
   id="rect6"
   y="19.5"
   x="3"
   height="1.5"
   width="3"
   style="stroke-width:1.5" /><rect
   id="rect8"
   y="3"
   x="21"
   height="18"
   width="1.5"
   style="stroke-width:1.5" /><rect
   id="rect10"
   y="3"
   x="18"
   height="1.5"
   width="4.5"
   style="stroke-width:1.5" /><rect
   id="rect12"
   y="19.5"
   x="18"
   height="1.5"
   width="3"
   style="stroke-width:1.5" />
    <path
   style="fill-rule:nonzero;stroke-width:0.75"
   inkscape:connector-curvature="0"
   id="path16"
   d="M 10.5,6 H 6 C 5.1675,6 4.5,6.6675 4.5,7.5 v 9 C 4.5,17.32275 5.17725,18 6,18 h 12 c 0.82275,0 1.5,-0.67725 1.5,-1.5 V 9 C 19.5,8.1675 18.825,7.5 18,7.5 h -6 z" />
<path
   sodipodi:nodetypes="cscccsc"
   inkscape:connector-curvature="0"
   id="path1445"
   d="m 16.568485,13.459025 c 0.238121,-0.130816 1.04098,-0.660052 2.214058,-0.927923 2.704595,-0.617593 3.744249,2.364423 2.149415,4.612973 -1.424782,1.636099 -2.90372,2.387682 -4.363473,3.355739 -1.459748,-0.968057 -2.938685,-1.71964 -4.363467,-3.355739 -1.594837,-2.24855 -0.55518,-5.230566 2.149413,-4.612973 1.173078,0.267871 1.97594,0.797107 2.214055,0.927923"
   style="fill:#6ee4f8;fill-opacity:1;stroke:#000000;stroke-width:0.95628059;stroke-linecap:round;stroke-linejoin:miter;stroke-miterlimit:4;stroke-dasharray:none;stroke-opacity:0.94117647" /></svg>