<?xml version="1.0" encoding="UTF-8" standalone="no"?>
<svg
   xmlns:dc="http://purl.org/dc/elements/1.1/"
   xmlns:cc="http://creativecommons.org/ns#"
   xmlns:rdf="http://www.w3.org/1999/02/22-rdf-syntax-ns#"
   xmlns:svg="http://www.w3.org/2000/svg"
   xmlns="http://www.w3.org/2000/svg"
   xmlns:sodipodi="http://sodipodi.sourceforge.net/DTD/sodipodi-0.dtd"
   xmlns:inkscape="http://www.inkscape.org/namespaces/inkscape"
   version="1.1"
   width="16px"
   height="16px"
   viewBox="0 0 24 24"
   fill="#82AAFF"
   id="svg22"
   sodipodi:docname="GroupByMethod.svg"
   inkscape:version="0.92.3 (2405546, 2018-03-11)">
  <metadata
     id="metadata28">
    <rdf:RDF>
      <cc:Work
         rdf:about="">
        <dc:format>image/svg+xml</dc:format>
        <dc:type
           rdf:resource="http://purl.org/dc/dcmitype/StillImage" />
      </cc:Work>
    </rdf:RDF>
  </metadata>
  <defs
     id="defs26" />
  <sodipodi:namedview
     pagecolor="#ffffff"
     bordercolor="#666666"
     borderopacity="1"
     objecttolerance="10"
     gridtolerance="10"
     guidetolerance="10"
     inkscape:pageopacity="0"
     inkscape:pageshadow="2"
     inkscape:window-width="817"
     inkscape:window-height="480"
     id="namedview24"
     showgrid="false"
     inkscape:zoom="14.75"
     inkscape:cx="8"
     inkscape:cy="8"
     inkscape:window-x="0"
     inkscape:window-y="27"
     inkscape:window-maximized="0"
     inkscape:current-layer="svg22" />
  <g
     transform="scale(1.5)"
     id="g14">
    <rect
       width="1"
       height="12"
       x="1"
       y="2"
       id="rect2" />
    <rect
       width="2"
       height="1"
       x="2"
       y="2"
       id="rect4" />
    <rect
       width="2"
       height="1"
       x="2"
       y="13"
       id="rect6" />
    <rect
       width="1"
       height="12"
       x="14"
       y="2"
       id="rect8" />
    <rect
       width="3"
       height="1"
       x="12"
       y="2"
       id="rect10" />
    <rect
       width="2"
       height="1"
       x="12"
       y="13"
       id="rect12" />
  </g>
  <g
     transform="scale(0.75) translate(3 3)"
     id="g20">
    <path
       d="M16,4L9,8.04V15.96L16,20L23,15.96V8.04M16,6.31L19.8,8.5L16,10.69L12.21,8.5M0,7V9H7V7M11,10.11L15,12.42V17.11L11,14.81M21,10.11V14.81L17,17.11V12.42M2,11V13H7V11M4,15V17H7V15"
       id="path16" />
    <path
       d="M21,16.5C21,16.88 20.79,17.21 20.47,17.38L12.57,21.82C12.41,21.94 12.21,22 12,22C11.79,22 11.59,21.94 11.43,21.82L3.53,17.38C3.21,17.21 3,16.88 3,16.5V7.5C3,7.12 3.21,6.79 3.53,6.62L11.43,2.18C11.59,2.06 11.79,2 12,2C12.21,2 12.41,2.06 12.57,2.18L20.47,6.62C20.79,6.79 21,7.12 21,7.5V16.5M12,4.15L6.04,7.5L12,10.85L17.96,7.5L12,4.15Z"
       transform="scale(0.8) translate(8 3)"
       id="path18" />
  </g>
  <path
     style="stroke-width:0.74576271"
     inkscape:connector-curvature="0"
     d="M 14.229797,5.268644 9.009458,8.281525 v 5.906441 l 5.220339,3.012881 5.220338,-3.012881 V 8.281525 m -5.220338,-1.290169 2.833898,1.63322 -2.833898,1.63322 -2.826441,-1.63322 M 2.2975934,7.505932 V 8.997458 H 7.517932 V 7.505932 m 2.983051,2.319322 2.983051,1.722712 v 3.497627 L 10.500983,13.330338 M 17.95861,9.825254 v 3.505084 l -2.983051,1.715255 V 11.547966 M 3.7891188,10.488983 v 1.491525 H 7.517932 v -1.491525 m -2.2372877,2.983051 v 1.491525 H 7.517932 v -1.491525"
     id="path2" />
  <path
     style="stroke-width:0.59661013"
     inkscape:connector-curvature="0"
     d="m 19.599288,13.919491 c 0,0.226712 -0.125288,0.423593 -0.316203,0.525017 l -4.71322,2.64895 c -0.09545,0.0716 -0.21478,0.107389 -0.340068,0.107389 -0.125289,0 -0.244611,-0.03579 -0.340068,-0.107389 L 9.176508,14.444508 C 8.985593,14.343084 8.860305,14.146203 8.860305,13.919491 V 8.55 c 0,-0.226712 0.125288,-0.423593 0.316203,-0.525017 l 4.713221,-2.648949 c 0.09546,-0.0716 0.214779,-0.10739 0.340068,-0.10739 0.125288,0 0.244609,0.03579 0.340068,0.10739 l 4.71322,2.648949 C 19.474,8.126407 19.599288,8.323288 19.599288,8.55 v 5.369491 M 14.229797,6.551356 10.674,8.55 14.229797,10.548644 17.785593,8.55 Z"
     id="path4" />
  <path
     themedFill="true"
     style="fill:#5689ff;fill-opacity:1;stroke:#5689ff;stroke-width:0.2058305;stroke-linecap:round;stroke-linejoin:round;stroke-miterlimit:4;stroke-dasharray:none;stroke-opacity:1"
     d="m 14.653136,11.648725 0.04856,5.223351 4.748435,-2.68411 0.05359,-5.290673 z"
     id="path6028-3"
     inkscape:connector-curvature="0"
     sodipodi:nodetypes="ccccc" />
</svg>
