<?xml version="1.0" encoding="UTF-8" standalone="no"?>
<svg
   xmlns:dc="http://purl.org/dc/elements/1.1/"
   xmlns:cc="http://creativecommons.org/ns#"
   xmlns:rdf="http://www.w3.org/1999/02/22-rdf-syntax-ns#"
   xmlns:svg="http://www.w3.org/2000/svg"
   xmlns="http://www.w3.org/2000/svg"
   xmlns:sodipodi="http://sodipodi.sourceforge.net/DTD/sodipodi-0.dtd"
   xmlns:inkscape="http://www.inkscape.org/namespaces/inkscape"
   width="11"
   height="11"
   viewBox="0 0 11 11"
   version="1.1"
   id="svg4"
   sodipodi:docname="rating4.svg"
   inkscape:version="0.92.3 (unknown)">
  <metadata
     id="metadata10">
    <rdf:RDF>
      <cc:Work
         rdf:about="">
        <dc:format>image/svg+xml</dc:format>
        <dc:type
           rdf:resource="http://purl.org/dc/dcmitype/StillImage" />
        <dc:title></dc:title>
      </cc:Work>
    </rdf:RDF>
  </metadata>
  <defs
     id="defs8" />
  <sodipodi:namedview
     pagecolor="#ffffff"
     bordercolor="#666666"
     borderopacity="1"
     objecttolerance="10"
     gridtolerance="10"
     guidetolerance="10"
     inkscape:pageopacity="0"
     inkscape:pageshadow="2"
     inkscape:window-width="853"
     inkscape:window-height="491"
     id="namedview6"
     showgrid="false"
     inkscape:pagecheckerboard="true"
     inkscape:zoom="10.727273"
     inkscape:cx="2.8908293"
     inkscape:cy="5.2116357"
     inkscape:window-x="67"
     inkscape:window-y="27"
     inkscape:window-maximized="0"
     inkscape:current-layer="svg4" />
  <path
          tint="true"
          stroke="#FFFFFF"
          fill="#FFFFFF"
     style="fill-opacity:1;stroke:none;stroke-width:1.51181102;stroke-linecap:round;stroke-linejoin:round;stroke-miterlimit:4;stroke-dasharray:none;stroke-dashoffset:0;stroke-opacity:1"
     d="M 2.9296875 2.5136719 C 0.70595124 2.3490146 -0.075106659 4.9686699 1.3476562 6.9746094 C 2.0255362 7.7530367 2.7171767 8.3200397 3.4121094 8.8085938 C 4.107042 9.2971476 4.8054655 9.7073831 5.5 10.167969 C 6.0425937 9.8081337 6.5868464 9.4648899 7.1308594 9.1054688 L 7.1308594 2.7246094 C 6.283206 2.9923845 5.6914121 3.3634425 5.5 3.46875 C 5.2733996 3.3442751 4.5088391 2.8390168 3.3925781 2.5839844 C 3.2317262 2.547254 3.0779366 2.524649 2.9296875 2.5136719 z "
     id="rect20" />
  <path
     sodipodi:nodetypes="csccscsc"
     inkscape:connector-curvature="0"
     id="path1445-6"
     tint="stroke"
     stroke="#FFFFFF"
     d="M 5.5000048,3.4677885 C 5.7264592,3.3432021 6.490578,2.8397286 7.6068391,2.5848397 10.180435,1.9971545 11.16976,4.8347239 9.6521499,6.9743927 8.2963541,8.5312489 6.889037,9.2464494 5.5000048,10.167622 4.8054703,9.7070363 4.1063741,9.2979421 3.4114415,8.8093882 2.7165088,8.3208342 2.0257398,7.75282 1.3478598,6.9743927 -0.16975397,4.8347239 0.81953885,1.9971545 3.3931703,2.5848397 4.5094313,2.8398721 5.2734044,3.3433136 5.5000048,3.4677885"
     style="fill:none;fill-opacity:1;stroke-width:0.9077158;stroke-linecap:round;stroke-miterlimit:4;stroke-dasharray:none;stroke-opacity:0.94117647" />
</svg>
