<?xml version="1.0" encoding="UTF-8" standalone="no"?>
<svg
   xmlns:dc="http://purl.org/dc/elements/1.1/"
   xmlns:cc="http://creativecommons.org/ns#"
   xmlns:rdf="http://www.w3.org/1999/02/22-rdf-syntax-ns#"
   xmlns:svg="http://www.w3.org/2000/svg"
   xmlns="http://www.w3.org/2000/svg"
   xmlns:sodipodi="http://sodipodi.sourceforge.net/DTD/sodipodi-0.dtd"
   xmlns:inkscape="http://www.inkscape.org/namespaces/inkscape"
   version="1.1"
   width="16px"
   height="16px"
   fill="#81D4FA"
   viewBox="0 0 24 24"
   id="svg4"
   sodipodi:docname="blueKey.svg"
   inkscape:version="0.92.3 (unknown)">
  <metadata
     id="metadata10">
    <rdf:RDF>
      <cc:Work
         rdf:about="">
        <dc:format>image/svg+xml</dc:format>
        <dc:type
           rdf:resource="http://purl.org/dc/dcmitype/StillImage" />
      </cc:Work>
    </rdf:RDF>
  </metadata>
  <defs
     id="defs8" />
  <sodipodi:namedview
     pagecolor="#ffffff"
     bordercolor="#666666"
     borderopacity="1"
     objecttolerance="10"
     gridtolerance="10"
     guidetolerance="10"
     inkscape:pageopacity="0"
     inkscape:pageshadow="2"
     inkscape:window-width="861"
     inkscape:window-height="491"
     id="namedview6"
     showgrid="false"
     inkscape:zoom="14.75"
     inkscape:cx="8"
     inkscape:cy="8"
     inkscape:window-x="67"
     inkscape:window-y="27"
     inkscape:window-maximized="0"
     inkscape:current-layer="svg4" />
  <path
     inkscape:connector-curvature="0"
     style="fill:#29b6f6;stroke-width:0.99807405"
     d="m 7.0124411,6.0154088 c -3.307327,0 -5.9884441,2.6811181 -5.9884441,5.9884442 0,3.307325 2.6811171,5.988442 5.9884441,5.988442 C 9.617414,17.992295 11.831579,16.325513 12.65,14 h 4.343181 v 3.992295 h 3.992295 V 14 h 1.996149 V 10.007705 H 12.65 C 11.831579,7.6821922 9.617414,6.0154088 7.0124411,6.0154088 Z M 4.9032301,9.606136 c 0.2081461,-0.01965 0.4346305,-0.002 0.6822766,0.05459 0.8592967,0.196324 1.4474349,0.58256 1.6218702,0.678379 0.1743263,-0.09591 0.7625738,-0.482165 1.6218701,-0.678378 1.98115,-0.452401 2.74334,1.733083 1.575086,3.380195 C 9.360646,14.239388 8.2766536,14.788003 7.2073769,15.49712 6.1380764,14.787994 5.0579821,14.239377 4.0143201,13.040914 2.9920966,11.59969 3.4462017,9.743681 4.9032301,9.606136 Z"
     id="path4-3" />
</svg>
