<?xml version="1.0" encoding="UTF-8" standalone="no"?>
<svg
   xmlns:dc="http://purl.org/dc/elements/1.1/"
   xmlns:cc="http://creativecommons.org/ns#"
   xmlns:rdf="http://www.w3.org/1999/02/22-rdf-syntax-ns#"
   xmlns:svg="http://www.w3.org/2000/svg"
   xmlns="http://www.w3.org/2000/svg"
   xmlns:sodipodi="http://sodipodi.sourceforge.net/DTD/sodipodi-0.dtd"
   xmlns:inkscape="http://www.inkscape.org/namespaces/inkscape"
   version="1.1"
   width="16px"
   height="16px"
   fill="#81D4FA"
   viewBox="0 0 24 24"
   id="svg8"
   sodipodi:docname="colBlueKeyDotIndex.svg"
   inkscape:version="0.92.3 (unknown)">
  <metadata
     id="metadata14">
    <rdf:RDF>
      <cc:Work
         rdf:about="">
        <dc:format>image/svg+xml</dc:format>
        <dc:type
           rdf:resource="http://purl.org/dc/dcmitype/StillImage" />
      </cc:Work>
    </rdf:RDF>
  </metadata>
  <defs
     id="defs12" />
  <sodipodi:namedview
     pagecolor="#ffffff"
     bordercolor="#666666"
     borderopacity="1"
     objecttolerance="10"
     gridtolerance="10"
     guidetolerance="10"
     inkscape:pageopacity="0"
     inkscape:pageshadow="2"
     inkscape:window-width="863"
     inkscape:window-height="491"
     id="namedview10"
     showgrid="false"
     inkscape:zoom="7.375"
     inkscape:cx="-4.0686654"
     inkscape:cy="8.5489396"
     inkscape:window-x="139"
     inkscape:window-y="169"
     inkscape:window-maximized="0"
     inkscape:current-layer="svg8" />
  <path
     inkscape:connector-curvature="0"
     style="fill:#29b6f6;stroke-width:0.99807405"
     d="m 7.0308159,6.0077044 c -3.307327,0 -5.9884441,2.6811176 -5.9884441,5.9884436 0,3.307325 2.6811171,5.988442 5.9884441,5.988442 2.6049732,0 4.8191381,-1.666782 5.6375591,-3.992295 h 4.343181 v 3.992295 h 3.992295 V 13.992295 H 23 V 10 H 12.668375 C 11.849954,7.674488 9.6357891,6.0077044 7.0308159,6.0077044 Z M 4.9216049,9.598431 C 5.129751,9.578781 5.3562354,9.596431 5.6038815,9.653021 6.4631782,9.849345 7.0513164,10.23558 7.2257517,10.3314 7.400078,10.23549 7.9883255,9.849235 8.8476221,9.653021 10.828772,9.200621 11.590962,11.386104 10.422708,13.033216 9.3790207,14.231682 8.2950284,14.780297 7.2257517,15.489414 6.1564512,14.780292 5.0763569,14.231675 4.0326949,13.033212 3.0104714,11.591988 3.4645765,9.735979 4.9216049,9.598434 Z"
     id="path4-3" />
  <path
     inkscape:connector-curvature="0"
     style="fill:#fdd835;stroke:#000000;stroke-width:0.5"
     d="m 13.80669,0.7394382 c -0.276142,0 -0.500976,0.224834 -0.500976,0.500976 v 3.0000001 c 0,0.2761429 0.224834,0.4980469 0.500976,0.4980469 h 7.998048 c 0.27614,0 0.500975,-0.221904 0.500975,-0.4980469 V 1.2404142 c 0,-0.276142 -0.224835,-0.500976 -0.500975,-0.500976 z m 1.400391,0.814453 c 0.09315,-0.0088 0.196798,-0.0019 0.307616,0.02344 0.384528,0.08785 0.648506,0.261808 0.726563,0.304687 0.07802,-0.04291 0.339107,-0.2168841 0.723633,-0.3046871 0.886543,-0.202444 1.228837,0.7775809 0.706054,1.514649 -0.46704,0.536301 -0.951196,0.7813091 -1.429688,1.098632 -0.478501,-0.3173228 -0.965588,-0.562332 -1.432616,-1.0986319 -0.457434,-0.644935 -0.253568,-1.476536 0.398438,-1.538086 z m -1.400391,4.186523 c -0.276142,0 -0.500976,0.2219051 -0.500976,0.498047 V 9.238461 c 0,0.276143 0.224834,0.500977 0.500976,0.500977 h 7.998048 c 0.27614,0 0.500975,-0.224834 0.500975,-0.500977 V 6.2384612 c 0,-0.2761419 -0.224835,-0.498047 -0.500975,-0.498047 z m 1.491211,0.9023441 c 0.08934,-0.0084 0.186678,-8.34e-4 0.29297,0.02344 0.368811,0.084259 0.622396,0.251842 0.697264,0.292969 0.07482,-0.04116 0.325527,-0.2087539 0.694337,-0.292969 C 17.832783,6.4720284 18.160645,7.4094504 17.65923,8.116393 17.211277,8.630775 16.747069,8.866727 16.288135,9.171081 15.829191,8.866727 15.362052,8.630775 14.914113,8.116394 14.475373,7.497819 14.672544,6.7017962 15.297901,6.6427613 Z"
     id="path54" />
  <path
     sodipodi:nodetypes="cscccsc"
     inkscape:connector-curvature="0"
     id="path1445-6"
     d="m 19.656393,18.137132 c 0.173657,-0.09554 0.759623,-0.481629 1.61563,-0.677091 1.973567,-0.450667 2.732233,1.725328 1.56845,3.366137 -1.039694,1.193878 -2.118898,1.742331 -3.18408,2.448734 -1.06521,-0.706403 -2.144412,-1.254857 -3.184079,-2.448734 -1.163786,-1.640809 -0.405144,-3.816804 1.568449,-3.366137 0.856007,0.195572 1.441861,0.581637 1.61563,0.677091"
     style="fill:#00ff00;fill-opacity:1;stroke:#00000f;stroke-width:1.04999995;stroke-linecap:round;stroke-linejoin:miter;stroke-miterlimit:4.69999981;stroke-dasharray:none;stroke-opacity:0.94117647" />
</svg>
