<?xml version="1.0" encoding="UTF-8" standalone="no"?>
<svg
   xmlns:dc="http://purl.org/dc/elements/1.1/"
   xmlns:cc="http://creativecommons.org/ns#"
   xmlns:rdf="http://www.w3.org/1999/02/22-rdf-syntax-ns#"
   xmlns:svg="http://www.w3.org/2000/svg"
   xmlns="http://www.w3.org/2000/svg"
   xmlns:sodipodi="http://sodipodi.sourceforge.net/DTD/sodipodi-0.dtd"
   xmlns:inkscape="http://www.inkscape.org/namespaces/inkscape"
   version="1.1"
   width="16px"
   height="16px"
   viewBox="0 0 24 24"
   id="svg4"
   sodipodi:docname="CMakeTarget_Utility.svg"
   inkscape:version="0.92.3 (unknown)">
  <metadata
     id="metadata10">
    <rdf:RDF>
      <cc:Work
         rdf:about="">
        <dc:format>image/svg+xml</dc:format>
        <dc:type
           rdf:resource="http://purl.org/dc/dcmitype/StillImage" />
      </cc:Work>
    </rdf:RDF>
  </metadata>
  <defs
     id="defs8" />
  <sodipodi:namedview
     pagecolor="#ffffff"
     bordercolor="#666666"
     borderopacity="1"
     objecttolerance="10"
     gridtolerance="10"
     guidetolerance="10"
     inkscape:pageopacity="0"
     inkscape:pageshadow="2"
     inkscape:window-width="863"
     inkscape:window-height="491"
     id="namedview6"
     showgrid="false"
     inkscape:zoom="14.75"
     inkscape:cx="8"
     inkscape:cy="8"
     inkscape:window-x="67"
     inkscape:window-y="27"
     inkscape:window-maximized="0"
     inkscape:current-layer="svg4" />
  <path
     inkscape:connector-curvature="0"
     style="fill:#c792ea;fill-opacity:1;stroke-width:1"
     d="M 9.9993353,2 C 9.7493354,2 9.5412884,2.1789453 9.5012885,2.4189452 L 9.1292181,5.0703125 C 8.4992182,5.3203124 7.9617182,5.6588281 7.4417181,6.048828 L 4.9514837,5.0498047 c -0.2199999,-0.09 -0.4923046,-2.735e-4 -0.6123046,0.2197266 L 2.3411323,8.7294921 c -0.1300005,0.2200001 -0.069883,0.488672 0.120117,0.638672 L 4.5706243,11 c -0.040001,0.34 -0.070312,0.669024 -0.070312,0.999024 0,0.329999 0.030312,0.649726 0.070312,0.969726 l -2.1093749,1.661133 c -0.19,0.15 -0.2501172,0.418672 -0.120117,0.638672 l 1.9980468,3.459961 c 0.12,0.22 0.3923048,0.299727 0.6123046,0.219726 l 2.4902345,-1.007811 c 0.52,0.399999 1.0575,0.737304 1.6875,0.987304 l 0.3720703,2.651367 c 0.04,0.24 0.2480469,0.418946 0.4980468,0.418946 h 4.0019536 c 0.25,0 0.458047,-0.178946 0.498047,-0.418946 l 0.37207,-2.651367 c 0.629999,-0.260001 1.1675,-0.587305 1.687499,-0.987304 l 2.490236,1.007811 c 0.219999,0.08 0.492305,2.74e-4 0.612304,-0.219726 l 1.998047,-3.459961 c 0.12,-0.22 0.06988,-0.488672 -0.12012,-0.638672 L 19.43,12.96875 c 0.04001,-0.32 0.07031,-0.639727 0.07031,-0.969726 C 19.50031,11.669024 19.46999,11.34 19.43,11 l 2.109375,-1.6318359 c 0.19,-0.1500001 0.240117,-0.4186719 0.12012,-0.6386719 L 19.661445,5.2695313 C 19.541446,5.0495312 19.26914,4.9598047 19.049141,5.0498047 L 16.558905,6.048828 C 16.038906,5.6588281 15.501407,5.3203124 14.871406,5.0703125 L 14.499336,2.4189452 C 14.459336,2.1789453 14.251289,2 14.001289,2 Z M 9.3020697,8.6035156 c 0.1584588,0.01173 0.3261173,0.036912 0.4980468,0.076171 1.1931375,0.2725967 2.0077945,0.8132418 2.2500005,0.9462896 0.24205,-0.1331672 1.059793,-0.6738459 2.25293,-0.9462887 2.750837,-0.6281592 3.807675,2.4063335 2.185547,4.6933595 -1.449168,1.664075 -2.953784,2.428473 -4.438477,3.413085 C 10.565385,15.80152 9.0607698,15.03712 7.6116401,13.373047 6.0908927,11.22896 6.9251874,8.4275182 9.3020697,8.6035156 Z"
     id="path2-3" />
</svg>
