<?xml version="1.0" encoding="UTF-8" standalone="no"?>
<svg
   xmlns:dc="http://purl.org/dc/elements/1.1/"
   xmlns:cc="http://creativecommons.org/ns#"
   xmlns:rdf="http://www.w3.org/1999/02/22-rdf-syntax-ns#"
   xmlns:svg="http://www.w3.org/2000/svg"
   xmlns="http://www.w3.org/2000/svg"
   xmlns:sodipodi="http://sodipodi.sourceforge.net/DTD/sodipodi-0.dtd"
   xmlns:inkscape="http://www.inkscape.org/namespaces/inkscape"
   version="1.1"
   width="16px"
   height="16px"
   fill="#FFFFFF"
   viewBox="0 0 24 24"
   id="svg4"
   sodipodi:docname="closeHovered.svg"
   inkscape:version="0.92.3 (unknown)">
  <metadata
     id="metadata10">
    <rdf:RDF>
      <cc:Work
         rdf:about="">
        <dc:format>image/svg+xml</dc:format>
        <dc:type
           rdf:resource="http://purl.org/dc/dcmitype/StillImage" />
        <dc:title></dc:title>
      </cc:Work>
    </rdf:RDF>
  </metadata>
  <defs
     id="defs8" />
  <sodipodi:namedview
     pagecolor="#ffffff"
     bordercolor="#666666"
     borderopacity="1"
     objecttolerance="10"
     gridtolerance="10"
     guidetolerance="10"
     inkscape:pageopacity="0"
     inkscape:pageshadow="2"
     inkscape:window-width="853"
     inkscape:window-height="491"
     id="namedview6"
     showgrid="false"
     inkscape:pagecheckerboard="true"
     inkscape:zoom="5.2149125"
     inkscape:cx="2.3626509"
     inkscape:cy="14.75841"
     inkscape:window-x="67"
     inkscape:window-y="27"
     inkscape:window-maximized="0"
     inkscape:current-layer="svg4" />
  <path
     style="fill-opacity:1;stroke:none;stroke-width:1.24490035;stroke-linecap:round;stroke-linejoin:miter;stroke-miterlimit:4.69999981;stroke-dasharray:none;stroke-opacity:0.94117647"
     d="M 4.0097656 2.203125 C 0.47160135 1.9411404 -0.77155663 6.1091507 1.4921875 9.3007812 C 3.649324 11.777877 5.8894758 12.915191 8.0996094 14.380859 C 10.309685 12.915191 12.547885 11.777879 14.705078 9.3007812 C 17.119735 5.8963753 15.545995 1.3813461 11.451172 2.3164062 C 9.6750985 2.7219574 8.45992 3.5224735 8.0996094 3.7207031 C 7.7390674 3.5226523 6.5241195 2.7221857 4.7480469 2.3164062 C 4.4921169 2.257965 4.2456432 2.2205906 4.0097656 2.203125 z M 11.601562 2.3730469 L 11.601562 2.3945312 C 11.592887 2.388952 11.584876 2.3824935 11.576172 2.3769531 C 11.584734 2.3754554 11.592987 2.3745745 11.601562 2.3730469 z M 5.6074219 4.6660156 L 8 7.0605469 L 10.392578 4.6660156 L 11.333984 5.6074219 L 8.9394531 8 L 11.333984 10.392578 L 10.392578 11.333984 L 8 8.9394531 L 5.6074219 11.333984 L 4.6660156 10.392578 L 7.0605469 8 L 4.6660156 5.6074219 L 5.6074219 4.6660156 z "
     transform="scale(1.5)"
     id="path845" />
</svg>
