<svg xmlns="http://www.w3.org/2000/svg" width="16" height="16" viewBox="0 0 16 16">
  <path fill="#AFB1B3" accentTint="fill" opacity="0.9" fill-rule="evenodd" d="m 12.574715,11.885281 c -1.100568,1.296455 -2.7422362,2.119158 -4.5760562,2.119158 -2.9595859,0 -5.4186855,-2.14285 -5.9104512,-4.9616917 l 1.8595357,0.064936 c 0.4859786,1.7821743 2.1161878,3.0923683 4.0524103,3.0923683 1.3013388,0 2.4644454,-0.591842 3.2348334,-1.521043 L 9.0500002,8.7116796 14.043148,8.4499998 14.304822,13.443043 Z" transform="rotate(3 8.002 8.004)"/>
  <path fill="#AFB1B3" fill-rule="evenodd" d="m 3.4278564,4.1174159 c 1.100535,-1.2928884 2.7398982,-2.1129773 4.5708024,-2.1129773 2.9199452,0 5.3527212,2.0858311 5.8896362,4.8487921 l -1.865656,-0.06515 C 11.502487,5.0593555 9.898381,3.8000774 8.0001536,3.8000774 c -1.3014799,0 -2.4646973,0.5919707 -3.2350844,1.521345 L 6.954822,7.2930433 1.9616744,7.554723 1.7000001,2.5616797 Z" transform="rotate(3 8.002 8.004)"/>
</svg>
