<svg xmlns="http://www.w3.org/2000/svg" width="16" height="16" viewBox="0 0 16 16">
  <path  fill="#9AA7B0"  d="m 7.6386719,1.2324219 c -0.462384,-1.47e-4 -0.8426764,0.3814411 -0.84375,0.84375 l -0.011719,4.7070312 -4.7070312,0.011719 c -0.4622062,0.00122 -0.843766,0.3814463 -0.84375,0.84375 v 0.734375 C 1.232392,8.8361108 1.6150623,9.2187646 2.078125,9.21875 H 8.3730469 C 8.8360841,9.2187347 9.218779,8.8361041 9.21875,8.3730469 V 2.078125 C 9.2187944,1.6150607 8.8361096,1.2324217 8.3730469,1.2324219 Z"/>
  <path  fill="#9AA7B0" accentTint="fill"  d="M 6.7832031,6.7832031 V 7.078125 c -0.00216,2.2821139 -0.00167,4.564022 -0.00195,6.845703 -4.39e-5,0.463065 0.3826389,0.84375 0.8457031,0.84375 h 0.734375 c 0.4623842,1.47e-4 0.8426783,-0.379486 0.84375,-0.841797 l 0.011719,-4.7089841 4.7070308,-0.00977 c 0.462207,-0.00122 0.843768,-0.3833974 0.84375,-0.8457031 v -0.734375 c 2.8e-5,-0.4630634 -0.38264,-0.8437642 -0.845703,-0.84375 z"/>
</svg>
