<?xml version="1.0" encoding="UTF-8" standalone="no"?>
<svg
   xmlns:dc="http://purl.org/dc/elements/1.1/"
   xmlns:cc="http://creativecommons.org/ns#"
   xmlns:rdf="http://www.w3.org/1999/02/22-rdf-syntax-ns#"
   xmlns:svg="http://www.w3.org/2000/svg"
   xmlns="http://www.w3.org/2000/svg"
   xmlns:sodipodi="http://sodipodi.sourceforge.net/DTD/sodipodi-0.dtd"
   xmlns:inkscape="http://www.inkscape.org/namespaces/inkscape"
   version="1.1"
   width="32px"
   height="32px"
   fill="#607D8B"
   viewBox="0 0 24 24"
   id="svg4"
   sodipodi:docname="balloonClose.svg"
   inkscape:version="0.92.3 (unknown)">
  <metadata
     id="metadata10">
    <rdf:RDF>
      <cc:Work
         rdf:about="">
        <dc:format>image/svg+xml</dc:format>
        <dc:type
           rdf:resource="http://purl.org/dc/dcmitype/StillImage" />
      </cc:Work>
    </rdf:RDF>
  </metadata>
  <defs
     id="defs8" />
  <sodipodi:namedview
     pagecolor="#ffffff"
     bordercolor="#666666"
     borderopacity="1"
     objecttolerance="10"
     gridtolerance="10"
     guidetolerance="10"
     inkscape:pageopacity="0"
     inkscape:pageshadow="2"
     inkscape:window-width="640"
     inkscape:window-height="491"
     id="namedview6"
     showgrid="false"
     inkscape:zoom="7.375"
     inkscape:cx="16"
     inkscape:cy="16"
     inkscape:window-x="67"
     inkscape:window-y="27"
     inkscape:window-maximized="0"
     inkscape:current-layer="svg4" />
  <path
     inkscape:connector-curvature="0"
     style="fill-opacity:1;stroke:none;stroke-width:1.87330627;stroke-linecap:round;stroke-linejoin:miter;stroke-miterlimit:4.69999981;stroke-dasharray:none;stroke-opacity:0.94117647"
     d="M 5.985246,3.2938814 C 0.661073,2.899651 -1.209611,9.1716067 2.196835,13.974322 c 3.246024,3.727494 6.616969,5.438906 9.942743,7.64442 3.325685,-2.205514 6.693694,-3.916923 9.939803,-7.64442 C 25.712919,8.8514257 23.34478,2.0572816 17.182957,3.4643451 14.510349,4.0746122 12.681768,5.279216 12.139578,5.5775087 11.59704,5.279485 9.768806,4.0749556 7.096199,3.4643451 6.711081,3.3764037 6.340191,3.3201634 5.985246,3.2938814 Z M 17.40926,3.5495771 v 0.032329 c -0.01305,-0.00839 -0.02512,-0.018118 -0.0382,-0.02645 0.01284,-0.00227 0.0253,-0.00358 0.0382,-0.00587 z M 8.389374,7 11.989688,10.603254 15.59,7 17.006614,8.4166127 13.403361,12.016927 17.006614,15.617241 15.59,17.033853 11.989688,13.430601 8.389374,17.033853 6.972761,15.617241 10.576013,12.016927 6.972761,8.4166127 Z"
     id="path845" />
</svg>
