<svg xmlns="http://www.w3.org/2000/svg" width="16" height="16" viewBox="0 0 16 16">
  <g transform="matrix(0,1.3111062,-1.3111062,0,18.881537,-1.8893663)">
    <path  fill="#AFB1B3" stroke="#AFB1B3" stroke-width="0.45" d="m 8.2469777,8.0145221 -1.54e-5,4.8017899 c 7.3e-6,0.231584 -0.1877254,0.419317 -0.4193025,0.419302 l -0.5600436,-7e-6 c -0.2311867,8e-6 -0.4187581,-0.187122 -0.4193686,-0.418236 L 6.8392907,9.0028992 3.0248332,8.9939565 C 2.7936457,8.9934196 2.6065234,8.8058414 2.6065969,8.5745877 l -7.3e-6,-0.5600434 c -10e-8,-0.2315919 0.1877326,-0.4193247 0.4193025,-0.4193025 l 4.8017754,-1e-7 c 0.2315772,-1.45e-5 0.4193026,0.1877109 0.4193102,0.4192804 z"/>
    <path  fill="#AFB1B3" accentTint="both" stroke-width="0.45" d="m 6.8392907,9.0028992 1.46e-5,-5.2201948 c -7.1e-6,-0.2315846 0.1877255,-0.4193172 0.419303,-0.4193031 l 0.5600434,7.8e-6 c 0.2311871,-8.5e-6 0.4187584,0.1871217 0.4193684,0.418236 l 0.009,3.8144722 3.8144589,0.00894 c 0.231187,5.36e-4 0.418309,0.1881152 0.418236,0.4193688 l 7e-6,0.5600427 c 0,0.231593 -0.187733,0.4193254 -0.419303,0.4193034 -1.740376,-2.164e-4 -3.4807539,7.808e-4 -5.2211283,-8.73e-4 z"/>
  </g>
</svg>
