<svg xmlns="http://www.w3.org/2000/svg" version="1.1" width="16px" height="16px" viewBox="0 0 16 16"> <path fill="#6E6E6E" style="fill-opacity:1;stroke-width:1" fill-rule="evenodd" d="M 8 1.5 C 7.5346862 1.5 7.080195 1.5496478 6.6425781 1.6425781 L 6.4628906 3.4511719 C 5.8540989 3.6568753 5.2998929 3.9807724 4.828125 4.3964844 L 3.1699219 3.6503906 C 2.5650223 4.3214998 2.0989417 5.1181348 1.8144531 5.9980469 L 3.2929688 7.0585938 C 3.2324958 7.3628606 3.1992188 7.6779668 3.1992188 8 C 3.1992188 8.3220332 3.2324957 8.6371396 3.2929688 8.9414062 L 1.8144531 10.001953 C 2.0989417 10.881865 2.5650223 11.6785 3.1699219 12.349609 L 4.828125 11.603516 C 5.2998929 12.019228 5.8540988 12.343125 6.4628906 12.548828 L 6.6425781 14.357422 C 7.080195 14.450352 7.5346862 14.5 8 14.5 C 8.4653138 14.5 8.919805 14.450352 9.3574219 14.357422 L 9.5371094 12.548828 C 10.145902 12.343124 10.700107 12.019228 11.171875 11.603516 L 12.830078 12.349609 C 13.434978 11.6785 13.901059 10.881865 14.185547 10.001953 L 12.707031 8.9414062 C 12.767511 8.6371396 12.800781 8.3220333 12.800781 8 C 12.800781 7.6779667 12.767505 7.3628607 12.707031 7.0585938 L 14.185547 5.9980469 C 13.901059 5.1181348 13.434978 4.3214998 12.830078 3.6503906 L 11.171875 4.3964844 C 10.700107 3.9807724 10.145902 3.6568752 9.5371094 3.4511719 L 9.3574219 1.6425781 C 8.919805 1.5496479 8.4653138 1.5 8 1.5 z M 6.2226562 6.1699219 C 6.3830227 6.1547829 6.5592013 6.165415 6.75 6.2089844 C 7.4120448 6.360035 7.8656131 6.6605581 8 6.734375 C 8.1342671 6.660648 8.5879552 6.3601549 9.25 6.2089844 C 10.77639 5.8604293 11.362991 7.5434958 10.462891 8.8125 C 9.6587872 9.7358562 8.8238547 10.160701 8 10.707031 C 7.1761753 10.160701 6.3412136 9.7358562 5.5371094 8.8125 C 4.7495487 7.7021213 5.1000908 6.2758949 6.2226562 6.1699219 z "/></svg>
