<svg
        xmlns="http://www.w3.org/2000/svg"
        version="1.1"
        width="16px"
        height="16px"
        viewBox="0 0 24 24">
    <path
            fill="#6E6E6E"
            style="fill-opacity:1;stroke-width:1"
            fill-rule="evenodd"
            d="m 10.000859,1.9996875 c -0.2499996,0 -0.4609763,0.1789454 -0.5009762,0.4189452 L 9.1307421,5.07 C 8.5007419,5.3199999 7.9603129,5.6585156 7.4403119,6.0485155 L 4.9500779,5.0494922 c -0.22,-0.09 -0.489375,-2.735e-4 -0.609375,0.2197266 l -2.000977,3.4599608 c -0.13,0.2200001 -0.06988,0.4886718 0.120117,0.638672 l 2.112305,1.6318364 c -0.04,0.34 -0.07031,0.669023 -0.07031,0.999023 0,0.33 0.03031,0.649727 0.07031,0.969727 l -2.112305,1.661133 c -0.19,0.15 -0.250117,0.418672 -0.120117,0.638672 l 2.000977,3.459961 c 0.12,0.22 0.389375,0.299727 0.609375,0.219726 l 2.490235,-1.007811 c 0.52,0.399999 1.060429,0.737304 1.6904293,0.987304 l 0.3691407,2.651367 c 0.04,0.24 0.2509766,0.418946 0.5009761,0.418946 h 3.999024 c 0.25,0 0.460977,-0.178946 0.500977,-0.418946 L 14.87,18.927423 c 0.630001,-0.260001 1.17043,-0.587305 1.69043,-0.987304 l 2.490234,1.007811 c 0.220001,0.08 0.489376,2.74e-4 0.609375,-0.219726 l 2.000976,-3.459961 c 0.12,-0.22 0.06989,-0.488672 -0.12012,-0.638672 l -2.109372,-1.661133 c 0.04001,-0.32 0.0703,-0.639727 0.0703,-0.969727 0,-0.33 -0.03031,-0.659023 -0.0703,-0.999023 l 2.109375,-1.6318364 c 0.190001,-0.1500001 0.240117,-0.4186719 0.12012,-0.6386719 L 19.660039,5.2692188 C 19.54004,5.0492187 19.270665,4.9594922 19.050664,5.0494922 L 16.56043,6.0485155 C 16.04043,5.6585156 15.500001,5.3199999 14.87,5.07 L 14.500859,2.4186327 c -0.04,-0.2399998 -0.250976,-0.4189452 -0.500976,-0.4189452 z M 9.1864062,8.5592577 c 0.2637285,-0.024897 0.5534109,-0.00426 0.8671878,0.067383 1.088755,0.2487516 1.832694,0.7399183 2.053711,0.8613282 0.220875,-0.1215176 0.967887,-0.6127192 2.05664,-0.8613283 2.510178,-0.5732015 3.475333,2.1933314 1.995118,4.2802744 -1.322387,1.518494 -2.696953,2.218714 -4.051758,3.117187 C 10.752466,15.125629 9.3808279,14.425409 8.0584769,12.906915 6.7632869,11.08084 7.3403069,8.7335353 9.1864062,8.5592577 Z"/>
</svg>
