<svg
        xmlns="http://www.w3.org/2000/svg"
        version="1.1"
        width="16px"
        height="16px"
        viewBox="0 0 16 16">
    <path
            fill="#6E6E6E"
            style="fill-opacity:1;stroke-width:1"
            fill-rule="evenodd"
            d="m 8,1.3508495 c -0.4759344,0 -0.9395796,0.050003 -1.3871849,0.1450542 L 6.427746,3.3482623 C 5.8050589,3.5586607 5.2379903,3.8900898 4.7554547,4.3152903 L 3.0598212,3.5500044 C 2.4411151,4.2364312 1.9636183,5.0525728 1.6726364,5.9525685 L 3.1848679,7.037974 C 3.1230149,7.3491854 3.0898325,7.6706165 3.0898325,8 c 0,0.3293833 0.033182,0.6508146 0.095035,0.962026 L 1.672636,10.047432 c 0.2909819,0.899996 0.7684787,1.716137 1.3871848,2.402564 L 4.7554547,11.68471 c 0.4825358,0.4252 1.0496041,0.756629 1.6722913,0.967028 l 0.1850691,1.852359 C 7.0604204,14.599152 7.5240656,14.64915 8,14.64915 c 0.4759343,0 0.9395795,-0.05 1.3871848,-0.145053 L 9.572254,12.651738 c 0.622687,-0.210399 1.189755,-0.541828 1.672291,-0.967028 l 1.695633,0.765286 c 0.618706,-0.686427 1.096203,-1.502568 1.387185,-2.402564 L 12.815132,8.962026 C 12.876983,8.6508145 12.910167,8.3293834 12.910167,8 c 0,-0.3293837 -0.03318,-0.6508145 -0.09503,-0.962026 L 14.327363,5.9525685 C 14.036381,5.0525728 13.558884,4.2364312 12.940178,3.5500044 L 11.244545,4.3152903 C 10.76201,3.8900898 10.194941,3.5586607 9.572254,3.3482623 L 9.3871848,1.4959037 C 8.9395795,1.4008523 8.4759343,1.3508495 8,1.3508495 Z M 6.3677235,5.7975106 c 0.094654,0.00701 0.1924101,0.021565 0.2951104,0.045017 C 7.3755497,6.0052745 7.8636653,6.326593 8.0083364,6.4060712 8.153007,6.326593 8.6411243,6.0052746 9.353839,5.8425273 10.997042,5.4673027 11.628284,7.2791106 10.659326,8.645241 9.7936863,9.6392672 8.8952222,10.096184 8.0083364,10.684336 7.1214497,10.096184 6.2229873,9.6392672 5.3573462,8.645241 4.4489482,7.3644937 4.9479188,5.6923835 6.3677235,5.7975106 Z"/>
</svg>
