<svg
    xmlns="http://www.w3.org/2000/svg"
    width="200"
    height="200"
    viewBox="0 0 306.27271 306.27273">
    <g
        transform="translate(60.244166,322.02589)">
        <path
            style="fill:#ffffff;fill-opacity:0.67843139;stroke:#010101;stroke-width:20.47553825;stroke-linecap:round;stroke-linejoin:miter;stroke-miterlimit:6;stroke-dasharray:81.90215273, 40.95107626, 20.47553813, 40.95107626;stroke-dashoffset:0;stroke-opacity:1;paint-order:stroke fill markers"
            d="m 92.792121,-247.73293 c 6.549435,-3.59804 28.631709,-18.1544 60.896649,-25.52212 74.38868,-16.9866 102.9839,65.0324 59.1187,126.87773 -39.18799,45.00015 -79.86549,65.672174 -120.015349,92.298097 -40.1497,-26.625923 -80.827195,-47.297947 -120.01519,-92.298097 -43.865266,-61.84533 -15.269976,-143.86433 59.118638,-126.87773 32.264976,7.36772 54.347318,21.92408 60.896552,25.52212"/>
        <path
            style="fill:#7bd4f4;fill-opacity:0.99000001;stroke:#000000;stroke-width:12.99800077;stroke-linecap:round;stroke-linejoin:miter;stroke-miterlimit:4;stroke-dasharray:none;stroke-dashoffset:0;stroke-opacity:1"
            d="m 92.961155,-213.27166 c 3.935223,-2.16188 17.203365,-10.90808 36.589775,-15.33497 44.69646,-10.2064 61.8779,39.07475 35.52147,76.23453 -23.54609,27.03835 -47.98719,39.45913 -72.111245,55.457327 -24.123952,-15.998197 -48.565043,-28.418977 -72.111162,-55.457327 -26.3564585,-37.15978 -9.174969,-86.44093 35.521455,-76.23453 19.386422,4.42689 32.65459,13.17309 36.589707,15.33497"/>
    </g>
</svg>
