<svg id="a" xmlns="http://www.w3.org/2000/svg" width="200" height="200" viewBox="0 0 24 24">
<g>
  <rect
    x="1.48" y="7.07" width="23.04" height="9.87" rx="2.3" ry="2.3" transform="translate(-4.68 12.71) rotate(-45)"
        fill="#1ecd86"/>
  <rect
    x="-.53" y="7.07" width="23.04" height="9.87" rx="2.3" ry="2.3" transform="translate(10.28 28.26) rotate(-135)"
        fill="#1ecd86"/>
  <rect
    x="7.07" y="8.07" width="9.87" height="9.87" rx="1.65" ry="1.65" transform="translate(12.71 -4.68) rotate(45)"
        fill="#106e49"/>
</g>
<path
  d="M12.01,11.73c.14-.08,.63-.4,1.33-.56,1.63-.37,2.26,1.43,1.3,2.78-.86,.99-1.75,1.44-2.63,2.02-.88-.58-1.77-1.04-2.63-2.02-.96-1.36-.33-3.15,1.3-2.78,.71,.16,1.19,.48,1.33,.56"
  fill="#1ecd86"/>
</svg>