<svg width="200" height="200" version="1.1" viewBox="0 0 52.915 52.915" xmlns="http://www.w3.org/2000/svg" xmlns:cc="http://creativecommons.org/ns#" xmlns:dc="http://purl.org/dc/elements/1.1/" xmlns:rdf="http://www.w3.org/1999/02/22-rdf-syntax-ns#">
  <path accentTint="fill" d="m49.495 13.229c1.7198 2.9788 1.7198 23.48 0 26.457-1.7198 2.9784-19.475 13.229-22.914 13.229-3.4396 0-21.195-10.251-22.914-13.229-1.7198-2.9788-1.7198-23.48 0-26.457 1.7198-2.9788 19.475-13.229 22.914-13.229 3.4396 0 21.195 10.251 22.914 13.229z" fill="#152b48" stroke-width=".1124" style="paint-order:stroke fill markers"/>
  <path accentTintDarker="fill" d="m43.44 8.4075c0.03488 0.09687 0.07029 0.19354 0.10286 0.29137 0.665 0.62065-5.8164 29.196-40.611 23.868-0.16135-0.48752-0.31207-0.96732-0.45799-1.4438 0.16964 4.0491 0.56546 7.4762 1.1929 8.563 1.7194 2.9785 19.475 13.229 22.914 13.229 3.4389 0 21.195-10.251 22.914-13.229 1.7198-2.9775 1.7198-23.479 0-26.458-0.5794-1.0037-2.9959-2.8372-6.0557-4.8217z" fill="#0e1d31" stroke-width=".1124" style="paint-order:stroke fill markers"/>
  <path accentContrastTint="stroke"  d="m26.786 19.341c0.78035-0.42869 3.4115-2.163 7.2558-3.0409 8.8633-2.024 12.27 7.7485 7.0439 15.118-4.6692 5.3617-9.5156 7.8247-14.3 10.997-4.7838-3.1724-9.63-5.6355-14.3-10.997-5.2264-7.3687-1.8194-17.141 7.0439-15.118 3.8443 0.87785 6.4754 2.6122 7.2558 3.0409" fill="#152b48" stroke="#fff" stroke-dasharray="9.75870597, 4.87935299, 2.43967649, 4.87935299" stroke-linecap="round" stroke-miterlimit="6" stroke-width="2.4396" style="fill: none; paint-order:stroke fill markers"/>
  <path accentTint="fill" d="m36.389 16.03c-0.73241-0.0059-1.5153 0.08021-2.3462 0.26994-3.8445 0.87789-6.4758 2.6125-7.256 3.0412h-4.68e-4c-0.78043-0.42872-3.4117-2.1633-7.256-3.0412-8.8633-2.0229-12.27 7.7493-7.0439 15.118 4.67 5.3617 9.5165 7.8246 14.3 10.997 4.7843-3.1725 9.6306-5.6353 14.3-10.997 4.7362-6.6786 2.3824-15.331-4.6976-15.388z" fill="#152b48" stroke-width=".11241" style="paint-order:stroke fill markers"/>
  <path accentTintDarker="fill" d="m40.514 17.321c-3.7651 6.6533-11.568 14.871-26.43 15.814 4.1721 4.2098 8.4613 6.4686 12.702 9.2806 4.7843-3.1725 9.6306-5.6353 14.3-10.997 3.6403-5.1332 3.0907-11.431-0.57249-14.097z" fill="#0e1d31" stroke-width=".2383" style="paint-order:stroke fill markers"/>
</svg>
