<?xml version="1.0" encoding="UTF-8" standalone="no"?>
<svg
   xmlns:dc="http://purl.org/dc/elements/1.1/"
   xmlns:cc="http://creativecommons.org/ns#"
   xmlns:rdf="http://www.w3.org/1999/02/22-rdf-syntax-ns#"
   xmlns:svg="http://www.w3.org/2000/svg"
   xmlns="http://www.w3.org/2000/svg"
   xmlns:sodipodi="http://sodipodi.sourceforge.net/DTD/sodipodi-0.dtd"
   xmlns:inkscape="http://www.inkscape.org/namespaces/inkscape"
   version="1.1"
   width="13px"
   height="13px"
   viewBox="0 0 24 24"
   id="svg4"
   sodipodi:docname="toolWindowPreview.svg"
   inkscape:version="0.92.3 (unknown)">
  <metadata
     id="metadata10">
    <rdf:RDF>
      <cc:Work
         rdf:about="">
        <dc:format>image/svg+xml</dc:format>
        <dc:type
           rdf:resource="http://purl.org/dc/dcmitype/StillImage" />
      </cc:Work>
    </rdf:RDF>
  </metadata>
  <defs
     id="defs8" />
  <sodipodi:namedview
     pagecolor="#ffffff"
     bordercolor="#666666"
     borderopacity="1"
     objecttolerance="10"
     gridtolerance="10"
     guidetolerance="10"
     inkscape:pageopacity="0"
     inkscape:pageshadow="2"
     inkscape:window-width="863"
     inkscape:window-height="491"
     id="namedview6"
     showgrid="false"
     inkscape:zoom="9.0769231"
     inkscape:cx="9.2598649"
     inkscape:cy="6.6313899"
     inkscape:window-x="112"
     inkscape:window-y="824"
     inkscape:window-maximized="0"
     inkscape:current-layer="svg4" />
  <g
     id="g4565">
    <path
       id="path2"
       transform="scale(1.8461538)"
       d="M 7.8828125 7.4980469 A 4.0762711 3.7733051 0 0 1 7.4726562 7.8574219 L 7.5839844 7.96875 L 7.5839844 8.3964844 L 10.291016 11.103516 L 11.103516 10.291016 L 8.3964844 7.5839844 L 7.96875 7.5839844 L 7.8828125 7.4980469 z "
       style="fill:#4dd0e1;stroke-width:0.54166669" />
    <path
       sodipodi:nodetypes="cscccsc"
       inkscape:connector-curvature="0"
       id="path838"
       d="m 10.079312,6.4943906 c 0.320982,-0.176594 1.40407,-0.8902338 2.986296,-1.2515212 3.647901,-0.8330051 5.050201,3.18906 2.899088,6.2218966 -1.921745,2.20674 -3.916525,3.220489 -5.885384,4.52619 C 8.1103988,14.685255 6.1156225,13.671504 4.1939234,11.464766 2.0428073,8.4319294 3.4450633,4.4098643 7.093014,5.2428694 8.6752387,5.6043603 9.7581199,6.3179552 10.079312,6.4943906"
       style="fill:none;fill-opacity:1;stroke:#4dd0e1;stroke-width:1.66354132;stroke-linecap:round;stroke-linejoin:miter;stroke-miterlimit:4.69999981;stroke-dasharray:none;stroke-opacity:1" />
  </g>
</svg>
