<svg xmlns="http://www.w3.org/2000/svg" width="16" height="16" viewBox="0 0 16 16">
  <defs>
    <linearGradient id="classinitializerkotlin-a" x1="-16.836%" x2="76.219%" y1="91.94%" y2="-1.116%">
      <stop
                stop-color="#870ad2"
                style="stop-opacity:1"
                offset="0"
                themedStart="true"
                id="stop6016"/>
            <stop
                stop-color="#f667ff"
                style=";stop-opacity:1"
                offset="1"
                themedStop="true"
                id="stop6018"/>
    </linearGradient>
  </defs>
  <g fill="none" fill-rule="evenodd">
    <path fill="#F4AF3D" fill-opacity=".6" d="M8,15 C4.134,15 1,11.866 1,8 C1,4.134 4.134,1 8,1 C11.866,1 15,4.134 15,8 L8,8 L8,15 Z"/>
    <polygon fill="#231F20" fill-opacity=".7" points="5 7 11 7 11 6 5 6"/>
    <polygon fill="#231F20" fill-opacity=".7" points="5 9 8 9 8 8 5 8"/>
    <g transform="translate(9 9)">
      <polygon fill="#0EAEFF" themedStart="true" fill-rule="nonzero" points="0 7 3.512 3.488 7 7"/>
      <polygon fill="#0EAEFF" themedStart="true" fill-rule="nonzero" points="0 0 3.512 0 0 3.792"/>
      <polygon fill="url(#classinitializerkotlin-a)" fill-rule="nonzero" points="3.512 0 0 3.698 0 7 3.512 3.488 7 0"/>
    </g>
  </g>
</svg>
