<svg xmlns="http://www.w3.org/2000/svg" width="16" height="16" viewBox="0 0 16 16">
  <defs>
    <linearGradient id="kotlin_launch_configuration-a" x1="-16.836%" x2="76.219%" y1="91.94%" y2="-1.116%">
      <stop
                stop-color="#870ad2"
                style="stop-opacity:1"
                offset="0"
                themedStart="true"
                id="stop6016"/>
            <stop
                stop-color="#f667ff"
                style=";stop-opacity:1"
                offset="1"
                themedStop="true"
                id="stop6018"/>
    </linearGradient>
  </defs>
  <g fill="none" fill-rule="evenodd">
    <path fill="#9AA7B0" fill-opacity=".8" d="M14,8 L13,8 L13,4 L2,4 L2,13 L8,13 L8,14 L1,14 L1,1 L14,1 L14,8 Z M3,5 L12,5 L12,6 L3,6 L3,5 Z M3,7 L12,7 L12,8 L3,8 L3,7 Z M3,9 L8,9 L8,10 L3,10 L3,9 Z M3,11 L8,11 L8,12 L3,12 L3,11 Z"/>
    <g transform="translate(9 9)">
      <polygon fill="#0EAEFF" themedStart="true" fill-rule="nonzero" points="0 7 3.512 3.488 7 7"/>
      <polygon fill="#0EAEFF" themedStart="true" fill-rule="nonzero" points="0 0 3.512 0 0 3.792"/>
      <polygon fill="url(#kotlin_launch_configuration-a)" fill-rule="nonzero" points="3.512 0 0 3.698 0 7 3.512 3.488 7 0"/>
    </g>
  </g>
</svg>
