<?xml version="1.0" encoding="UTF-8" standalone="no"?>
<svg
   xmlns:dc="http://purl.org/dc/elements/1.1/"
   xmlns:cc="http://creativecommons.org/ns#"
   xmlns:rdf="http://www.w3.org/1999/02/22-rdf-syntax-ns#"
   xmlns:svg="http://www.w3.org/2000/svg"
   xmlns="http://www.w3.org/2000/svg"
   xmlns:sodipodi="http://sodipodi.sourceforge.net/DTD/sodipodi-0.dtd"
   xmlns:inkscape="http://www.inkscape.org/namespaces/inkscape"
   clip-rule="evenodd"
   fill-rule="evenodd"
   stroke-linejoin="round"
   stroke-miterlimit="1.4142"
   version="1.1"
   viewBox="0 0 24 24"
   width="16px"
   height="16px"
   xml:space="preserve"
   id="svg6"
   sodipodi:docname="Module.svg"
   inkscape:version="0.92.3 (unknown)"><metadata
   id="metadata12"><rdf:RDF><cc:Work
       rdf:about=""><dc:format>image/svg+xml</dc:format><dc:type
         rdf:resource="http://purl.org/dc/dcmitype/StillImage" /></cc:Work></rdf:RDF></metadata><defs
   id="defs10" /><sodipodi:namedview
   pagecolor="#ffffff"
   bordercolor="#666666"
   borderopacity="1"
   objecttolerance="10"
   gridtolerance="10"
   guidetolerance="10"
   inkscape:pageopacity="0"
   inkscape:pageshadow="2"
   inkscape:window-width="920"
   inkscape:window-height="807"
   id="namedview8"
   showgrid="false"
   showguides="false"
   inkscape:zoom="8"
   inkscape:cx="8.7853326"
   inkscape:cy="13.197405"
   inkscape:window-x="1080"
   inkscape:window-y="186"
   inkscape:window-maximized="0"
   inkscape:current-layer="svg6" />
    

<path
   style="fill:#c792ea;fill-rule:nonzero"
   inkscape:connector-curvature="0"
   d="M 10,4 H 4 C 2.89,4 2,4.89 2,6 v 12 c 0,1.097 0.903,2 2,2 h 16 c 1.097,0 2,-0.903 2,-2 V 8 C 22,6.89 21.1,6 20,6 h -8 z"
   id="path2" /><path
   sodipodi:nodetypes="cscccsc"
   inkscape:connector-curvature="0"
   id="path1445"
   d="m 16.603246,13.791126 c 0.294026,-0.161529 1.285378,-0.815017 2.733869,-1.145779 3.339573,-0.762589 4.623315,2.919537 2.654049,5.695997 -1.759289,2.020218 -3.585448,2.948257 -5.387918,4.143591 -1.802465,-1.195334 -3.628623,-2.123373 -5.387913,-4.143591 -1.9692684,-2.77646 -0.685524,-6.458586 2.654048,-5.695997 1.44849,0.330762 2.439846,0.98425 2.733865,1.145779"
   style="fill:#6ee4f8;fill-opacity:1;stroke:#000000;stroke-width:1.180794;stroke-linecap:round;stroke-linejoin:miter;stroke-miterlimit:4;stroke-dasharray:none;stroke-opacity:0.94117647" /></svg>