<svg xmlns="http://www.w3.org/2000/svg" width="16" height="16" viewBox="0 0 16 16">
  <g fill="none" fill-rule="evenodd">
    <path fill="#9AA7B0" fill-opacity=".8"
          d="M 15,8.4208584 C 13.353297,7.6174976 12.410938,8.8586289 11.896564,8.6570584 7.0520363,6.7586072 5.861863,10.490693 7.3973531,13 H 1 V 2.05128 C 1,2.0229588 1.0229588,2 1.05128,2 h 3.9276 C 5.6157012,2.03458 6.2216196,2.2855944 6.69633,2.71149 L 7.98457,4 H 15 Z"/>
    <path accentTint="both" stroke-width=".5"
          d="m 11.89219,10.375872 c 0.169323,-0.09298 0.740901,-0.4697573 1.575798,-0.6603967 1.924914,-0.4395591 2.66487,1.6827967 1.529764,3.2831247 -1.014047,1.164434 -2.066608,1.699351 -3.105562,2.388321 C 10.853273,14.697951 9.8006748,14.163034 8.7866275,12.9986 7.6515598,11.398272 8.3915157,9.2759162 10.316429,9.7154753 c 0.834898,0.1904882 1.406287,0.5673067 1.575761,0.6603967"/>
  </g>
</svg>
