<?xml version="1.0" encoding="UTF-8" standalone="no"?>
<svg
   xmlns:dc="http://purl.org/dc/elements/1.1/"
   xmlns:cc="http://creativecommons.org/ns#"
   xmlns:rdf="http://www.w3.org/1999/02/22-rdf-syntax-ns#"
   xmlns:svg="http://www.w3.org/2000/svg"
   xmlns="http://www.w3.org/2000/svg"
   xmlns:sodipodi="http://sodipodi.sourceforge.net/DTD/sodipodi-0.dtd"
   xmlns:inkscape="http://www.inkscape.org/namespaces/inkscape"
   clip-rule="evenodd"
   fill-rule="evenodd"
   stroke-linejoin="round"
   stroke-miterlimit="1.4142"
   version="1.1"
   viewBox="0 0 24 24"
   width="16px"
   height="16px"
   xml:space="preserve"
   id="svg6"
   sodipodi:docname="Module.svg"
   inkscape:version="0.92.3 (unknown)"><metadata
   id="metadata12"><rdf:RDF><cc:Work
       rdf:about=""><dc:format>image/svg+xml</dc:format><dc:type
         rdf:resource="http://purl.org/dc/dcmitype/StillImage" /></cc:Work></rdf:RDF></metadata><defs
   id="defs10" /><sodipodi:namedview
   pagecolor="#ffffff"
   bordercolor="#666666"
   borderopacity="1"
   objecttolerance="10"
   gridtolerance="10"
   guidetolerance="10"
   inkscape:pageopacity="0"
   inkscape:pageshadow="2"
   inkscape:window-width="920"
   inkscape:window-height="807"
   id="namedview8"
   showgrid="false"
   showguides="false"
   inkscape:zoom="10.429825"
   inkscape:cx="12.993246"
   inkscape:cy="6.2975146"
   inkscape:window-x="1080"
   inkscape:window-y="186"
   inkscape:window-maximized="0"
   inkscape:current-layer="svg6" />
    

<path
   style="fill:#c792ea;fill-rule:nonzero"
   inkscape:connector-curvature="0"
   d="M 10,4 H 4 C 2.89,4 2,4.89 2,6 v 12 c 0,1.097 0.903,2 2,2 h 16 c 1.097,0 2,-0.903 2,-2 V 8 C 22,6.89 21.1,6 20,6 h -8 z"
   id="path2" /><path
   sodipodi:nodetypes="cscccsc"
   inkscape:connector-curvature="0"
   id="path1445"
   d="m 16.730365,13.369971 c 0.316736,-0.174005 1.384662,-0.87797 2.945036,-1.23428 3.597525,-0.821492 4.980425,3.145046 2.859051,6.135963 -1.895179,2.176262 -3.862393,3.175984 -5.804087,4.463646 -1.94169,-1.287662 -3.908903,-2.287384 -5.804082,-4.463646 -2.1213773,-2.990917 -0.738475,-6.957455 2.85905,-6.135963 1.560373,0.35631 2.628302,1.060275 2.945032,1.23428"
   style="fill:#6ee4f8;fill-opacity:1;stroke:#000000;stroke-width:0.52147198;stroke-linecap:round;stroke-linejoin:miter;stroke-miterlimit:4;stroke-dasharray:none;stroke-opacity:0.94117647" /></svg>