<svg xmlns="http://www.w3.org/2000/svg" width="16" height="16" viewBox="0 0 16 16">
  <path fill="#9AA7B0" fill-opacity=".8" fill-rule="evenodd"
        d="M 1.0507812 2 C 1.0227812 2 1 2.0227813 1 2.0507812 L 1 13 L 15 13 L 15 4 L 7.984375 4 L 6.6953125 2.7109375 C 6.3043125 2.3199375 5.5315156 2 4.9785156 2 L 1.0507812 2 z M 4.2226562 6.515625 C 4.3830231 6.5004855 4.5592 6.5130721 4.75 6.5566406 C 5.4120598 6.7078217 5.8656 7.0062639 6 7.0800781 C 6.1341732 7.0063773 6.5879401 6.7076327 7.25 6.5566406 C 8.7763622 6.2081682 9.3629851 7.8911421 8.4628906 9.1601562 C 7.6587961 10.083495 6.8238236 10.506403 6 11.052734 C 5.1761763 10.506403 4.3412417 10.083495 3.5371094 9.1601562 C 2.7495598 8.0497688 3.1000884 6.6216016 4.2226562 6.515625 z "/>
</svg>
