<?xml version="1.0" encoding="UTF-8" standalone="no"?>
<svg
   xmlns:dc="http://purl.org/dc/elements/1.1/"
   xmlns:cc="http://creativecommons.org/ns#"
   xmlns:rdf="http://www.w3.org/1999/02/22-rdf-syntax-ns#"
   xmlns:svg="http://www.w3.org/2000/svg"
   xmlns="http://www.w3.org/2000/svg"
   xmlns:sodipodi="http://sodipodi.sourceforge.net/DTD/sodipodi-0.dtd"
   xmlns:inkscape="http://www.inkscape.org/namespaces/inkscape"
   version="1.1"
   width="16px"
   height="16px"
   fill="#FFFFFF"
   viewBox="0 0 24 24"
   id="svg4"
   sodipodi:docname="closeNewHovered.svg"
   inkscape:version="0.92.3 (unknown)">
  <metadata
     id="metadata10">
    <rdf:RDF>
      <cc:Work
         rdf:about="">
        <dc:format>image/svg+xml</dc:format>
        <dc:type
           rdf:resource="http://purl.org/dc/dcmitype/StillImage" />
        <dc:title />
      </cc:Work>
    </rdf:RDF>
  </metadata>
  <defs
     id="defs8" />
  <sodipodi:namedview
     pagecolor="#ffffff"
     bordercolor="#666666"
     borderopacity="1"
     objecttolerance="10"
     gridtolerance="10"
     guidetolerance="10"
     inkscape:pageopacity="0"
     inkscape:pageshadow="2"
     inkscape:window-width="640"
     inkscape:window-height="491"
     id="namedview6"
     showgrid="true"
     inkscape:pagecheckerboard="true"
     inkscape:zoom="10.429825"
     inkscape:cx="1.6533571"
     inkscape:cy="5.7368847"
     inkscape:window-x="67"
     inkscape:window-y="27"
     inkscape:window-maximized="0"
     inkscape:current-layer="svg4">
    <inkscape:grid
       type="xygrid"
       id="grid7" />
  </sodipodi:namedview>
  <path
     inkscape:connector-curvature="0"
     fill="#FFFFFF"
     stroke="#FFFFFF"
     tint="true"
     style="fill-opacity:1;stroke:none;stroke-width:1.84217095;stroke-linecap:round;stroke-linejoin:miter;stroke-miterlimit:4;stroke-dasharray:none;stroke-dashoffset:0;stroke-opacity:1"
     d="M 5.7304687,3.4687488 C 0.3077456,3.0593198 -1.5944864,9.572559 1.8749996,14.560547 5.1811796,18.431889 8.6126827,20.209388 12,22.5 15.387327,20.209388 18.818824,18.431889 22.125,14.560547 25.825783,9.2400258 23.411703,2.1831816 17.135742,3.6445301 14.41364,4.2783705 12.552556,5.5322605 12,5.8417957 11.447458,5.5322605 9.583429,4.2783705 6.8613277,3.6445301 6.4690807,3.5531961 6.0919837,3.4960442 5.7304687,3.4687488 Z M 8.3613277,6.785155 11.950195,10.376952 15.539062,6.785155 16.951173,8.1972645 13.359375,11.786132 16.951173,15.375 15.539062,16.787109 11.950195,13.195312 8.3613277,16.787109 6.9492187,15.375 10.541016,11.786132 6.9492187,8.1972645 Z"
     id="path45" />
</svg>
