<?xml version="1.0" encoding="UTF-8" standalone="no"?>
<svg
   xmlns:dc="http://purl.org/dc/elements/1.1/"
   xmlns:cc="http://creativecommons.org/ns#"
   xmlns:rdf="http://www.w3.org/1999/02/22-rdf-syntax-ns#"
   xmlns:svg="http://www.w3.org/2000/svg"
   xmlns="http://www.w3.org/2000/svg"
   xmlns:sodipodi="http://sodipodi.sourceforge.net/DTD/sodipodi-0.dtd"
   xmlns:inkscape="http://www.inkscape.org/namespaces/inkscape"
   width="16px"
   height="16px"
   viewBox="0 0 24 24"
   fill="#FFCB6B"
   version="1.1"
   id="svg20"
   sodipodi:docname="GroupByPackage.svg"
   inkscape:version="0.92.3 (unknown)">
  <metadata
     id="metadata26">
    <rdf:RDF>
      <cc:Work
         rdf:about="">
        <dc:format>image/svg+xml</dc:format>
        <dc:type
           rdf:resource="http://purl.org/dc/dcmitype/StillImage" />
      </cc:Work>
    </rdf:RDF>
  </metadata>
  <defs
     id="defs24" />
  <sodipodi:namedview
     pagecolor="#ffffff"
     bordercolor="#666666"
     borderopacity="1"
     objecttolerance="10"
     gridtolerance="10"
     guidetolerance="10"
     inkscape:pageopacity="0"
     inkscape:pageshadow="2"
     inkscape:window-width="640"
     inkscape:window-height="491"
     id="namedview22"
     showgrid="false"
     inkscape:zoom="14.75"
     inkscape:cx="8"
     inkscape:cy="8"
     inkscape:window-x="84"
     inkscape:window-y="582"
     inkscape:window-maximized="0"
     inkscape:current-layer="svg20" />
  <g
     transform="scale(1.5)"
     id="g14">
    <rect
       width="1"
       height="12"
       x="1"
       y="2"
       id="rect2" />
    <rect
       width="2"
       height="1"
       x="2"
       y="2"
       id="rect4" />
    <rect
       width="2"
       height="1"
       x="2"
       y="13"
       id="rect6" />
    <rect
       width="1"
       height="12"
       x="14"
       y="2"
       id="rect8" />
    <rect
       width="3"
       height="1"
       x="12"
       y="2"
       id="rect10" />
    <rect
       width="2"
       height="1"
       x="12"
       y="13"
       id="rect12" />
  </g>
  <path
     inkscape:connector-curvature="0"
     d="M 18,16.5 H 6 V 9 H 18 M 18,7.5 H 12 L 10.5,6 H 6 C 5.1675,6 4.5,6.6675 4.5,7.5 v 9 A 1.5,1.5 0 0 0 6,18 h 12 a 1.5,1.5 0 0 0 1.5,-1.5 V 9 C 19.5,8.1675 18.825,7.5 18,7.5 Z"
     id="svg_1"
     style="stroke-width:0.75" />
  <path
     sodipodi:nodetypes="cscccsc"
     inkscape:connector-curvature="0"
     id="path1445-6"
     d="m 9.4576308,10.615225 c 0.2041896,-0.112338 0.8931832,-0.566315 1.8996962,-0.7961441 2.320567,-0.5299035 3.212625,2.0286851 1.844221,3.9579851 -1.222497,1.403792 -2.49145,2.048676 -3.7439172,2.879281 C 8.2051323,15.825742 6.9361791,15.180858 5.7137145,13.777066 4.3453093,11.847766 5.237336,9.2891774 7.5579344,9.8190809 8.564448,10.049043 9.2533086,10.502986 9.4576308,10.615225"
     style="fill:#80cbc4;fill-opacity:1;stroke:#00000f;stroke-width:0.80822271;stroke-linecap:round;stroke-linejoin:miter;stroke-miterlimit:4;stroke-dasharray:none;stroke-opacity:0.94117647" />
</svg>
