<?xml version="1.0" encoding="UTF-8" standalone="no"?>
<svg
   xmlns:dc="http://purl.org/dc/elements/1.1/"
   xmlns:cc="http://creativecommons.org/ns#"
   xmlns:rdf="http://www.w3.org/1999/02/22-rdf-syntax-ns#"
   xmlns:svg="http://www.w3.org/2000/svg"
   xmlns="http://www.w3.org/2000/svg"
   xmlns:sodipodi="http://sodipodi.sourceforge.net/DTD/sodipodi-0.dtd"
   xmlns:inkscape="http://www.inkscape.org/namespaces/inkscape"
   width="16px"
   height="16px"
   viewBox="-0.5 -1 16 16"
   version="1.1"
   id="svg3"
   sodipodi:docname="ddlcIcon.svg"
   inkscape:version="0.92.3 (unknown)">
  <metadata
     id="metadata9">
    <rdf:RDF>
      <cc:Work
         rdf:about="">
        <dc:format>image/svg+xml</dc:format>
        <dc:type
           rdf:resource="http://purl.org/dc/dcmitype/StillImage" />
        <dc:title></dc:title>
      </cc:Work>
    </rdf:RDF>
  </metadata>
  <defs
     id="defs7" />
  <sodipodi:namedview
     pagecolor="#ffffff"
     bordercolor="#666666"
     borderopacity="1"
     objecttolerance="10"
     gridtolerance="10"
     guidetolerance="10"
     inkscape:pageopacity="0"
     inkscape:pageshadow="2"
     inkscape:window-width="640"
     inkscape:window-height="491"
     id="namedview5"
     showgrid="false"
     inkscape:zoom="14.75"
     inkscape:cx="8"
     inkscape:cy="8"
     inkscape:window-x="67"
     inkscape:window-y="27"
     inkscape:window-maximized="0"
     inkscape:current-layer="svg3" />
  <circle
     style="fill:#fee6f3;fill-opacity:1;stroke:#fbbedf;stroke-width:0.96533042;stroke-linecap:round;stroke-linejoin:round;stroke-miterlimit:4.69999981;stroke-dasharray:none;stroke-opacity:1"
     id="path2540"
     cx="7.6242275"
     cy="7.0861936"
     r="7.3785567" />
  <path
     style="fill:#7bd4f4;fill-opacity:1;stroke:#7bd4f4;stroke-width:0.68973184;stroke-linecap:round;stroke-linejoin:miter;stroke-miterlimit:4;stroke-dasharray:none;stroke-dashoffset:0;stroke-opacity:1"
     d="M 7.777186,5.1423728 C 7.986098,5.0276033 8.690474,4.5632873 9.719655,4.3282738 12.092489,3.7864388 13.004613,6.4026633 11.60541,8.3753923 10.355401,9.8107974 9.057878,10.470188 7.777186,11.319497 6.4965,10.470188 5.198978,9.8107974 3.948968,8.3753923 2.5497632,6.4026633 3.4618894,3.7864388 5.834721,4.3282738 6.863902,4.5632873 7.56828,5.0276033 7.777186,5.1423728"
     id="path2548"
     inkscape:connector-curvature="0"
     sodipodi:nodetypes="cscccsc" />
  <path
     sodipodi:nodetypes="cscccsc"
     inkscape:connector-curvature="0"
     id="path1445"
     d="M 7.777186,5.1423728 C 7.986098,5.0276033 8.690474,4.5632873 9.719655,4.3282738 12.092489,3.7864388 13.004613,6.4026633 11.60541,8.3753923 10.355401,9.8107974 9.057878,10.470188 7.777186,11.319497 6.4965,10.470188 5.198978,9.8107974 3.948968,8.3753923 2.5497632,6.4026633 3.4618894,3.7864388 5.834721,4.3282738 6.863902,4.5632873 7.56828,5.0276033 7.777186,5.1423728"
     style="fill:#7bd4f4;fill-opacity:1;stroke:#558bba;stroke-width:0.17243296;stroke-linecap:round;stroke-linejoin:miter;stroke-miterlimit:4;stroke-dasharray:1.03459779, 1.03459779;stroke-dashoffset:0;stroke-opacity:1" />
</svg>
