<?xml version="1.0" encoding="UTF-8" standalone="no"?>
<svg
    xmlns:svg="http://www.w3.org/2000/svg"
    xmlns="http://www.w3.org/2000/svg"
    width="16px"
    height="16px"
    viewBox="0 -2 16 16"
    version="1.1"
    id="svg3">
    <path
        id="file_type_java.svg"
        class="i-color"
        tint="all"
        fill="#ff00ff"
        stroke="#000000"
        d="M 5.1827807,8.0237539 C 4.718748,8.1521427 3.8865826,8.4614919 4.112412,9.0802031 4.6538996,9.656184 5.4040242,9.9905633 6.1943718,10.008268 8.0531567,10.273294 9.9488363,9.9854991 11.645211,9.1807423 11.066715,8.9966755 10.523796,8.6517446 9.9901593,8.4398367 8.4267873,8.820022 6.7965146,8.8322016 5.2276372,8.4754172 5.3065225,8.2898057 6.0164927,7.8567074 5.4240777,7.9912778 l -0.241297,0.018562 v 0 z M 4.6847189,5.7484468 C 4.0915222,5.7989255 3.6007637,6.2306926 3.4751405,6.8126285 3.8980614,7.3510232 4.5445451,7.6657138 5.229184,7.6664485 7.5410601,7.966503 9.8908183,7.7428928 12.104601,7.0121624 11.594179,6.8725033 11.124389,6.6132169 10.734158,6.2557892 8.7702471,6.7160798 6.7334704,6.7739579 4.7465898,6.4259346 4.4712639,6.2805377 5.0281031,6.0067583 5.0590386,5.8598146 5.6127843,5.3834077 4.8656916,5.7902096 4.6831722,5.7484468 v 0 z M 8.6383115,-0.87534764 C 8.0771851,0.25078799 7.7989867,1.3390996 8.7264436,2.1893161 9.2287461,2.7737451 9.1205876,3.6633669 8.4928805,4.1104116 7.8911848,4.6409555 8.5856877,4.5481489 8.9352583,4.2929308 9.9489233,3.8490629 10.539592,2.7811698 10.376854,1.6866141 10.086059,0.85290206 9.262824,1.1724309 9.2525477,0.0689817 9.3020504,-0.61212364 9.264211,-0.85294924 9.8325303,-1.4550255 9.9835393,-1.615004 9.2476043,-1.6440666 8.6383115,-0.87534764 Z M 3.049777,9.5256728 c -1.0103426,0.033481 -1.9778495,0.4161116 -2.73779246,1.0827452 -0.35421166,0.419173 0.15467757,0.898673 0.5723068,0.946625 3.63278256,0.7113 7.36412266,0.761079 11.01458766,0.146944 1.01279,-0.0984 1.974681,-0.490891 2.767182,-1.129147 0.320183,-0.54601 -0.433096,-0.9466268 -0.873926,-0.9806548 0.07233,0.2178394 0.176583,0.4237398 0.309355,0.6109748 -0.544282,0.387027 -1.1889,0.608346 -1.85613,0.637272 -3.097279,0.458559 -6.2440816,0.473662 -9.34562,0.04486 C 2.5458877,10.833819 2.203013,10.724057 1.8850552,10.560462 2.6088712,10.106615 3.4741342,9.9343339 4.3165864,10.076323 3.9840206,9.7276969 3.5222951,9.5318132 3.0404964,9.5349508 v 0 z M 5.3575663,3.3787866 C 4.1562975,3.413001 2.9858936,3.7670054 1.9670342,4.4042987 1.6174629,4.7368555 2.0536544,5.1699529 2.4155993,5.2132626 4.5332379,5.6366941 6.7048527,5.7197157 8.8486389,5.4591998 9.8517853,5.4217335 10.839753,5.2021267 11.764311,4.8111007 12.130367,4.6504886 12.471956,4.4390785 12.778995,4.1831099 11.639021,4.1150518 10.523796,4.492465 9.3900105,4.5326811 7.5442608,4.7574797 5.6775314,4.748645 3.8339922,4.506386 3.5478389,4.4398746 4.0536344,4.2851971 4.1325202,4.2341535 4.7898997,3.9402662 5.5153374,3.8737546 6.1433282,3.5164497 5.890591,3.4242553 5.6234979,3.3776449 5.3544727,3.3787866 v 0 z M 13.652924,3.1823459 C 13.047133,3.1525007 12.484662,3.4959945 12.23453,4.0485404 11.954564,4.4321407 12.698563,3.8722081 12.955329,3.8783951 13.809909,3.5698895 14.641528,4.3876474 14.347427,5.2472916 13.808854,6.138212 13.02402,6.8542852 12.087589,7.3091434 11.420926,7.8582489 11.634382,7.8845439 12.344352,7.6184986 13.758383,7.409136 14.975829,6.5105441 15.59258,5.2209964 15.80439,4.0589134 14.824449,3.0266151 13.652924,3.1777058 v 0 z M 6.0372502,-0.78945984 C 5.5995127,0.50364431 5.7349796,1.5597787 6.5501304,2.4414405 7.0957209,3.0294803 7.6897054,3.5706891 8.3258287,4.0593677 8.0288477,2.541981 6.3521431,1.5644188 6.5021802,-0.06742953 6.4802902,-1.3010334 7.1084705,-2.1571678 6.0372502,-0.78945984 Z M 15.294052,10.858993 c -0.808932,0.594583 -1.759014,0.967791 -2.756352,1.082743 -3.3271401,0.586987 -6.7277121,0.627741 -10.0679637,0.120658 1.028639,0.709214 2.2636253,1.05686 3.5111806,0.98839 2.7377869,0.2483 5.4979021,0.01694 8.1561491,-0.683676 0.877169,-0.126918 1.519818,-0.89131 1.494183,-1.777244 0.06187,-0.56148 -0.219641,0.17788 -0.338741,0.275326 v 0 z"
        style="stroke-width:0.0;stroke-linecap:round;stroke-linejoin:round;stroke-miterlimit:4;stroke-dasharray:none;stroke-opacity:1"/>
</svg>
