<?xml version="1.0" encoding="UTF-8" standalone="no"?>
<svg
    xmlns:dc="http://purl.org/dc/elements/1.1/"
    xmlns:cc="http://creativecommons.org/ns#"
    xmlns:rdf="http://www.w3.org/1999/02/22-rdf-syntax-ns#"
    xmlns:svg="http://www.w3.org/2000/svg"
    xmlns="http://www.w3.org/2000/svg"
    xmlns:xlink="http://www.w3.org/1999/xlink"
    xmlns:sodipodi="http://sodipodi.sourceforge.net/DTD/sodipodi-0.dtd"
    xmlns:inkscape="http://www.inkscape.org/namespaces/inkscape"
    width="16px"

    height="16px"
    viewBox="0 0 652.73051 737.85765"
    version="1.1"
    id="svg5"
    sodipodi:docname="wolfpaw.svg"
    inkscape:version="0.92.4 (33fec40, 2019-01-16)">
  <metadata
      id="metadata11">
    <rdf:RDF>
      <cc:Work
          rdf:about="">
        <dc:format>image/svg+xml</dc:format>
        <dc:type
            rdf:resource="http://purl.org/dc/dcmitype/StillImage" />
        <dc:title></dc:title>
      </cc:Work>
    </rdf:RDF>
  </metadata>
  <defs
      id="defs9">
    <linearGradient
        inkscape:collect="always"
        id="linearGradient889">
      <stop
          style="stop-color:#746C00;stop-opacity:1"
          offset="0"
          id="stop885" />
      <stop
          style="stop-color:#FCEA02;stop-opacity:1"
          offset="1"
          id="stop887" />
    </linearGradient>
    <linearGradient
        inkscape:collect="always"
        xlink:href="#linearGradient889"
        id="linearGradient891"
        x1="341.28061"
        y1="596.48419"
        x2="555.86401"
        y2="330.43274"
        gradientUnits="userSpaceOnUse" />
    <linearGradient
        inkscape:collect="always"
        xlink:href="#linearGradient889"
        id="linearGradient893"
        gradientUnits="userSpaceOnUse"
        x1="341.28061"
        y1="596.48419"
        x2="555.86401"
        y2="330.43274" />
    <linearGradient
        inkscape:collect="always"
        xlink:href="#linearGradient889"
        id="linearGradient895"
        gradientUnits="userSpaceOnUse"
        x1="341.28061"
        y1="596.48419"
        x2="555.86401"
        y2="330.43274" />
  </defs>
  <sodipodi:namedview
      pagecolor="#ffffff"
      bordercolor="#666666"
      borderopacity="1"
      objecttolerance="10"
      gridtolerance="10"
      guidetolerance="10"
      inkscape:pageopacity="0"
      inkscape:pageshadow="2"
      inkscape:window-width="1176"
      inkscape:window-height="768"
      id="namedview7"
      showgrid="false"
      inkscape:zoom="0.52149022"
      inkscape:cx="251.36053"
      inkscape:cy="-5.8725909"
      inkscape:window-x="2386"
      inkscape:window-y="98"
      inkscape:window-maximized="0"
      inkscape:current-layer="svg5"
      fit-margin-top="0.1"
      fit-margin-left="0.1"
      fit-margin-bottom="0.1"
      fit-margin-right="0.1" />
  <path
      sodipodi:type="star"
      fill="#271c21"
      tint="stroke"
      stroke="#262626"
      style="fill-opacity:1;stroke-width:19.85004997;stroke-linecap:round;stroke-linejoin:bevel;stroke-miterlimit:4;stroke-dasharray:none;stroke-opacity:1"
      id="path832"
      sodipodi:sides="6"
      sodipodi:cx="296.42065"
      sodipodi:cy="328.33774"
      sodipodi:r1="297.77972"
      sodipodi:r2="143.57915"
      sodipodi:arg1="2.6243052"
      sodipodi:arg2="3.147904"
      inkscape:flatsided="true"
      inkscape:rounded="0"
      inkscape:randomized="0"
      d="M 37.601299,475.59705 39.48067,177.82326 298.30003,30.563945 555.24001,181.07842 553.36064,478.85222 294.54128,626.11153 Z"
      transform="matrix(1.1061846,-0.01168438,0.00621855,1.1061269,-3.5724809,9.2090923)" />
  <g
      id="g829"
      transform="matrix(1.3137886,0,0,1.3137886,-99.241884,-111.61232)">
    <g
        transform="translate(-119.99976,-119.99976)"
        style="fill:url(#linearGradient891);fill-opacity:1;stroke:#ffffff;stroke-width:10.62497902;stroke-miterlimit:4;stroke-dasharray:none;stroke-opacity:1"
        id="g883">
      <path
          id="Selection #1"
          d="m 399.6096,337.01939 c -17.97519,6.6268 -24.05764,17.99885 -30.76727,34.75518 -10.87505,27.1817 -13.91628,53.20371 -5.39611,81.6516 6.89897,23.05179 28.56623,43.31086 53.91373,34.74335 11.72706,-3.95241 17.65568,-20.10522 20.10523,-31.19328 6.20078,-28.09288 0.86385,-61.39253 -6.92264,-88.75174 -3.18323,-11.17088 -8.92251,-31.12228 -22.64945,-31.90329 -3.31339,-0.18934 -5.08843,0.0592 -8.28349,0.69818 z m 57.98447,130.60706 c 5.20677,5.89312 6.43746,13.85711 14.24761,19.28872 3.58557,2.49688 9.81003,3.95241 14.15295,4.27191 18.41303,1.3372 32.55414,-10.01119 40.45896,-25.92734 9.90469,-19.92772 10.56737,-52.11502 5.12393,-73.36811 -2.34304,-9.18284 -6.14162,-18.51953 -9.90469,-27.2172 -1.59753,-3.7039 -2.92289,-6.88713 -5.37244,-10.1532 -6.8753,-9.20651 -24.04581,-22.19977 -36.11604,-15.5138 -6.23629,3.4554 -11.5614,15.5138 -13.96361,22.11693 -4.67426,12.83942 -5.34877,17.88052 -7.91666,30.76727 -3.37256,16.922 -4.37841,32.49497 -4.26008,49.70098 0,0 3.55007,26.03384 3.55007,26.03384 z m -130.16922,-27.5722 c -10.0822,4.07074 -15.95165,12.54358 -21.28859,21.65542 -12.79208,21.84476 -15.70314,49.2513 -7.89299,73.36811 5.38428,16.59066 16.34216,31.95063 35.09836,33.02748 4.05891,0.22484 9.11185,-0.54434 13.01692,-1.68037 9.27752,-2.72172 19.21771,-11.44305 22.40094,-20.6969 3.04123,-9.9402 0.88752,-36.11604 0,-47.33427 -0.55618,-11.37205 -1.37269,-24.0813 -6.89897,-34.31734 -6.72146,-12.46074 -18.56686,-26.82669 -34.43567,-24.02213 z m 231.93789,-0.20118 c -16.93384,4.98194 -28.8029,21.53709 -32.17547,38.42359 -1.46736,7.34865 -0.61534,8.74501 -1.23069,15.3363 0,0 -2.09454,31.99797 -2.09454,31.99797 0.0473,5.37244 -0.50884,11.44305 1.06502,16.56699 5.94045,19.33604 23.02812,29.72592 42.82567,24.90965 12.36608,-3.01755 21.17025,-14.93396 25.92735,-26.09301 6.43746,-15.11146 6.10612,-27.76154 5.91678,-43.78419 -0.11834,-9.20652 -4.34292,-21.37142 -8.44917,-29.58392 -6.11795,-12.22407 -15.66764,-30.04542 -31.78495,-27.77338 z"
          style="fill:url(#linearGradient893);fill-opacity:1;stroke-width:10.62497902;stroke-miterlimit:4;stroke-dasharray:none;stroke-opacity:1"
          inkscape:connector-curvature="0" />
      <path
          id="Selection"
          d="m 444.57715,508.42859 c -24.37715,5.68011 -24.45998,23.64346 -50.38732,43.60669 -22.21161,17.0995 -44.30488,27.99822 -55.8426,55.22725 -9.66803,22.82695 -1.8342,50.60033 24.56648,56.71828 15.67948,3.64474 30.64894,-3.83407 44.97938,-8.93434 8.94618,-3.18323 28.43606,-6.89897 37.86741,-7.44331 9.58519,-0.54435 30.99211,3.3489 40.23413,6.63863 16.69716,5.94045 28.63723,13.22992 47.33426,9.62069 4.11808,-0.79285 7.05281,-2.37855 10.60288,-4.54409 13.72693,-8.39 17.98702,-20.08156 17.79768,-35.48887 -0.0947,-6.8043 -0.91118,-7.94032 -3.14773,-14.20028 -12.63825,-35.39419 -47.15676,-44.96755 -71.29723,-71.00139 -12.43708,-13.41926 -20.63774,-32.76714 -42.70734,-30.19926 z"
          style="fill:url(#linearGradient895);fill-opacity:1;stroke-width:10.62497902;stroke-miterlimit:4;stroke-dasharray:none;stroke-opacity:1"
          inkscape:connector-curvature="0" />
    </g>
    <path
        inkscape:connector-curvature="0"
        style="fill:#ffffff;fill-opacity:1;stroke:#ffffff"
        d="m 292.62676,150.00615 c -18.62603,12.20041 -23.6553,33.56 -23.66713,54.4344 18.80354,-4.12992 7.44331,-3.2779 27.2172,-2.36672 -1.7277,-8.57933 -4.75709,-17.13499 -4.29558,-26.03383 0.43784,-8.50833 4.41392,-17.84502 0.74551,-26.03385 z m 66.26797,2.36671 c 0,0 2.15371,27.21721 2.15371,27.21721 0,0 -3.33707,26.03383 -3.33707,26.03383 4.56776,-2.14187 7.76282,-3.83407 13.01692,-3.31339 6.29546,0.61534 7.11198,3.40806 14.20028,2.13004 -1.37269,-5.64461 -0.84018,-5.62095 -1.52653,-10.65021 -1.52653,-11.33655 -4.67425,-22.7441 -11.64422,-31.95062 -4.11809,-5.43161 -6.14163,-7.79832 -12.86309,-9.46686 z M 219.25865,256.50824 c -18.83903,14.92212 -22.15243,31.40628 -21.30042,54.4344 16.8865,-4.75709 8.035,-4.8991 26.03385,-2.36671 -1.78687,-12.70925 -4.54409,-12.93409 -3.85774,-28.40056 0.34317,-7.51432 3.94057,-17.12317 -0.87569,-23.66713 z m 210.63747,1.18335 c 0,0 2.89923,29.58392 2.89923,29.58392 0,0 -4.08258,22.48377 -4.08258,22.48377 15.11146,-3.92874 11.76256,-2.66255 26.03384,1.18336 3.1714,-11.54956 -3.3844,-33.09848 -10.3662,-42.60084 -4.08258,-5.53811 -7.51432,-9.52602 -14.48429,-10.65021 z"
        id="Selection #2" />
  </g>
</svg>