<?xml version="1.0" encoding="UTF-8" standalone="no"?>
<svg
   xmlns:dc="http://purl.org/dc/elements/1.1/"
   xmlns:cc="http://creativecommons.org/ns#"
   xmlns:rdf="http://www.w3.org/1999/02/22-rdf-syntax-ns#"
   xmlns:svg="http://www.w3.org/2000/svg"
   xmlns="http://www.w3.org/2000/svg"
   xmlns:sodipodi="http://sodipodi.sourceforge.net/DTD/sodipodi-0.dtd"
   xmlns:inkscape="http://www.inkscape.org/namespaces/inkscape"
   version="1.1"
   width="16px"
   height="16px"
   viewBox="0 0 24 24"
   id="svg4"
   sodipodi:docname="watch.svg"
   inkscape:version="0.92.4 (33fec40, 2019-01-16)">
  <metadata
     id="metadata10">
    <rdf:RDF>
      <cc:Work
         rdf:about="">
        <dc:format>image/svg+xml</dc:format>
        <dc:type
           rdf:resource="http://purl.org/dc/dcmitype/StillImage" />
      </cc:Work>
    </rdf:RDF>
  </metadata>
  <defs
     id="defs8" />
  <sodipodi:namedview
     pagecolor="#ffffff"
     bordercolor="#666666"
     borderopacity="1"
     objecttolerance="10"
     gridtolerance="10"
     guidetolerance="10"
     inkscape:pageopacity="0"
     inkscape:pageshadow="2"
     inkscape:window-width="734"
     inkscape:window-height="480"
     id="namedview6"
     showgrid="false"
     inkscape:zoom="14.75"
     inkscape:cx="7.2232739"
     inkscape:cy="7.7206715"
     inkscape:window-x="832"
     inkscape:window-y="251"
     inkscape:window-maximized="0"
     inkscape:current-layer="svg4" />
  <path
     style="fill:none;stroke:#000000;stroke-width:1.5px;stroke-linecap:butt;stroke-linejoin:miter;stroke-opacity:1"
     d="m 12,10.85 c 0,0 0,0 0,0 z"
     id="path6024"
     inkscape:connector-curvature="0" />
  <path
     inkscape:connector-curvature="0"
     style="stroke-width:1"
     fill="#4a148c"
     themedFill="true"
     d="m 6.9999998,17 h -3 c -1.62,0 -3.04000009,-1.26 -3.24000008,-2.86 L 0.25999971,11.15 c -0.11,-0.85 0.13,-1.65 0.65000001,-2.23 C 1.4299997,8.34 2.1899997,8 2.9999998,8 h 6 C 9.8299997,8 10.58,8.35 11.06,8.96 c 0.109999,0.15 0.21,0.31 0.29,0.49 0.43,-0.09 0.87,-0.09 1.29,0 0.08,-0.18 0.18,-0.34 0.3,-0.49 C 13.41,8.35 14.16,8 15,8 h 6 c 0.81,0 1.57,0.34 2.09,0.92 0.509999,0.58 0.75,1.38 0.650001,2.19 L 23.23,14.18 C 23.04,15.74 21.61,17 20,17 h -3 c -1.56,0 -3.08,-1.19 -3.46,-2.7 l -0.9,-2.71 c -0.38,-0.28 -0.91,-0.28 -1.29,0 l -0.92,2.78 C 10.07,15.82 8.5599998,17 6.9999998,17 Z"
     id="path4" />
  <rect
     style="fill-opacity:1;stroke:#4983ff;stroke-width:0.04975399;stroke-miterlimit:4;stroke-dasharray:none;stroke-opacity:0"
     id="rect868"
     tint="true"
     fill="#cc7ffa"
     width="1.4765394"
     height="1.4765394"
     x="4.8516998"
     y="14.182231" />
  <rect
     style="fill-opacity:1;stroke:#4983ff;stroke-width:0.04975399;stroke-miterlimit:4;stroke-dasharray:none;stroke-opacity:0"
     id="rect868-6"
     tint="true"
     fill="#cc7ffa"
     width="1.4765394"
     height="1.4765394"
     x="6.3282394"
     y="12.705691" />
  <rect
     style="fill-opacity:1;stroke:#4983ff;stroke-width:0.04975399;stroke-miterlimit:4;stroke-dasharray:none;stroke-opacity:0"
     id="rect868-6-7"
     tint="true"
     fill="#cc7ffa"
     width="1.4765394"
     height="1.4765394"
     x="7.8047791"
     y="11.229152" />
  <rect
     style="fill-opacity:1;stroke:#4983ff;stroke-width:0.04975399;stroke-miterlimit:4;stroke-dasharray:none;stroke-opacity:0"
     id="rect868-5"
     tint="true"
     fill="#cc7ffa"
     width="1.4765394"
     height="1.4765394"
     x="17.979561"
     y="14.006746" />
  <rect
     style="fill-opacity:1;stroke:#4983ff;stroke-width:0.04975399;stroke-miterlimit:4;stroke-dasharray:none;stroke-opacity:0"
     id="rect868-6-3"
     tint="true"
     fill="#cc7ffa"
     width="1.4765394"
     height="1.4765394"
     x="19.4561"
     y="12.530207" />
  <rect
     style="fill-opacity:1;stroke:#4983ff;stroke-width:0.04975399;stroke-miterlimit:4;stroke-dasharray:none;stroke-opacity:0"
     id="rect868-6-7-5"
     tint="true"
     fill="#cc7ffa"
     width="1.4765394"
     height="1.4765394"
     x="20.932638"
     y="11.053667" />
</svg>
