<svg clip-rule="evenodd" fill-rule="evenodd" stroke-linejoin="round"
     stroke-miterlimit="1.4142" version="1.1" viewBox="0 0 24 24"
     width="16px" height="16px"
     xml:space="preserve" xmlns="http://www.w3.org/2000/svg">
    <path d="M 1,19.260657 H 22.968108 V 5.1383012 H 11.959843 L 9.9383992,3.116435 C 9.1935075,2.4481407 8.2427303,2.0542611 7.243462,2 H 1.080466 C 1.0360259,2 1,2.0360259 1,2.080466 Z" fill="#00796B"
          fill-rule="nonzero"/>
    <path d="m13.814 8.7103a1.3544 1.2753 0 0 0 -1.355 1.2758v10.201a1.3544 1.2753 0 0 0 1.355 1.2777h8.1259a1.3544 1.2753 0 0 0 1.355 -1.2777v-10.201a1.3544 1.2753 0 0 0 -1.355 -1.2758zm0 4.4644h8.1259v3.1887h-8.1259zm0 4.4626h8.126v2.5498h-8.1259v-2.5497z"
          fill="#80CBC4" stroke-width=".65714"/>
</svg>
