<svg width="16" height="16" version="1.1" viewBox="0 0 67.733 67.733" xmlns="http://www.w3.org/2000/svg" xmlns:cc="http://creativecommons.org/ns#" xmlns:dc="http://purl.org/dc/elements/1.1/" xmlns:rdf="http://www.w3.org/1999/02/22-rdf-syntax-ns#" xmlns:xlink="http://www.w3.org/1999/xlink">
  <defs>
    <linearGradient id="linearGradient897" x1="26.726" x2="41.474" y1="40.71" y2="40.71" gradientUnits="userSpaceOnUse">
      <stop offset="0"/>
      <stop stop-opacity="0" offset="1"/>
    </linearGradient>
    <radialGradient id="radialGradient991" cx="318.68" cy="134.66" r="35.122" gradientTransform="matrix(.19864 .008347 -.0034503 .071321 -37.583 38.706)" gradientUnits="userSpaceOnUse" xlink:href="#linearGradient1099"/>
    <linearGradient id="linearGradient1099">
      <stop stop-color="#fec9da" offset="0"/>
      <stop stop-color="#fee2e6" stop-opacity="0" offset="1"/>
    </linearGradient>
    <radialGradient id="radialGradient991-7" cx="313.24" cy="136.73" r="35.122" gradientTransform="matrix(.14092 .0031756 -.0018894 .059807 -16.486 52.748)" gradientUnits="userSpaceOnUse" xlink:href="#linearGradient1099"/>
  </defs>
  <g fill="#7e6165" accentTint="fill">
    <path d="m9.2213 27.402c2.7692-16.385 9.6109-19.072 16.177-22.684-7.7117-13.663-35.358 13.675-16.177 22.684z"/>
    <path d="m22.453 21.066c-6.9935 0.022077-13.561 3.5737-15.962 9.7384-3.7257 7.552-3.0974 10.549-2.5513 14.079 0.98738-6.3591 4.825-11.06 6.8037-12.379-3.3178 4.5719-2.7974 6.3569-2.5042 10.583 1.7495-6.736 5.9063-8.8849 6.8507-10.111-1.7217 3.3328-1.8355 6.063-1.5591 8.6465 0.72899-4.4299 1.8256-5.7869 3.8742-8.4574-1.5307 3.0409-3.2334 6.855-0.57826 14.599 0.3916-9.9432 1.3193-10.812 2.9409-15.638-2.4407 7.1069-2.3403 17.077-1.079 21.065 0.54318-2.825 1.099-14.28 6.9846-21.538 0.57318 4.834 0.02168 8.7017-0.4253 13.277 1.7762-4.0155 2.9184-5.3133 2.5988-11.477 1.6915 5.6662 2.1197 9.2599 1.4175 15.304 1.8401-3.2568 3.0724-6.6652 3.4019-10.3 0.62549 2.3096 1.3444 5.4462 1.5048 9.1116 1.4525-2.2751 2.5799-4.0325 2.7859-4.3176 0.37207-0.51486 3.0869-2.0094 6.4988-3.4897-2.6403-13.108-12.161-18.724-21.003-18.697z"/>
    <path d="m42.252 20.333c-2.7368 3.0125-5.943 6.4557-9.0584 9.7751 0.02701 2.1955-0.15396 4.5588-0.68471 7.0409-2.0981 6.1996-4.7209 8.0637-7.0828 12.094 3.1285-2.7583 6.0021-6.1541 8.4191-10.691-4.314 9.8191-11.21 18.913-15.702 22.25 3.1796-0.59878 6.9264-2.7682 11.605-7.5179-2.4969 2.6018-4.4392 5.3624-7.7964 7.7184 6.0727-2.7562 10.852-9.1915 15.301-16.571-1.7825 4.7658-3.6509 9.474-6.5479 13.497 6.3081-7.1036 13.103-24.58 12.261-33.241-0.15347-1.5399-0.39702-2.9881-0.71365-4.3548z" accentTintDarker="fill" fill="#654d50"/>
  </g>
  <path d="m45.002 57.024c-3.2727 1.7637-3.3448 4.2242-3.6417 7.6217l-15.067-3.9088c1.4197-2.2718 1.6972-5.8465 1.7373-6.8154 0 0 0.03341 0.06682 0.03341 0.03341s-0.23386 0.16704-0.03341 0.03341c0.20045-0.13364 1.3684-0.46059 1.3684-0.46059 4.6121 2.0162 10.243 2.5602 15.603 3.4963z" fill="#fdecde"/>
  <g>
    <path d="m60.865 39.732c-0.15421 16.683-3.4882 21.114-5.0054 23.547 1.9838-9.7533 0.85045-13.103-1e-6 -19.938 0.82427 10.267 0.3089 12.663-1.0394 17.481-0.15749-6.7717-0.50397-8.7564-3.9688-12.568-8.0172 1.7894-14.533 6.957-24.052 5.3683-20.919-6.512-23.135-34.45-12.835-43.837 12.991-12.081 36.605-9.146 43.05 5.7922 3.9278 9.3944 8.5855 15.826 5.5542 35.984-0.81326-12.131-0.17796-14.007-2.7403-21.545 0.44607 2.8034 1.2235 4.7436 1.0367 9.715z" accentTintDarker="fill" fill="#654d50"/>
    <path d="m29.398 53.528c3.6223 2.2127 15.229 4.0475 20.505 3.3073 1.904-1.8561 3.8359-5.4656 5.6641-7.9766 3.6724-5.0439 2.8976-9.1498 0.66701-14.418l-3.5908-15.025-15.119-2.2679-14.741 15.497z" fill="#fef7f1"/>
    <path transform="scale(.26458)" d="m215.7 138.26a9.5526 25.329 60.515 0 0-9.1602 4.8203 9.5526 25.329 60.515 0 0-14.111 19.826 9.5526 25.329 60.515 0 0 27.209-5.3828c-0.06761-6.2411-1.5581-12.547-3.9375-19.264z" fill="#fef7f1"/>
  </g>
  <path d="m50.778 47.533c-0.05651 2.1133-1.7766 3.7476-3.6331 4.2536-1.8565 0.506-4.8918 0.28457-5.4439-2.5164 4.9706-0.12322 8.8704-1.7946 9.0771-1.7372z" fill="#e497a7" stroke="#ae5f58" stroke-linecap="round" stroke-linejoin="round" stroke-width=".1"/>
  <g>
    <path transform="matrix(.86856 -.49558 .51589 .85665 0 0)" d="m34.987 61.994a6.7012 2.5283 0 0 1-6.4423 2.5264 6.7012 2.5283 0 0 1-6.9402-2.3311 6.7012 2.5283 0 0 1 5.9058-2.7066 6.7012 2.5283 0 0 1 7.3967 2.1219" fill="url(#radialGradient991-7)" style="mix-blend-mode:normal"/>
    <path transform="matrix(.98723 -.15932 .18251 .9832 0 0)" d="m33.386 51.185a7.9932 3.0157 0 0 1-7.6843 3.0134 7.9932 3.0157 0 0 1-8.2782-2.7805 7.9932 3.0157 0 0 1 7.0444-3.2284 7.9932 3.0157 0 0 1 8.8227 2.531" fill="url(#radialGradient991)" style="mix-blend-mode:normal"/>
  </g>
  <path transform="scale(.26458)" d="m218.37 65.584-8.0957 55.096 2.2676 9.4883c7.6853 18.153 10.791 32.654 0.76562 49.518 2.3545 16.867 3.6206 30.943-2.1836 59.479 5.7342-9.194 18.335-25.941 18.918-88.996 0.70636-18.79-2.232-26.123-3.918-36.719 9.6845 28.489 7.2817 35.579 10.355 81.428 10.722-71.301-4.0075-97.165-18.109-129.29zm-6.0879 115.77c-0.69961 1.0933-1.4492 2.1965-2.2617 3.3125-2.5535 3.5072-5.1692 7.5883-7.8047 11.686 3.9006 8.1302 4.5965 17.101 4.9785 33.529 4.2188-15.077 6.2704-23.929 5.0879-48.527z" accentTintDarker="fill" fill="#654d50"/>
  <g>
    <path d="m17.433 30.523c-0.84198 8.6611 5.9529 26.138 12.261 33.242-2.897-4.0228-4.7656-8.7313-6.5481-13.497 4.4485 7.3791 9.2285 13.815 15.301 16.571-3.6023-2.528-5.5747-5.5217-8.3522-8.2854 4.9406 5.1513 8.8556 7.4625 12.161 8.0849-4.4922-3.3377-11.388-12.431-15.702-22.25 2.4171 4.5367 5.2905 7.9325 8.419 10.691-2.3618-4.0302-4.9845-5.8943-7.0826-12.094-1.5281-7.1463-0.20026-13.342 0.84991-17.22 0.32948 3.6344 1.5617 7.0431 3.4018 10.3-0.70222-6.0441-0.27405-9.6379 1.4174-15.304-0.31958 6.164 0.82238 7.4616 2.5986 11.477-0.44698-4.575-0.99841-8.4424-0.42522-13.276 5.8856 7.2578 6.4413 18.713 6.9845 21.538 1.2613-3.9887 1.3622-13.959-1.0786-21.065 1.6216 4.8256 2.5492 5.6949 2.9408 15.638 2.6552-7.7436 0.95226-11.558-0.57843-14.599 2.0486 2.6704 3.1453 4.0273 3.8743 8.4572 0.27639-2.5835 0.16252-5.3134-1.5592-8.6462 0.94443 1.2262 5.1013 3.3748 6.8508 10.111 0.29316-4.2264 0.81375-6.0115-2.5041-10.583 1.9787 1.3187 5.8162 6.0196 6.8036 12.379 0.54609-3.5303 1.1743-6.5277-2.5513-14.08-5.6903-14.613-34.795-14.543-37.482 12.413z" fill="#7e6165" accentTint="fill"/>
  </g>
  <g fill="#303030">
    <path d="m49.3 38.38c0.35427-1.2772 2.052-5.4602 6.4192-5.5439l1.2695-2.94-0.87673 3.8119c-3.9764 0.29738-5.9188 3.2801-6.812 4.6719z"/>
    <path d="m41.449 40.647c-4.9751-2.9136-9.5714-1.3182-11.859 0.7087l-2.8348-1.2757 3.2128 2.2679c2.2504-2.6293 7.0068-3.1601 11.481-1.7009z" stroke="url(#linearGradient897)" stroke-width=".1"/>
  </g>
  <g fill="#303030">
    <path d="m36.929 29.673c-2.3836-1.7979-6.0471-0.67226-9.645 1.4619 3.4543-1.4205 6.9866-2.1356 9.645-1.4619z"/>
    <path d="m46.793 27.362c0.44767-2.9824 5.6489-3.8363 7.137-3.0483-2.2823-0.32177-5.5734 1.0039-7.137 3.0483z"/>
  </g>
</svg>
