<svg xmlns="http://www.w3.org/2000/svg" viewBox="0 0 16 16" width="16" height="16"><g transform="matrix(0.01903287,0,0,0.01903287,8.6562768,2.7119359)"><path fill="#9AA7B0" d="M 57.191406,44.6875 34.523438,67.353516 c -9.357001,9.357 -9.374063,24.523343 -0.03906,33.902344 70.233682,70.6686 140.556412,141.24782 211.007812,211.69922 l 39.98437,-39.98438 c 9.372,-9.373 9.37105,-24.5694 -0.002,-33.9414 L 91.132812,44.6875 c -13.831789,-11.156095 -21.672836,-11.081515 -33.941406,0 z"/><path opacity="0.75" accentTint="both" d="M 188.59376,256.05665 C 136.85859,307.7566 85.328108,359.66093 33.73243,411.5 c -9.335,9.379 -9.31798,24.5434 0.03906,33.90039 l 22.66797,22.66797 c 9.372,9.373 24.56645,9.373 33.93945,0 L 245.49219,312.95508 Z"/></g></svg>