<?xml version="1.0" encoding="UTF-8" standalone="no"?>
<svg
    width="16px"
    height="16px"
    viewBox="0 -1 16 16"
    xmlns="http://www.w3.org/2000/svg">
    <path
        d="M 14.559,10.6 C 13.767,8.566 13.109,6.481 12.352,4.434 12.041479,3.5530672 11.668188,2.6955348 11.235,1.868 11.081361,1.555489 10.858765,1.2819451 10.584,1.068 10.511365,1.0212915 10.426324,0.99759155 10.34,1 10.197858,1.0070867 10.062391,1.0624728 9.956,1.157 9.5889836,1.5085417 9.284619,1.9201103 9.056,2.374 7.8163041,5.2653382 7.9664655,6.9766256 4.068,10.4 c 0.2712305,-0.09294 0.5576129,-0.13366 0.844,-0.12 0.4284808,0.195878 0.7625866,0.552617 0.93,0.993 0.424,0.883 0.73,1.815 1.073,2.731 0.5700086,-0.07405 1.104529,-0.317968 1.534,-0.7 0.8105379,-0.750524 1.553716,-1.570664 2.221,-2.451 0.298529,-0.420815 0.721296,-0.737627 1.209,-0.906 0.528847,-0.1119673 1.078654,0.047908 1.465,0.426 0.502194,0.534443 1.057001,1.016883 1.656,1.44 -0.113185,-0.415839 -0.260691,-0.821565 -0.441,-1.213 z"
        style="fill:#af2905;fill-opacity:1" />
    <path
        style="fill:#af2905;stroke:none;stroke-width:0.1;stroke-linecap:round;stroke-linejoin:round;stroke-miterlimit:4;stroke-dasharray:none;stroke-opacity:1;fill-opacity:1"
        d="m 3.3015424,9.9102034 -2.41200003,-1.718 3.27200003,-1.377 1.573,1.214 c -0.6027515,0.8947481 -1.522337,1.3821382 -2.433,1.881 z"/>
    <path
        style="fill:#af2905;stroke:none;stroke-width:0.1;stroke-linecap:butt;stroke-linejoin:miter;stroke-miterlimit:4;stroke-dasharray:none;stroke-opacity:1;fill-opacity:1"
        d="m 4.5541356,6.3029153 c 0.3693366,-0.4144951 0.5624982,-1.0932527 1.109,-1.242 1.4980319,-0.6089273 1.9015911,-1.3279139 2.547,-2.022 0.026218,0.9656159 -1.1320144,3.3328195 -2.0422034,4.5117966 z"/>
</svg>
