<?xml version="1.0" encoding="UTF-8"?>
<svg width="16px" height="16px" version="1.1" viewBox="0 0 24 24" xmlns="http://www.w3.org/2000/svg" xmlns:cc="http://creativecommons.org/ns#" xmlns:dc="http://purl.org/dc/elements/1.1/" xmlns:rdf="http://www.w3.org/1999/02/22-rdf-syntax-ns#">
 <metadata>
  <rdf:RDF>
   <cc:Work rdf:about="">
    <dc:format>image/svg+xml</dc:format>
    <dc:type rdf:resource="http://purl.org/dc/dcmitype/StillImage"/>
    <dc:title/>
   </cc:Work>
  </rdf:RDF>
 </metadata>
 <path transform="scale(1.5)" d="m6.668 1.334c-0.16667 0-0.30732 0.1193-0.33398 0.2793l-0.24609 1.7676c-0.42 0.16667-0.78029 0.39234-1.127 0.65234l-1.6602-0.66602c-0.14667-0.06-0.32625-1.823e-4 -0.40625 0.14648l-1.334 2.3066c-0.086667 0.14667-0.046589 0.32578 0.080078 0.42578l1.4082 1.0879c-0.026667 0.22667-0.046875 0.44602-0.046875 0.66602s0.020208 0.43315 0.046875 0.64648l-1.4082 1.1074c-0.12667 0.1-0.16674 0.27911-0.080078 0.42578l1.334 2.3066c0.08 0.14667 0.25958 0.19982 0.40625 0.14648l1.6602-0.67187c0.34667 0.26667 0.70695 0.49154 1.127 0.6582l0.24609 1.7676c0.026667 0.16 0.16732 0.2793 0.33398 0.2793h2.666c0.16667 0 0.30732-0.1193 0.33398-0.2793l0.24609-1.7676c0.42-0.17333 0.78029-0.39154 1.127-0.6582l1.6602 0.67187c0.14667 0.053334 0.32625 1.83e-4 0.40625-0.14648l1.334-2.3066c0.08-0.14667 0.046589-0.32578-0.080078-0.42578l-1.4062-1.1074c0.026667-0.21333 0.046875-0.42648 0.046875-0.64648s-0.020208-0.43935-0.046875-0.66602l1.4062-1.0879c0.12667-0.1 0.16008-0.27911 0.080078-0.42578l-1.334-2.3066c-0.08-0.14667-0.25958-0.20648-0.40625-0.14648l-1.6602 0.66602c-0.34667-0.26-0.70695-0.48568-1.127-0.65234l-0.24609-1.7676c-0.026667-0.16-0.16732-0.2793-0.33398-0.2793h-2.666zm-0.54297 4.373c0.17582-0.016598 0.36894-0.0028449 0.57812 0.044922 0.72584 0.16583 1.2218 0.49328 1.3691 0.57422 0.14725-0.081012 0.64526-0.40848 1.3711-0.57422 1.6735-0.38213 2.3169 1.4622 1.3301 2.8535-0.88159 1.0123-1.798 1.4791-2.7012 2.0781-0.90323-0.59898-1.8177-1.0658-2.6992-2.0781-0.86346-1.2174-0.47878-2.7823 0.75195-2.8984z" fill="#9AA7B0" stroke-width=".66667"/>
</svg>
