<svg xmlns="http://www.w3.org/2000/svg" width="16" height="16" viewBox="0 0 16 16">
    <path  fill="#9AA7B0"  d="m 7.6386719,1.2324219 c -0.462384,-1.47e-4 -0.8426764,0.3814411 -0.84375,0.84375 l -0.011719,4.7070312 -4.7070312,0.011719 c -0.4622062,0.00122 -0.843766,0.3814463 -0.84375,0.84375 v 0.734375 C 1.232392,8.8361108 1.6150623,9.2187646 2.078125,9.21875 H 8.3730469 C 8.8360841,9.2187347 9.218779,8.8361041 9.21875,8.3730469 V 2.078125 C 9.2187944,1.6150607 8.8361096,1.2324217 8.3730469,1.2324219 Z"/>
    <path  fill="#9AA7B0" accentTint="both" stroke-width="0.59" d="m 7.07778,7.0776701 6.84423,1.92e-5 c 0.303632,-9.3e-6 0.549769,0.246128 0.549751,0.5497507 l -1.1e-5,0.7342764 c 1.2e-5,0.3031109 -0.245336,0.5490368 -0.548351,0.5498365 l -5.0011785,0.0118 -0.011721,5.0011611 c -7.027e-4,0.30311 -0.246639,0.548447 -0.549837,0.548351 l -0.7342755,10e-6 c -0.303643,0 -0.5497801,-0.246138 -0.5497513,-0.549751 2.838e-4,-2.281818 -0.00102,-4.5636382 0.00114,-6.8454539 z"/>
</svg>
