<svg xmlns="http://www.w3.org/2000/svg" width="16" height="16" viewBox="0 0 16 16">
  <path fill="#9AA7B0" fill-opacity=".8" fill-rule="evenodd" d="m 8,13 h 7 V 4 H 7.98457 L 6.69633,2.71149 C 6.2216196,2.2855944 5.6157012,2.0345799 4.97888,2 H 1.05128 C 1.0229588,2 1,2.0229588 1,2.05128 V 5.3419862 C 2.4334004,3.0066786 11.850507,3.8341089 8,13 Z"/>
  <g
          fill="#389FD6"
          accentTint="fill"
          style="fill-rule:evenodd"
          id="g6"
          transform="matrix(0.67629074,0,0,0.67629074,0.20118499,5.3875418)">
    <rect
            width="2.2"
            height="6.2420001"
            x="10.157"
            y="8.0360003"
            transform="rotate(-45,11.257,11.157)"
            id="rect2" />
    <path
            d="M 5.75,11.5 C 2.5743627,11.5 0,8.9256373 0,5.75 0,2.5743627 2.5743627,0 5.75,0 8.9256373,0 11.5,2.5743627 11.5,5.75 11.5,8.9256373 8.9256373,11.5 5.75,11.5 Z m 0,-2 C 7.8210678,9.5 9.5,7.8210678 9.5,5.75 9.5,3.6789322 7.8210678,2 5.75,2 3.6789322,2 2,3.6789322 2,5.75 2,7.8210678 3.6789322,9.5 5.75,9.5 Z"
            id="path4" />
  </g>
</svg>
