<svg xmlns="http://www.w3.org/2000/svg" width="16" height="16" viewBox="0 0 16 16">
  <path fill="#9AA7B0" fill-opacity=".8" fill-rule="evenodd" d="M 12.874128,13 H 15 V 4 H 7.98457 L 6.69633,2.71149 C 6.2216196,2.2855944 5.6157012,2.0345799 4.97888,2 H 1.05128 C 1.0229588,2 1,2.0229588 1,2.05128 V 6.4374872 C 5.8980967,3.7276253 13.346775,5.3749516 12.874128,13 Z"/>
  <path fill="#389FD6"
        accentTint="fill"
          style="fill-rule:evenodd;stroke-width:0.97062147"
        d="m 5.9559319,6.5351102 c -2.6471495,0 -4.9078149,1.7249317 -5.82372875,4.1598038 0.91591385,2.434873 3.17657925,4.159806 5.82372875,4.159806 2.6471495,0 4.9078151,-1.724933 5.8237291,-4.159806 C 10.863747,8.2600419 8.6030814,6.5351102 5.9559319,6.5351102 Z m 0,7.0716688 c -1.607349,0 -2.9118645,-1.304514 -2.9118645,-2.911865 0,-1.6073481 1.3045155,-2.9118627 2.9118645,-2.9118627 1.6073491,0 2.9118646,1.3045146 2.9118646,2.9118627 0,1.607351 -1.3045155,2.911865 -2.9118646,2.911865 z m 0,-4.5757863 c -0.9207037,0 -1.6639225,0.7432172 -1.6639225,1.6639213 0,0.920704 0.7432188,1.663922 1.6639225,1.663922 0.9207038,0 1.6639225,-0.743218 1.6639225,-1.663922 0,-0.9207041 -0.7432187,-1.6639213 -1.6639225,-1.6639213 z"/>
</svg>
