<?xml version="1.0" encoding="UTF-8"?>
<svg clip-rule="evenodd" fill-rule="evenodd" stroke-linejoin="round" stroke-miterlimit="1.4142"
     version="1.1" viewBox="0 0 24 24" width="16px" height="16px"
     xml:space="preserve" xmlns="http://www.w3.org/2000/svg">
    <path d="M 1,19.260657 H 22.968108 V 5.1383012 H 11.959843 L 9.9383992,3.116435 C 9.1935075,2.4481407 8.2427303,2.0542611 7.243462,2 H 1.080466 C 1.0360259,2 1,2.0360259 1,2.080466 Z" fill="#7CB342"
      fill-rule="nonzero"/>
    <path d="m17.761 8.8588c-3.1558 0-5.7119 1.278-5.7119 2.8559 0 1.5779 2.5561 2.8559 5.7119 2.8559 3.1558 0 5.7119-1.278 5.7119-2.8559 0-1.5779-2.5561-2.8559-5.7119-2.8559m-5.7119 4.2839v2.1419c0 1.5779 2.5561 2.8559 5.7119 2.8559 3.1558 0 5.7119-1.278 5.7119-2.8559v-2.1419c0 1.5779-2.5561 2.8559-5.7119 2.8559-3.1558 0-5.7119-1.278-5.7119-2.8559m0 3.5699v2.1419c0 1.5779 2.5561 2.8559 5.7119 2.8559 3.1558 0 5.7119-1.278 5.7119-2.8559v-2.1419c0 1.5779-2.5561 2.8559-5.7119 2.8559-3.1558 0-5.7119-1.278-5.7119-2.8559z" fill="#C5E1A5" stroke-width=".71398"/>
</svg>
