<?xml version="1.0" encoding="UTF-8"?>
<svg xmlns:cc="http://creativecommons.org/ns#" xmlns:dc="http://purl.org/dc/elements/1.1/" xmlns:rdf="http://www.w3.org/1999/02/22-rdf-syntax-ns#" width="11" height="11"
     version="1.1" viewBox="0 0 11 11"
     xmlns="http://www.w3.org/2000/svg">
  <metadata>
    <rdf:RDF>
      <cc:Work rdf:about="">
        <dc:format>image/svg+xml</dc:format>
        <dc:type rdf:resource="http://purl.org/dc/dcmitype/StillImage"/>
        <dc:title/>
      </cc:Work>
    </rdf:RDF>
  </metadata>
  <path accentTint="both"
        d="m2.959 2.6816c-2.2237-0.16466-3.0048 2.453-1.582 4.459 0.67788 0.77843 1.3676 1.3474 2.0625 1.8359 0.19367 0.13616 0.3879 0.25226 0.58203 0.37891v-6.4258c-0.18969-0.064055-0.38169-0.12795-0.59961-0.17773-0.16085-0.03673-0.31464-0.059335-0.46289-0.070312z"
        fill="#fff" stroke="#fff" stroke-linecap="round" stroke-width=".1" tint="true"/>
  <path accentTint="stroke"
        d="m5.5287 3.6349c0.22645-0.12459 0.99057-0.62806 2.1068-0.88295 2.5736-0.58769 3.5629 2.2499 2.0453 4.3896-1.3558 1.5569-2.7631 2.2721-4.1521 3.1932-0.69453-0.46059-1.3936-0.86968-2.0886-1.3582-0.69493-0.48855-1.3857-1.0566-2.0636-1.835-1.5176-2.1397-0.52832-4.9772 2.0453-4.3896 1.1163 0.25503 1.8802 0.75847 2.1068 0.88295"
        fill="none" stroke="#fff" stroke-linecap="round" stroke-width=".90772" tint="stroke"/>
</svg>
