<?xml version="1.0" encoding="UTF-8"?>
<svg xmlns:cc="http://creativecommons.org/ns#" xmlns:dc="http://purl.org/dc/elements/1.1/" xmlns:rdf="http://www.w3.org/1999/02/22-rdf-syntax-ns#" width="11" height="11"
     version="1.1" viewBox="0 0 11 11"
     xmlns="http://www.w3.org/2000/svg">
  <metadata>
    <rdf:RDF>
      <cc:Work rdf:about="">
        <dc:format>image/svg+xml</dc:format>
        <dc:type rdf:resource="http://purl.org/dc/dcmitype/StillImage"/>
        <dc:title/>
      </cc:Work>
    </rdf:RDF>
  </metadata>
  <path accentTint="both"
        d="m2.9297 2.5137c-2.2237-0.16466-3.0048 2.455-1.582 4.4609 0.67788 0.77843 1.3695 1.3454 2.0645 1.834 0.69493 0.48855 1.3934 0.89879 2.0879 1.3594 0.54259-0.35984 1.0868-0.70308 1.6309-1.0625v-6.3809c-0.84765 0.26778-1.4394 0.63883-1.6309 0.74414-0.2266-0.12447-0.99116-0.62973-2.1074-0.88477-0.16085-0.03673-0.31464-0.059335-0.46289-0.070312z"
        fill="#fff" stroke="#fff" tint="true"/>
  <path accentTint="stroke"
        d="m5.5 3.4678c0.22645-0.12459 0.99057-0.62806 2.1068-0.88295 2.5736-0.58769 3.5629 2.2499 2.0453 4.3896-1.3558 1.5569-2.7631 2.2721-4.1521 3.1932-0.69453-0.46059-1.3936-0.86968-2.0886-1.3582-0.69493-0.48855-1.3857-1.0566-2.0636-1.835-1.5176-2.1397-0.52832-4.9772 2.0453-4.3896 1.1163 0.25503 1.8802 0.75847 2.1068 0.88295"
        fill="none" stroke="#fff" stroke-linecap="round" stroke-opacity="1" stroke-width=".90772" tint="stroke"/>
</svg>
