<?xml version="1.0" encoding="UTF-8" standalone="no"?>
<svg
   xmlns:dc="http://purl.org/dc/elements/1.1/"
   xmlns:cc="http://creativecommons.org/ns#"
   xmlns:rdf="http://www.w3.org/1999/02/22-rdf-syntax-ns#"
   xmlns:svg="http://www.w3.org/2000/svg"
   xmlns="http://www.w3.org/2000/svg"
   xmlns:sodipodi="http://sodipodi.sourceforge.net/DTD/sodipodi-0.dtd"
   xmlns:inkscape="http://www.inkscape.org/namespaces/inkscape"
   width="11"
   height="11"
   viewBox="0 0 11 11"
   version="1.1"
   id="svg4"
   sodipodi:docname="rating1.svg"
   inkscape:version="0.92.3 (unknown)">
  <metadata
     id="metadata10">
    <rdf:RDF>
      <cc:Work
         rdf:about="">
        <dc:format>image/svg+xml</dc:format>
        <dc:type
           rdf:resource="http://purl.org/dc/dcmitype/StillImage" />
        <dc:title></dc:title>
      </cc:Work>
    </rdf:RDF>
  </metadata>
  <defs
     id="defs8" />
  <sodipodi:namedview
     pagecolor="#ffffff"
     bordercolor="#666666"
     borderopacity="1"
     objecttolerance="10"
     gridtolerance="10"
     guidetolerance="10"
     inkscape:pageopacity="0"
     inkscape:pageshadow="2"
     inkscape:window-width="853"
     inkscape:window-height="718"
     id="namedview6"
     showgrid="false"
     inkscape:pagecheckerboard="true"
     inkscape:zoom="5.3636364"
     inkscape:cx="-2.3013648"
     inkscape:cy="-2.2549199"
     inkscape:window-x="182"
     inkscape:window-y="687"
     inkscape:window-maximized="0"
     inkscape:current-layer="svg4">
    <inkscape:grid
       type="xygrid"
       id="grid12" />
  </sodipodi:namedview>
  <path
          tint="true"
          stroke="#FFFFFF"
          fill="#FFFFFF"
     style="fill-opacity:1;stroke-width:0.1;stroke-linecap:round;stroke-miterlimit:4;stroke-dasharray:none;stroke-opacity:1"
     d="M 2.9589844 2.6816406 C 0.73524809 2.5169833 -0.045809822 5.1346855 1.3769531 7.140625 C 2.0548331 7.9190523 2.7445204 8.4880085 3.4394531 8.9765625 C 3.6331254 9.1127187 3.8273542 9.2288212 4.0214844 9.3554688 L 4.0214844 2.9296875 C 3.831794 2.8656322 3.6397955 2.8017415 3.421875 2.7519531 C 3.261023 2.7152228 3.1072335 2.6926178 2.9589844 2.6816406 z "
     id="rect835" />
  <path
     sodipodi:nodetypes="csccscsc"
     inkscape:connector-curvature="0"
     id="path1445-6"
     tint="stroke"
     stroke="#FFFFFF"
     d="M 5.5287287,3.6349171 C 5.7551831,3.5103307 6.5193019,3.0068573 7.635563,2.7519684 10.20916,2.1642832 11.198484,5.0018525 9.6808738,7.1415213 8.325078,8.6983775 6.9177609,9.413578 5.5287287,10.334751 4.8341942,9.8741645 4.135098,9.4650707 3.4401654,8.9765168 2.7452327,8.4879628 2.0544637,7.9199486 1.3765837,7.1415213 -0.14103011,5.0018525 0.84826271,2.1642832 3.4218942,2.7519684 4.5381552,3.0070008 5.3021283,3.5104422 5.5287287,3.6349171"
     style="fill:none;fill-opacity:1;stroke-width:0.9077158;stroke-linecap:round;stroke-miterlimit:4;stroke-dasharray:none;stroke-opacity:0.94117647" />
</svg>
