<?xml version="1.0" encoding="UTF-8"?>
<svg width="11" height="11" version="1.1" viewBox="0 0 11 11" xmlns="http://www.w3.org/2000/svg" xmlns:cc="http://creativecommons.org/ns#" xmlns:dc="http://purl.org/dc/elements/1.1/" xmlns:rdf="http://www.w3.org/1999/02/22-rdf-syntax-ns#">
 <metadata>
  <rdf:RDF>
   <cc:Work rdf:about="">
    <dc:format>image/svg+xml</dc:format>
    <dc:type rdf:resource="http://purl.org/dc/dcmitype/StillImage"/>
    <dc:title/>
   </cc:Work>
  </rdf:RDF>
 </metadata>
 <path accentTint="both" d="m3.2614 2.5137c-2.5446-0.16466-3.4384 2.455-1.8103 4.4609 0.7757 0.77843 1.5671 1.3454 2.3624 1.834 0.33251 0.20428 0.66559 0.38229 0.99903 0.56836v-6.5117c-0.30482-0.10423-0.63835-0.20477-1.0214-0.28125-0.18406-0.03673-0.36004-0.059335-0.52969-0.070312z" fill="#fff" stroke="#fff" tint="true"/>
 <path accentTint="stroke" d="m5.5 3.4678c0.22645-0.12459 0.99057-0.62806 2.1068-0.88295 2.5736-0.58769 3.5629 2.2499 2.0453 4.3896-1.3558 1.5569-2.7631 2.2721-4.1521 3.1932-0.69453-0.46059-1.3936-0.86968-2.0886-1.3582-0.69493-0.48855-1.3857-1.0566-2.0636-1.835-1.5176-2.1397-0.52832-4.9772 2.0453-4.3896 1.1163 0.25503 1.8802 0.75847 2.1068 0.88295" fill="none" stroke="#fff" stroke-linecap="round"  stroke-width=".90772" tint="stroke"/>
</svg>
