<?xml version="1.0" encoding="UTF-8" standalone="no"?>
<svg
   xmlns:dc="http://purl.org/dc/elements/1.1/"
   xmlns:cc="http://creativecommons.org/ns#"
   xmlns:rdf="http://www.w3.org/1999/02/22-rdf-syntax-ns#"
   xmlns:svg="http://www.w3.org/2000/svg"
   xmlns="http://www.w3.org/2000/svg"
   xmlns:sodipodi="http://sodipodi.sourceforge.net/DTD/sodipodi-0.dtd"
   xmlns:inkscape="http://www.inkscape.org/namespaces/inkscape"
   version="1.1"
   width="16px"
   height="16px"
   fill="#81D4FA"
   viewBox="0 0 24 24"
   id="svg4"
   sodipodi:docname="colBlueKey.svg"
   inkscape:version="0.92.3 (unknown)">
  <metadata
     id="metadata10">
    <rdf:RDF>
      <cc:Work
         rdf:about="">
        <dc:format>image/svg+xml</dc:format>
        <dc:type
           rdf:resource="http://purl.org/dc/dcmitype/StillImage" />
      </cc:Work>
    </rdf:RDF>
  </metadata>
  <defs
     id="defs8" />
  <sodipodi:namedview
     pagecolor="#ffffff"
     bordercolor="#666666"
     borderopacity="1"
     objecttolerance="10"
     gridtolerance="10"
     guidetolerance="10"
     inkscape:pageopacity="0"
     inkscape:pageshadow="2"
     inkscape:window-width="863"
     inkscape:window-height="491"
     id="namedview6"
     showgrid="false"
     inkscape:zoom="14.75"
     inkscape:cx="8"
     inkscape:cy="8"
     inkscape:window-x="67"
     inkscape:window-y="27"
     inkscape:window-maximized="0"
     inkscape:current-layer="svg4" />
  <path
     style="stroke-width:0.66666669"
     d="M 4.6660156 4 A 4 4 0 0 0 0.66601562 8 A 4 4 0 0 0 4.6660156 12 C 6.4060156 12 7.8869271 10.887318 8.4335938 9.3339844 L 11.333984 9.3339844 L 11.333984 12 L 14 12 L 14 9.3339844 L 15.333984 9.3339844 L 15.333984 6.6660156 L 8.4335938 6.6660156 C 7.8869271 5.1126823 6.4060156 4 4.6660156 4 z M 3.078125 6.296875 C 3.2163584 6.2838254 3.368737 6.2944757 3.5332031 6.3320312 C 3.967475 6.4312504 4.249613 6.5825397 4.4335938 6.6875 A 1.3333333 1.3333333 0 0 1 4.6660156 6.6660156 A 1.3333333 1.3333333 0 0 1 4.8085938 6.6757812 C 4.9963273 6.5700094 5.2704468 6.4272618 5.6875 6.3320312 C 7.0032113 6.0315867 7.5082779 7.4822999 6.7324219 8.5761719 C 6.0392925 9.3720905 5.3194963 9.738049 4.609375 10.208984 C 3.8992351 9.738049 3.1813926 9.3720905 2.4882812 8.5761719 C 1.8094074 7.6190339 2.1104909 6.3882221 3.078125 6.296875 z "
     transform="scale(1.5)"
     id="path2" />
</svg>
