<?xml version="1.0" encoding="UTF-8" standalone="no"?>
<svg
   xmlns:dc="http://purl.org/dc/elements/1.1/"
   xmlns:cc="http://creativecommons.org/ns#"
   xmlns:rdf="http://www.w3.org/1999/02/22-rdf-syntax-ns#"
   xmlns:svg="http://www.w3.org/2000/svg"
   xmlns="http://www.w3.org/2000/svg"
   xmlns:sodipodi="http://sodipodi.sourceforge.net/DTD/sodipodi-0.dtd"
   xmlns:inkscape="http://www.inkscape.org/namespaces/inkscape"
   version="1.1"
   width="16px"
   height="16px"
   fill="#81D4FA"
   viewBox="0 0 24 24"
   id="svg6"
   sodipodi:docname="colBlueKeyIndex.svg"
   inkscape:version="0.92.3 (unknown)">
  <metadata
     id="metadata12">
    <rdf:RDF>
      <cc:Work
         rdf:about="">
        <dc:format>image/svg+xml</dc:format>
        <dc:type
           rdf:resource="http://purl.org/dc/dcmitype/StillImage" />
      </cc:Work>
    </rdf:RDF>
  </metadata>
  <defs
     id="defs10" />
  <sodipodi:namedview
     pagecolor="#ffffff"
     bordercolor="#666666"
     borderopacity="1"
     objecttolerance="10"
     gridtolerance="10"
     guidetolerance="10"
     inkscape:pageopacity="0"
     inkscape:pageshadow="2"
     inkscape:window-width="861"
     inkscape:window-height="491"
     id="namedview8"
     showgrid="false"
     inkscape:zoom="14.75"
     inkscape:cx="8"
     inkscape:cy="13.423729"
     inkscape:window-x="67"
     inkscape:window-y="27"
     inkscape:window-maximized="0"
     inkscape:current-layer="svg6" />
  <path
     inkscape:connector-curvature="0"
     style="fill:#29b6f6;stroke-width:0.998074"
     d="m 6.8528504,5.9044693 c -3.3073271,0 -5.98844419,2.6811182 -5.98844419,5.9884437 0,3.307325 2.68111709,5.988443 5.98844419,5.988443 2.6049731,0 4.8191376,-1.666783 5.6375586,-3.992296 h 4.343181 v 3.992296 h 3.992296 V 13.88906 h 1.996148 V 9.8967652 H 12.490409 C 11.671988,7.5712528 9.4578235,5.9044693 6.8528504,5.9044693 Z M 4.7436393,9.4951962 C 4.9517855,9.4755503 5.1782699,9.4932419 5.425916,9.5497831 6.2852125,9.7461066 6.8733509,10.132342 7.0477861,10.228162 7.2221124,10.132257 7.8103599,9.7459966 8.6696564,9.5497831 10.650806,9.0973828 11.412996,11.282866 10.244742,12.929978 9.201055,14.128444 8.1170627,14.677059 7.0477861,15.386176 5.9784857,14.677054 4.8983913,14.128437 3.8547293,12.929974 2.8325058,11.48875 3.2866109,9.6327414 4.7436393,9.4951962 Z"
     id="path4-3" />
  <path
     inkscape:connector-curvature="0"
     style="fill:#fdd835;stroke:#000000;stroke-width:0.5"
     d="m 13.628724,0.6362032 c -0.276142,0 -0.500976,0.224834 -0.500976,0.500976 v 3 c 0,0.276143 0.224834,0.498047 0.500976,0.498047 h 7.998048 c 0.27614,0 0.500975,-0.221904 0.500975,-0.498047 v -3 c 0,-0.276142 -0.224835,-0.500976 -0.500975,-0.500976 z m 1.400391,0.814453 c 0.09315,-0.0088 0.196798,-0.0019 0.307616,0.02344 0.384528,0.08785 0.648506,0.261808 0.726563,0.304687 0.07802,-0.04291 0.339106,-0.216884 0.723633,-0.304687 0.886543,-0.202444 1.228837,0.777581 0.706054,1.514649 -0.46704,0.536301 -0.951196,0.781309 -1.429688,1.098632 -0.478501,-0.317323 -0.965588,-0.562332 -1.432616,-1.098632 -0.457434,-0.644935 -0.253568,-1.476536 0.398438,-1.538086 z m -1.400391,4.186523 c -0.276142,0 -0.500976,0.221905 -0.500976,0.498047 v 3 c 0,0.276143 0.224834,0.500977 0.500976,0.500977 h 7.998048 c 0.27614,0 0.500975,-0.224834 0.500975,-0.500977 v -3 c 0,-0.276142 -0.224835,-0.498047 -0.500975,-0.498047 z m 1.491211,0.902344 c 0.08934,-0.0084 0.186678,-8.34e-4 0.29297,0.02344 0.368811,0.08426 0.622396,0.251842 0.697264,0.292969 0.07482,-0.04116 0.325527,-0.208754 0.694337,-0.292969 0.850311,-0.19417 1.178173,0.743252 0.676758,1.450195 -0.447953,0.514382 -0.912161,0.750334 -1.371095,1.054688 -0.458944,-0.304354 -0.926083,-0.540306 -1.374022,-1.054687 -0.43874,-0.618575 -0.241569,-1.414598 0.383788,-1.473633 z"
     id="path54" />
</svg>
