<?xml version="1.0" encoding="UTF-8" standalone="no"?>
<svg
   xmlns:dc="http://purl.org/dc/elements/1.1/"
   xmlns:cc="http://creativecommons.org/ns#"
   xmlns:rdf="http://www.w3.org/1999/02/22-rdf-syntax-ns#"
   xmlns:svg="http://www.w3.org/2000/svg"
   xmlns="http://www.w3.org/2000/svg"
   xmlns:sodipodi="http://sodipodi.sourceforge.net/DTD/sodipodi-0.dtd"
   xmlns:inkscape="http://www.inkscape.org/namespaces/inkscape"
   version="1.1"
   width="16px"
   height="16px"
   viewBox="0 0 24 24"
   fill="#E57373"
   id="svg6"
   sodipodi:docname="colDot.svg"
   inkscape:version="0.92.3 (unknown)">
  <metadata
     id="metadata12">
    <rdf:RDF>
      <cc:Work
         rdf:about="">
        <dc:format>image/svg+xml</dc:format>
        <dc:type
           rdf:resource="http://purl.org/dc/dcmitype/StillImage" />
      </cc:Work>
    </rdf:RDF>
  </metadata>
  <defs
     id="defs10" />
  <sodipodi:namedview
     pagecolor="#ffffff"
     bordercolor="#666666"
     borderopacity="1"
     objecttolerance="10"
     gridtolerance="10"
     guidetolerance="10"
     inkscape:pageopacity="0"
     inkscape:pageshadow="2"
     inkscape:window-width="863"
     inkscape:window-height="491"
     id="namedview8"
     showgrid="false"
     inkscape:zoom="7.375"
     inkscape:cx="10.674586"
     inkscape:cy="6.8652187"
     inkscape:window-x="127"
     inkscape:window-y="110"
     inkscape:window-maximized="0"
     inkscape:current-layer="svg6" />
  <path
     d="M8,2H16A2,2 0 0,1 18,4V20A2,2 0 0,1 16,22H8A2,2 0 0,1 6,20V4A2,2 0 0,1 8,2M8,10V14H16V10H8M8,16V20H16V16H8M8,4V8H16V4H8Z"
     id="path2" />
  <path
     sodipodi:nodetypes="cscccsc"
     inkscape:connector-curvature="0"
     id="path1445-6"
     d="m 19.686693,18.210628 c 0.173657,-0.09554 0.759623,-0.481629 1.61563,-0.677091 1.973567,-0.450667 2.732233,1.725328 1.56845,3.366137 -1.039694,1.193878 -2.118898,1.742331 -3.18408,2.448734 -1.06521,-0.706403 -2.144412,-1.254857 -3.184079,-2.448734 -1.163785,-1.640809 -0.405144,-3.816804 1.568449,-3.366137 0.856007,0.195572 1.441861,0.581637 1.61563,0.677091"
     style="fill:#00ff00;fill-opacity:1;stroke:#00000f;stroke-width:1.04999995;stroke-linecap:round;stroke-linejoin:miter;stroke-miterlimit:4.69999981;stroke-dasharray:none;stroke-opacity:0.94117647" />
</svg>
