<?xml version="1.0" encoding="UTF-8" standalone="no"?>
<svg
   xmlns:dc="http://purl.org/dc/elements/1.1/"
   xmlns:cc="http://creativecommons.org/ns#"
   xmlns:rdf="http://www.w3.org/1999/02/22-rdf-syntax-ns#"
   xmlns:svg="http://www.w3.org/2000/svg"
   xmlns="http://www.w3.org/2000/svg"
   xmlns:sodipodi="http://sodipodi.sourceforge.net/DTD/sodipodi-0.dtd"
   xmlns:inkscape="http://www.inkscape.org/namespaces/inkscape"
   version="1.1"
   width="16px"
   height="16px"
   fill="#81C784"
   viewBox="0 0 24 24"
   id="svg4"
   sodipodi:docname="modelClass.svg"
   inkscape:version="0.92.3 (2405546, 2018-03-11)">
  <metadata
     id="metadata10">
    <rdf:RDF>
      <cc:Work
         rdf:about="">
        <dc:format>image/svg+xml</dc:format>
        <dc:type
           rdf:resource="http://purl.org/dc/dcmitype/StillImage" />
      </cc:Work>
    </rdf:RDF>
  </metadata>
  <defs
     id="defs8" />
  <sodipodi:namedview
     pagecolor="#ffffff"
     bordercolor="#666666"
     borderopacity="1"
     objecttolerance="10"
     gridtolerance="10"
     guidetolerance="10"
     inkscape:pageopacity="0"
     inkscape:pageshadow="2"
     inkscape:window-width="817"
     inkscape:window-height="480"
     id="namedview6"
     showgrid="false"
     inkscape:zoom="10.429825"
     inkscape:cx="9.2629404"
     inkscape:cy="6.6760199"
     inkscape:window-x="1085"
     inkscape:window-y="619"
     inkscape:window-maximized="0"
     inkscape:current-layer="svg4" />
  <path
     d="M21,16.5C21,16.88 20.79,17.21 20.47,17.38L12.57,21.82C12.41,21.94 12.21,22 12,22C11.79,22 11.59,21.94 11.43,21.82L3.53,17.38C3.21,17.21 3,16.88 3,16.5V7.5C3,7.12 3.21,6.79 3.53,6.62L11.43,2.18C11.59,2.06 11.79,2 12,2C12.21,2 12.41,2.06 12.57,2.18L20.47,6.62C20.79,6.79 21,7.12 21,7.5V16.5M12,4.15L6.04,7.5L12,10.85L17.96,7.5L12,4.15Z"
     id="path2" />
  <path
     style="fill:#5ab65e;fill-opacity:1;stroke:#5ab65e;stroke-width:0.5505;stroke-linecap:round;stroke-linejoin:round;stroke-miterlimit:4;stroke-dasharray:none;stroke-opacity:1"
     d="m 12.315861,12.573712 0.08423,9.059728 8.236002,-4.6555 0.09296,-9.1764963 z"
     id="path6028"
     inkscape:connector-curvature="0"
     sodipodi:nodetypes="ccccc" />
</svg>
