<?xml version="1.0" encoding="UTF-8" standalone="no"?>
<svg
   xmlns:dc="http://purl.org/dc/elements/1.1/"
   xmlns:cc="http://creativecommons.org/ns#"
   xmlns:rdf="http://www.w3.org/1999/02/22-rdf-syntax-ns#"
   xmlns:svg="http://www.w3.org/2000/svg"
   xmlns="http://www.w3.org/2000/svg"
   xmlns:sodipodi="http://sodipodi.sourceforge.net/DTD/sodipodi-0.dtd"
   xmlns:inkscape="http://www.inkscape.org/namespaces/inkscape"
   version="1.1"
   width="16px"
   height="16px"
   viewBox="0 0 24 24"
   id="svg4"
   sodipodi:docname="service.svg"
   inkscape:version="0.92.3 (unknown)">
  <metadata
     id="metadata10">
    <rdf:RDF>
      <cc:Work
         rdf:about="">
        <dc:format>image/svg+xml</dc:format>
        <dc:type
           rdf:resource="http://purl.org/dc/dcmitype/StillImage" />
      </cc:Work>
    </rdf:RDF>
  </metadata>
  <defs
     id="defs8" />
  <sodipodi:namedview
     pagecolor="#ffffff"
     bordercolor="#666666"
     borderopacity="1"
     objecttolerance="10"
     gridtolerance="10"
     guidetolerance="10"
     inkscape:pageopacity="0"
     inkscape:pageshadow="2"
     inkscape:window-width="863"
     inkscape:window-height="491"
     id="namedview6"
     showgrid="false"
     inkscape:zoom="14.75"
     inkscape:cx="8"
     inkscape:cy="8"
     inkscape:window-x="105"
     inkscape:window-y="508"
     inkscape:window-maximized="0"
     inkscape:current-layer="svg4" />
  <path
     inkscape:connector-curvature="0"
     style="fill:#607d8b;stroke-width:1"
     d="m 10.000117,1.9996875 c -0.25,0 -0.458047,0.1789453 -0.498047,0.4189452 L 9.13,5.07 C 8.5,5.3199999 7.9625,5.6585156 7.4424999,6.0485155 L 4.9522655,5.0494922 c -0.2199999,-0.09 -0.4923046,-2.735e-4 -0.6123046,0.2197266 L 2.3419141,8.7291796 c -0.1300005,0.2199998 -0.069883,0.4886718 0.120117,0.6386718 l 2.109375,1.6318356 c -0.040001,0.34 -0.070312,0.669023 -0.070312,0.999023 0,0.33 0.030312,0.649727 0.070312,0.969727 L 2.4620313,14.62957 c -0.1900001,0.15 -0.2501172,0.418672 -0.120117,0.638672 l 1.9980467,3.459961 c 0.12,0.22 0.3923048,0.299727 0.6123046,0.219726 l 2.4902345,-1.007811 c 0.52,0.399999 1.0575,0.737304 1.6874999,0.987304 l 0.37207,2.651367 c 0.04,0.24 0.248047,0.418946 0.498047,0.418946 h 4.001954 c 0.25,0 0.458047,-0.178946 0.498047,-0.418946 l 0.37207,-2.651367 c 0.629999,-0.260001 1.1675,-0.587305 1.687499,-0.987304 l 2.490236,1.007811 c 0.219999,0.08 0.492305,2.74e-4 0.612304,-0.219726 l 1.998047,-3.459961 c 0.12,-0.22 0.06988,-0.488672 -0.12012,-0.638672 l -2.109372,-1.661133 c 0.04001,-0.32 0.07031,-0.639727 0.07031,-0.969727 0,-0.33 -0.03032,-0.659023 -0.07031,-0.999023 l 2.109375,-1.6318356 c 0.19,-0.15 0.240117,-0.418672 0.12012,-0.6386717 L 19.662227,5.2692188 C 19.542228,5.0492187 19.269922,4.9594922 19.049923,5.0494922 L 16.559687,6.0485155 C 16.039688,5.6585156 15.502189,5.3199999 14.872188,5.07 l -0.37207,-2.6513673 c -0.04,-0.2399999 -0.248047,-0.4189452 -0.498047,-0.4189452 z M 9.302852,8.6032031 c 0.158458,0.01173 0.326117,0.036912 0.498046,0.076171 1.193138,0.2725963 2.007795,0.8132413 2.25,0.9462893 0.242051,-0.133167 1.059794,-0.673846 2.252931,-0.9462884 2.750837,-0.6281592 3.807675,2.406333 2.185547,4.693359 -1.449168,1.664075 -2.953784,2.428473 -4.438478,3.413085 C 10.566166,15.801207 9.061552,15.036807 7.6124219,13.372734 6.0916745,11.228647 6.9259692,8.4272057 9.302852,8.6032031 Z"
     id="path2-3" />
</svg>
