<?xml version="1.0" encoding="UTF-8"?>
<svg clip-rule="evenodd" fill-rule="evenodd" stroke-linejoin="round"
     stroke-miterlimit="1.4142" version="1.1" viewBox="0 0 24 24" width="16px" height="16px"
     xml:space="preserve" xmlns="http://www.w3.org/2000/svg">
    <path d="M 1,19.260657 H 22.968108 V 5.1383012 H 11.959843 L 9.9383992,3.116435 C 9.1935075,2.4481407 8.2427303,2.0542611 7.243462,2 H 1.080466 C 1.0360259,2 1,2.0360259 1,2.080466 Z" fill="#ef5350" fill-rule="nonzero"/>
    <path d="m19.946 13.159v-1.3288h-2.6576v3.6542c-0.27905-0.20597-0.6179-0.3322-0.99661-0.3322a1.661 1.661 0 0 0 -1.661 1.661 1.661 1.661 0 0 0 1.661 1.661 1.661 1.661 0 0 0 1.661 -1.661v-3.6542h1.9932m-2.6576-4.6508a6.6441 6.6441 0 0 1 6.6441 6.6441 6.6441 6.6441 0 0 1 -6.6441 6.6441 6.6441 6.6441 0 0 1 -6.6441 -6.6441 6.6441 6.6441 0 0 1 6.6441 -6.6441z" fill="#ffcdd2" stroke-width=".66441"/>
</svg>
