<?xml version="1.0" encoding="UTF-8"?>
<svg clip-rule="evenodd" fill-rule="evenodd" stroke-linejoin="round"
     stroke-miterlimit="1.4142" version="1.1" viewBox="0 0 24 24" width="16px" height="16px"
     xml:space="preserve" xmlns="http://www.w3.org/2000/svg">
    <path d="M 1,19.260657 H 22.968108 V 5.1383012 H 11.959843 L 9.9383992,3.116435 C 9.1935075,2.4481407 8.2427303,2.0542611 7.243462,2 H 1.080466 C 1.0360259,2 1,2.0360259 1,2.080466 Z" fill="#ffb300" fill-rule="nonzero"/>
    <path d="m20.911 14.422c-0.44835-2.2681-2.4461-3.9758-4.8461-3.9758-1.9055 0-3.5604 1.0813-4.3846 2.6571-1.9846 0.21758-3.5274 1.8923-3.5274 3.9362a3.956 3.956 0 0 0 3.956 3.956h8.5714a3.2967 3.2967 0 0 0 3.2967 -3.2967c0-1.7406-1.3516-3.1516-3.0659-3.2769z" fill="#ffecb3" stroke-width=".65934"/>
</svg>
