<svg xmlns="http://www.w3.org/2000/svg" clip-rule="evenodd" fill-rule="evenodd" stroke-linejoin="round"
     stroke-miterlimit="1.414" viewBox="0 0 24 24" width="16px" height="16px">
    <path fill="#607D8B"
          d="M 1,19.260657 H 22.968108 V 5.1383012 H 11.959843 L 9.9383992,3.116435 C 9.1935075,2.4481407 8.2427303,2.0542611 7.243462,2 H 1.080466 C 1.0360259,2 1,2.0360259 1,2.080466 Z"
          fill-rule="nonzero"/>
    <path fill="#CFD8DC"
          d="M13.065 12.56H11.25a.607.607 0 0 0-.605.605v7.264c0 .333.272.605.605.605h1.816a.607.607 0 0 0 .605-.605v-7.264a.607.607 0 0 0-.605-.605zm8.474 0h-1.816a.607.607 0 0 0-.605.605v7.264c0 .333.272.605.605.605h1.816a.607.607 0 0 0 .605-.605v-7.264a.607.607 0 0 0-.605-.605zm-4.237 0h-1.816a.607.607 0 0 0-.605.605v7.264c0 .333.272.605.605.605h1.816a.607.607 0 0 0 .605-.605v-7.264a.607.607 0 0 0-.605-.605z"/>
</svg>