<svg clip-rule="evenodd" fill-rule="evenodd" stroke-linejoin="round" stroke-miterlimit="1.414" version="1.1"
     viewBox="0 0 24 24" xmlns="http://www.w3.org/2000/svg" width="16px" height="16px">
    <path d="M 1,19.260657 H 22.968108 V 5.1383012 H 11.959843 L 9.9383992,3.116435 C 9.1935075,2.4481407 8.2427303,2.0542611 7.243462,2 H 1.080466 C 1.0360259,2 1,2.0360259 1,2.080466 Z"
          fill="#00BCD4" fill-rule="nonzero"/>
    <path d="m17.51 14.937h3.9322v.96533h-3.9322zm0-1.6082h3.9322v.96533h-3.9322zm0 3.2163h3.9322v.96533h-3.9322zm4.4944-6.7541h-10.114c-.6181 0-1.1233.57941-1.1233 1.2867v8.3633c0 .70733.50523 1.2857 1.1233 1.2857h10.115c.61702 0 1.1233-.57834 1.1233-1.2867v-8.3633c0-.70626-.50523-1.2857-1.1244-1.2857zm0 9.649h-5.0566v-8.3633h5.0566z"
          style="fill:#b2ebf2;stroke-width:1.075"/>
</svg>
