<?xml version="1.0" encoding="UTF-8"?>
<svg clip-rule="evenodd" fill-rule="evenodd" stroke-linejoin="round" stroke-miterlimit="1.4142" version="1.1"
     viewBox="0 0 24 24" xml:space="preserve" xmlns="http://www.w3.org/2000/svg" width="16px" height="16px">
    <path d="M 1,19.260657 H 22.968108 V 5.1383012 H 11.959843 L 9.9383992,3.116435 C 9.1935075,2.4481407 8.2427303,2.0542611 7.243462,2 H 1.080466 C 1.0360259,2 1,2.0360259 1,2.080466 Z"
          fill="#42a5f5" fill-rule="nonzero"/>
    <g transform="matrix(.67606 0 0 .67606 9.1073 7.3873)" fill="#bbdefb"><path d="m5 3l-0.65 3.34h13.59l-0.44 2.16h-13.58l-0.66 3.33h13.59l-0.76 3.81-5.48 1.81-4.75-1.81 0.33-1.64h-3.34l-0.79 4 7.85 3 9.05-3 1.2-6.03 0.24-1.21 1.54-7.76h-16.94z" fill="#bbdefb" fill-rule="nonzero"/></g></svg>
