<?xml version="1.0" encoding="UTF-8"?>
<svg clip-rule="evenodd" fill-rule="evenodd" stroke-linejoin="round"
     stroke-miterlimit="1.4142" version="1.1" viewBox="0 0 24 24" width="16px" height="16px"
     xml:space="preserve" xmlns="http://www.w3.org/2000/svg">
    <path d="M 1,19.260657 H 22.968108 V 5.1383012 H 11.959843 L 9.9383992,3.116435 C 9.1935075,2.4481407 8.2427303,2.0542611 7.243462,2 H 1.080466 C 1.0360259,2 1,2.0360259 1,2.080466 Z" fill="#e57373" fill-rule="nonzero"/>
    <path d="m18.575 11.113h-2.5763v-1.2881h2.5763m3.8644 1.2881h-2.5763v-1.2881l-1.2881-1.2881h-2.5763l-1.2881 1.2881v1.2881h-2.5763c-0.71492 0-1.2881 0.57322-1.2881 1.2881v7.0847a1.2881 1.2881 0 0 0 1.2881 1.2881h10.305a1.2881 1.2881 0 0 0 1.2881 -1.2881v-7.0847c0-0.71492-0.57966-1.2881-1.2881-1.2881z" fill="#ffcdd2" stroke-width=".64407"/>
</svg>
