<svg style="enable-background:new 0 0 24 24" version="1.1" viewBox="0 0 24 24" xml:space="preserve"
     xmlns="http://www.w3.org/2000/svg" width="16px" height="16px">
    <path class="st0" d="M 1,19.260657 H 22.968108 V 5.1383012 H 11.959843 L 9.9383992,3.116435 C 9.1935075,2.4481407 8.2427303,2.0542611 7.243462,2 H 1.080466 C 1.0360259,2 1,2.0360259 1,2.080466 Z"
          style="fill:#ef5350"/>
    <path d="m17.79 15.89h-1.18v-3.54h1.18m0 5.9h-1.18v-1.18h1.18m-.59-7.67a5.9 5.9 0 0 0-5.9 5.9 5.9 5.9 0 0 0 5.9 5.9 5.9 5.9 0 0 0 5.9-5.9 5.9 5.9 0 0 0-5.9-5.9z"
          style="fill:#ffcdd2;stroke-width:.59"/>
</svg>
