<?xml version="1.0" encoding="utf-8"?>
<!-- Generator: Adobe Illustrator 23.0.4, SVG Export Plug-In . SVG Version: 6.00 Build 0)  -->
<svg version="1.1" id="Camada_1" xmlns="http://www.w3.org/2000/svg" x="0px" y="0px"
     viewBox="0 0 24 24" width="16px" height="16px" xml:space="preserve">
    <path fill="#66BB6A" class="st0"
          d="M 1,19.260657 H 22.968108 V 5.1383012 H 11.959843 L 9.9383992,3.116435 C 9.1935075,2.4481407 8.2427303,2.0542611 7.243462,2 H 1.080466 C 1.0360259,2 1,2.0360259 1,2.080466 Z"/>
    <g>
	<path fill="#C8E6C9" class="st1" d="M22,20.5v0.6H10.5v-0.6l1.3-1.3v-3.8c0-2,1.3-3.7,3.2-4.3c0-0.1,0-0.1,0-0.2c0-0.7,0.6-1.3,1.3-1.3
		s1.3,0.6,1.3,1.3c0,0.1,0,0.1,0,0.2c1.9,0.6,3.2,2.3,3.2,4.3v3.8L22,20.5 M17.5,21.8c0,0.7-0.6,1.3-1.3,1.3s-1.3-0.6-1.3-1.3"/>
</g>
</svg>