<svg clip-rule="evenodd" fill-rule="evenodd" stroke-linejoin="round" stroke-miterlimit="1.414" version="1.1"
     viewBox="0 0 24 24" xmlns="http://www.w3.org/2000/svg" width="16px" height="16px">
    <path d="M 1,19.260657 H 22.968108 V 5.1383012 H 11.959843 L 9.9383992,3.116435 C 9.1935075,2.4481407 8.2427303,2.0542611 7.243462,2 H 1.080466 C 1.0360259,2 1,2.0360259 1,2.080466 Z"
          fill="#009688" fill-rule="nonzero"/>
    <path d="M21.524 10.3h-8.556c-.672 0-1.222.55-1.222 1.222v8.556c0 .672.55 1.222 1.222 1.222h8.556c.672 0 1.222-.55 1.222-1.222v-8.556c0-.672-.55-1.222-1.222-1.222zm-8.556 1.216h1.834c0 1.015-.82 1.84-1.834 1.84zm0 4.284v-1.222a3.062 3.062 0 0 0 3.056-3.062h1.222a4.28 4.28 0 0 1-4.278 4.284zm0 3.667l2.14-2.75 1.527 1.84 2.139-2.757 2.75 3.667z"
          fill="#80CBC4" style="fill:#b2dfdb"/>
</svg>
