<?xml version="1.0" encoding="UTF-8"?>
<svg clip-rule="evenodd" fill-rule="evenodd" stroke-linejoin="round"
	 stroke-miterlimit="1.4142" version="1.1" viewBox="0 0 24 24"
	      width="16px" height="16px"

	 xml:space="preserve" xmlns="http://www.w3.org/2000/svg">
	<path d="M 1,19.260657 H 22.968108 V 5.1383012 H 11.959843 L 9.9383992,3.116435 C 9.1935075,2.4481407 8.2427303,2.0542611 7.243462,2 H 1.080466 C 1.0360259,2 1,2.0360259 1,2.080466 Z" fill="#01579b" fill-rule="nonzero"/>
	<g transform="translate(-40.252 111.06)">
		<path class="st0" d="m58.827-101.24c-0.489-0.74516-0.60543-0.84412-1.6009-0.84412h-0.01165-0.01164c-0.99548 0-1.1061 0.099-1.6009 0.84412-0.4599 0.69857-5.0239 9.0582-5.0239 9.2911 0 0.33765 0.08732 0.65783 0.40168 1.1119 0.32018 0.4599 0.87322 0.71604 1.2749 0.30854 0.27361-0.27361 3.2018-5.3208 4.6164-7.2303 0.16882-0.23868 0.51811-0.23868 0.69276 0 1.4146 1.9094 4.3428 6.9567 4.6164 7.2303 0.40168 0.4075 0.95473 0.15136 1.2749-0.30854 0.31436-0.45408 0.40168-0.77426 0.40168-1.1119-0.0059-0.23286-4.5699-8.5983-5.0298-9.2911z" clip-rule="evenodd" fill="#1173b6" fill-rule="evenodd" stroke-linejoin="round" stroke-miterlimit="1.4142" stroke-width=".058215"/>
	</g>
</svg>
