<svg clip-rule="evenodd" fill-rule="evenodd" stroke-linejoin="round" stroke-miterlimit="1.4142" version="1.1"
     viewBox="0 0 24 24" width="16px" height="16px" xml:space="preserve"
     xmlns="http://www.w3.org/2000/svg">
    <path d="M 1,19.260657 H 22.968108 V 5.1383012 H 11.959843 L 9.9383992,3.116435 C 9.1935075,2.4481407 8.2427303,2.0542611 7.243462,2 H 1.080466 C 1.0360259,2 1,2.0360259 1,2.080466 Z"
          fill="#43a047"/>
    <path d="m17.871 8.1989-5.5932 2.4859v3.7288c0 3.4492 2.3864 6.6746 5.5932 7.4576 3.2068-.78305 5.5932-4.0085 5.5932-7.4576v-3.7288l-5.5932-2.4859m0 3.7288c.87006 0 1.7401.68362 1.7401 1.5537v.9322c.37288 0 .74576.37288.74576.80791v2.1751c0 .37288-.37288.74576-.80791.74576h-3.4181c-.37288 0-.74576-.37288-.74576-.80791v-2.1751c0-.37288.37288-.74576.74576-.74576v-.9322c0-.87006.87006-1.5537 1.7401-1.5537m0 .74576c-.49718 0-.9322.31073-.9322.80791v.9322h1.8644v-.9322c0-.49718-.43503-.80791-.9322-.80791z"
          fill="#c8e6c9" style="stroke-width:.62147"/>
</svg>