<svg clip-rule="evenodd" fill-rule="evenodd" stroke-linejoin="round" stroke-miterlimit="1.4142" version="1.1"
     viewBox="0 0 24 24" xml:space="preserve" xmlns="http://www.w3.org/2000/svg" width="16px" height="16px">
    <path d="M 1,19.260657 H 22.968108 V 5.1383012 H 11.959843 L 9.9383992,3.116435 C 9.1935075,2.4481407 8.2427303,2.0542611 7.243462,2 H 1.080466 C 1.0360259,2 1,2.0360259 1,2.080466 Z"
          fill="#e57373" fill-rule="nonzero" style="fill:#afb42b"/>
    <path d="m20.671 9.434c-.32465 0-.63704.11638-.87594.35527l-3.5589 3.565 3.4609 3.4609 3.565-3.5589c.47166-.47778.47166-1.2496 0-1.7335l-1.7396-1.7335c-.23889-.23889-.54516-.35527-.85143-.35527m-5.0228 4.5022-3.6508 3.6507c-.47778.47778-.47778 1.2496.01225 1.7457-.7473.75343-1.5069 1.5069-2.2603 2.2603h3.467l.52679-.52679c.47778.46553 1.2435.45941 1.7212-.01225l3.6446-3.6507"
          fill="#f0f4c3"/></svg>
