<svg xmlns="http://www.w3.org/2000/svg" clip-rule="evenodd" fill-rule="evenodd" stroke-linejoin="round"
     stroke-miterlimit="1.414" viewBox="0 0 24 24" width="16px" height="16px">
    <path fill="#9575CD"
          d="M 1,19.260657 H 22.968108 V 5.1383012 H 11.959843 L 9.9383992,3.116435 C 9.1935075,2.4481407 8.2427303,2.0542611 7.243462,2 H 1.080466 C 1.0360259,2 1,2.0360259 1,2.080466 Z"
          fill-rule="nonzero"/>
    <path fill="#D1C4E9"
          d="M16.5 13.85c-3.312 0-6 1.344-6 3 0 1.344 1.764 2.478 4.2 2.862v1.938l2.4-2.4-2.4-2.4v1.638c-1.89-.336-3-1.14-3-1.638 0-.636 1.824-1.8 4.8-1.8s4.8 1.164 4.8 1.8c0 .438-.876 1.134-2.4 1.518v1.23c2.118-.462 3.6-1.518 3.6-2.748 0-1.656-2.688-3-6-3z"/>
</svg>