<svg clip-rule="evenodd" fill-rule="evenodd" stroke-linejoin="round" stroke-miterlimit="1.4142" version="1.1"
     viewBox="0 0 24 24" xml:space="preserve" xmlns="http://www.w3.org/2000/svg" width="16px" height="16px">
    <path d="M 1,19.260657 H 22.968108 V 5.1383012 H 11.959843 L 9.9383992,3.116435 C 9.1935075,2.4481407 8.2427303,2.0542611 7.243462,2 H 1.080466 C 1.0360259,2 1,2.0360259 1,2.080466 Z"
          fill="#e57373" fill-rule="nonzero" style="fill:#78909c"/>
    <path d="m23.395 13.464v-1.8011h-3.6023a1.8011 1.8011 0 0 0 -1.8011 1.8011v1.8011a1.8011 1.8011 0 0 0 1.8011 1.8011h1.8011v1.8011h-3.6023v1.8011h3.6023a1.8011 1.8011 0 0 0 1.8011 -1.8011v-1.8011a1.8011 1.8011 0 0 0 -1.8011 -1.8011h-1.8011v-1.8011m-4.5028 5.4034h-1.8011v-5.4034h1.8011m0-1.8011h-1.8011a1.8011 1.8011 0 0 0 -1.8011 1.8011v5.4034a1.8011 1.8011 0 0 0 1.8011 1.8011h1.8011a1.8011 1.8011 0 0 0 1.8011 -1.8011v-5.4034a1.8011 1.8011 0 0 0 -1.8011 -1.8011m-6.3039 9.0056h1.8011v-5.4034h-1.8011m0-1.8011h1.8011v-1.8011h-1.8011z"
          style="fill:#cfd8dc;stroke-width:.90056"/></svg>