<?xml version="1.0" encoding="UTF-8"?>
<svg clip-rule="evenodd" fill-rule="evenodd" stroke-linejoin="round"
          width="16px" height="16px"
     stroke-miterlimit="1.4142" version="1.1" viewBox="0 0 24 24"
     xml:space="preserve" xmlns="http://www.w3.org/2000/svg">
    <path d="M 1,19.260657 H 22.968108 V 5.1383012 H 11.959843 L 9.9383992,3.116435 C 9.1935075,2.4481407 8.2427303,2.0542611 7.243462,2 H 1.080466 C 1.0360259,2 1,2.0360259 1,2.080466 Z" fill="#607D8B" fill-rule="nonzero"/>
    <g fill="#CFD8DC">
        <path d="m9.875 11.625q3.828 0.472 6.563 0.469 2.69-3e-3 6.437-0.469v1.719q-3.747 0.466-6.437 0.469-2.735 2e-3 -6.563-0.469v-1.719z"/>
        <path d="m12.844 13.008l-0.875 8.508 1.906-8e-3 0.281-8-1.312-0.5z"/>
        <path d="m19.688 13l0.851 8.5h-1.883l-0.281-8 1.313-0.5z"/>
        <rect x="9.797" y="15.172" width="13" height="1"/>
        <rect x="15.797" y="13" width="1" height="2.375"/>
    </g>
</svg>
