<svg xmlns="http://www.w3.org/2000/svg" clip-rule="evenodd" fill-rule="evenodd" stroke-linejoin="round"
     stroke-miterlimit="1.414" viewBox="0 0 24 24" width="16px" height="16px">
    <path fill="#AB47BC"
          d="M 1,19.260657 H 22.968108 V 5.1383012 H 11.959843 L 9.9383992,3.116435 C 9.1935075,2.4481407 8.2427303,2.0542611 7.243462,2 H 1.080466 C 1.0360259,2 1,2.0360259 1,2.080466 Z"
          fill-rule="nonzero"/>
    <path fill="#E1BEE7"
          d="M21.3 12.46H19v-1.15c0-.317-.127-.604-.34-.811a1.124 1.124 0 0 0-.81-.34h-2.3c-.633 0-1.15.518-1.15 1.15v1.15h-2.3c-.633 0-1.15.518-1.15 1.15v6.326c0 .632.517 1.15 1.15 1.15h9.2c.632 0 1.15-.518 1.15-1.15V13.61c0-.633-.518-1.15-1.15-1.15zm-5.75-1.15h2.3v1.15h-2.3zm.574 7.762l-.575-.575 1.725-1.725-1.725-1.725.575-.575 2.3 2.3z"/>
</svg>