<?xml version="1.0" encoding="UTF-8"?>
<svg clip-rule="evenodd" fill-rule="evenodd" stroke-linejoin="round"
     stroke-miterlimit="1.4142" version="1.1" viewBox="0 0 24 24" height="16px" width="16px"
     xml:space="preserve" xmlns="http://www.w3.org/2000/svg">
    <path d="M 1,19.260657 H 22.968108 V 5.1383012 H 11.959843 L 9.9383992,3.116435 C 9.1935075,2.4481407 8.2427303,2.0542611 7.243462,2 H 1.080466 C 1.0360259,2 1,2.0360259 1,2.080466 Z" fill="#6CAC23" fill-rule="nonzero"/>
    <path d="m17.39 12.544a2.0508 2.0508 0 0 0 2.0508 -2.0508 2.0508 2.0508 0 0 0 -2.0508 -2.0508 2.0508 2.0508 0 0 0 -2.0508 2.0508 2.0508 2.0508 0 0 0 2.0508 2.0508m0 2.42c-1.6133-1.4971-3.7599-2.42-6.1525-2.42v7.5198c2.3927 0 4.5392 0.92288 6.1525 2.42 1.6133-1.4971 3.7599-2.42 6.1525-2.42v-7.5198c-2.3927 0-4.5392 0.92288-6.1525 2.42z" fill="#A5D6A7" stroke-width=".68362"/>
</svg>
