<svg xmlns="http://www.w3.org/2000/svg" clip-rule="evenodd" fill-rule="evenodd" stroke-linejoin="round"
     stroke-miterlimit="1.414" viewBox="0 0 24 24" width="16px" height="16px">
    <path fill="#00BCD4"
          d="M 1,19.260657 H 22.968108 V 5.1383012 H 11.959843 L 9.9383992,3.116435 C 9.1935075,2.4481407 8.2427303,2.0542611 7.243462,2 H 1.080466 C 1.0360259,2 1,2.0360259 1,2.080466 Z"
          fill-rule="nonzero"/>
    <path fill="#B2EBF2"
          d="M12.2 12.6h-1.1v7.7c0 .605.495 1.1 1.1 1.1h7.7v-1.1h-7.7zm8.8-2.2h-6.6c-.605 0-1.1.495-1.1 1.1v6.6c0 .605.495 1.1 1.1 1.1H21c.605 0 1.1-.495 1.1-1.1v-6.6c0-.605-.495-1.1-1.1-1.1zm-.55 4.95h-5.5v-1.1h5.5zm-2.2 2.2h-3.3v-1.1h3.3zm2.2-4.4h-5.5v-1.1h5.5z"/>
</svg>