<svg clip-rule="evenodd" fill-rule="evenodd"
     stroke-linejoin="round" stroke-miterlimit="1.4142" version="1.1"
     viewBox="0 0 24 24" width="16px" height="16px"
     xml:space="preserve" xmlns="http://www.w3.org/2000/svg">
    <path d="M 1,19.260657 H 22.968108 V 5.1383012 H 11.959843 L 9.9383992,3.116435 C 9.1935075,2.4481407 8.2427303,2.0542611 7.243462,2 H 1.080466 C 1.0360259,2 1,2.0360259 1,2.080466 Z"
          fill="#e57373" fill-rule="nonzero" style="fill:#5c6bc0"/>
    <path d="m12.276 14.245h.92216v-2.4591c0-.6824.5533-1.2295 1.2295-1.2295h2.4591v-.92216a1.5369 1.5369 0 0 1 1.5369 -1.5369 1.5369 1.5369 0 0 1 1.5369 1.5369v.92216h2.4591a1.2295 1.2295 0 0 1 1.2295 1.2295v2.3361h-.92216c-.92216 0-1.6599.73773-1.6599 1.6599 0 .92216.73773 1.6599 1.6599 1.6599h.92216v2.3361a1.2295 1.2295 0 0 1 -1.2295 1.2295h-2.3361v-.92216c0-.92216-.73773-1.6599-1.6599-1.6599-.92216 0-1.6599.73773-1.6599 1.6599v.92216h-2.3361a1.2295 1.2295 0 0 1 -1.2295 -1.2295v-2.4591h-.92216a1.5369 1.5369 0 0 1 -1.5369 -1.5369 1.5369 1.5369 0 0 1 1.5369 -1.5369z"
          style="fill:#c5cae9;stroke-width:.61477"/>
</svg>