<svg clip-rule="evenodd" fill-rule="evenodd" stroke-linejoin="round" stroke-miterlimit="1.4142" version="1.1"
     viewBox="0 0 24 24" xml:space="preserve" xmlns="http://www.w3.org/2000/svg" width="16px" height="16px">
    <path d="M 1,19.260657 H 22.968108 V 5.1383012 H 11.959843 L 9.9383992,3.116435 C 9.1935075,2.4481407 8.2427303,2.0542611 7.243462,2 H 1.080466 C 1.0360259,2 1,2.0360259 1,2.080466 Z"
          fill="#00897b" fill-rule="nonzero"/>
    <path d="m23.284 16.949h-1.2881v1.2881h-3.8642v-1.9321h1.2881v-1.2881h-1.2881v-3.2202a1.2881 1.2881 0 0 0-1.2881-1.2881h-5.1523v-1.2881h-1.2881v5.1523h1.2881v-1.2881h3.8642v1.9321h-1.2881v1.2881h1.2881v3.2202a1.2881 1.2881 0 0 0 1.2881 1.2881h5.1523v1.2881h1.2881"
          fill="#b2dfdb"/>
</svg>
