<svg xmlns="http://www.w3.org/2000/svg" clip-rule="evenodd" fill-rule="evenodd" stroke-linejoin="round"
     stroke-miterlimit="1.414" viewBox="0 0 24 24" width="16px" height="16px">
    <path fill="#FBC02D"
          d="M 1,19.260657 H 22.968108 V 5.1383012 H 11.959843 L 9.9383992,3.116435 C 9.1935075,2.4481407 8.2427303,2.0542611 7.243462,2 H 1.080466 C 1.0360259,2 1,2.0360259 1,2.080466 Z"
          fill-rule="nonzero"/>
    <path fill="#FFFDE7"
          d="M22.5 13.667v-1.223h-1.2v-1.222c0-.672-.54-1.222-1.2-1.222h-8.4c-.66 0-1.2.55-1.2 1.222v8.556c0 .672.54 1.222 1.2 1.222h8.4c.66 0 1.2-.55 1.2-1.222v-1.222h1.2v-1.223h-1.2v-1.222h1.2V14.89h-1.2v-1.222zm-2.4 6.11h-8.4v-8.555h8.4zm-7.2-3.666h3v2.445h-3zm3.6-3.667h2.4v1.834h-2.4zm-3.6 0h3V15.5h-3zm3.6 2.445h2.4v3.667h-2.4z"/>
</svg>