<svg clip-rule="evenodd" fill-rule="evenodd" stroke-linejoin="round" stroke-miterlimit="1.4142" version="1.1"
     viewBox="0 0 24 24" xml:space="preserve" xmlns="http://www.w3.org/2000/svg" width="16px" height="16px">
    <path d="M 1,19.260657 H 22.968108 V 5.1383012 H 11.959843 L 9.9383992,3.116435 C 9.1935075,2.4481407 8.2427303,2.0542611 7.243462,2 H 1.080466 C 1.0360259,2 1,2.0360259 1,2.080466 Z"
          fill="#e57373" fill-rule="nonzero" style="fill:#ff5252"/>
    <path d="m17.249 9.2605c-3.2806 0-5.9431 2.6625-5.9431 5.9431 0 3.2806 2.6626 5.9431 5.9431 5.9431 3.2806 0 5.9431-2.6626 5.9431-5.9431 0-3.2806-2.6626-5.9431-5.9431-5.9431zm0 10.697c-2.6268 0-4.7545-2.1276-4.7545-4.7545 0-1.0994.37441-2.1098 1.0044-2.9121l6.6623 6.6623c-.80232.62997-1.8127 1.0044-2.9121 1.0044zm3.7501-1.8424-6.6623-6.6623c.80232-.62996 1.8127-1.0044 2.9121-1.0044 2.6268 0 4.7545 2.1276 4.7545 4.7545 0 1.0994-.37441 2.1098-1.0044 2.9121z"
          style="fill:#ffcdd2;stroke-width:.59431"/>
</svg>
