<?xml version="1.0" encoding="UTF-8"?>
<svg version="1.1" xmlns="http://www.w3.org/2000/svg"
     viewBox="0 0 24 24" width="16px" height="16px"
     xml:space="preserve">
     <path d="M 1,19.260657 H 22.968108 V 5.1383012 H 11.959843 L 9.9383992,3.116435 C 9.1935075,2.4481407 8.2427303,2.0542611 7.243462,2 H 1.080466 C 1.0360259,2 1,2.0360259 1,2.080466 Z"
           fill="#F26B00" fill-rule="nonzero"/>
    <g fill="#FFECB3" transform="translate(2 6)">
        <path
                d="M8.32,9.33c0,0.86-0.7,1.56-1.56,1.56c-0.86,0-1.56-0.7-1.56-1.56s0.7-1.56,1.56-1.56C7.62,7.76,8.32,8.46,8.32,9.33"/>
        <path
                d="M11.45,16.37c-1.15,0-2.09-0.94-2.09-2.09s0.94-2.09,2.09-2.09h3.95c0.68,0,1.23-0.55,1.23-1.23c0-0.68-0.55-1.23-1.23-1.23H6.76c-0.24,0-0.43-0.19-0.43-0.43c0-0.24,0.19-0.43,0.43-0.43h8.64c1.15,0,2.09,0.94,2.09,2.09s-0.94,2.09-2.09,2.09h-3.95c-0.68,0-1.23,0.55-1.23,1.23c0,0.68,0.55,1.23,1.23,1.23h8.73c0.24,0,0.43,0.19,0.43,0.43c0,0.24-0.19,0.43-0.43,0.43L11.45,16.37L11.45,16.37z"/>
        <path
                d="M18.62,15.94c0-0.86,0.7-1.56,1.56-1.56c0.86,0,1.56,0.7,1.56,1.56c0,0.86-0.7,1.56-1.56,1.56C19.32,17.5,18.62,16.8,18.62,15.94"/>
    </g>
</svg>