<svg clip-rule="evenodd" fill-rule="evenodd" stroke-linejoin="round" stroke-miterlimit="1.4142" version="1.1"
     viewBox="0 0 24 24" xml:space="preserve" xmlns="http://www.w3.org/2000/svg" width="16px" height="16px">
    <path d="M 1,19.260657 H 22.968108 V 5.1383012 H 11.959843 L 9.9383992,3.116435 C 9.1935075,2.4481407 8.2427303,2.0542611 7.243462,2 H 1.080466 C 1.0360259,2 1,2.0360259 1,2.080466 Z"
          fill="#2196f3" fill-rule="nonzero"/>
    <path d="m17.22 14.68a1.7651 1.7651 0 0 0 -1.7651 1.7651 1.7651 1.7651 0 0 0 1.7651 1.7651 1.7651 1.7651 0 0 0 1.7651 -1.7651 1.7651 1.7651 0 0 0 -1.7651 -1.7651m0 4.707a2.9419 2.9419 0 0 1 -2.9419 -2.9419 2.9419 2.9419 0 0 1 2.9419 -2.9419 2.9419 2.9419 0 0 1 2.9419 2.9419 2.9419 2.9419 0 0 1 -2.9419 2.9419m0-7.3547c-2.9419 0-5.4542 1.8298-6.4721 4.4128 1.0179 2.583 3.5302 4.4128 6.4721 4.4128 2.9419 0 5.4542-1.8298 6.4721-4.4128-1.0179-2.583-3.5302-4.4128-6.4721-4.4128z"
          style="fill:#bbdefb;stroke-width:.58837"/>
</svg>
