<svg xmlns="http://www.w3.org/2000/svg" clip-rule="evenodd" fill-rule="evenodd" stroke-linejoin="round"
     stroke-miterlimit="1.414" viewBox="0 0 24 24" width="16px" height="16px">
    <path d="M 1,19.260657 H 22.968108 V 5.1383012 H 11.959843 L 9.9383992,3.116435 C 9.1935075,2.4481407 8.2427303,2.0542611 7.243462,2 H 1.080466 C 1.0360259,2 1,2.0360259 1,2.080466 Z"
          fill="#009688" fill-rule="nonzero"/>
    <path d="M12.375 11.124V9.549h1.05v1.575H15v1.05h-1.575v1.575h-1.05v-1.575H10.8v-1.05zm1.575 3.15v-1.575h1.575v-1.575H19.2l.96 1.05h1.665c.578 0 1.05.473 1.05 1.05v6.3c0 .578-.472 1.05-1.05 1.05h-8.4c-.578 0-1.05-.473-1.05-1.05v-5.25zm3.675 4.725a2.626 2.626 0 0 0 0-5.25 2.626 2.626 0 0 0 0 5.25zm-1.68-2.625c0 .93.75 1.68 1.68 1.68.93 0 1.68-.75 1.68-1.68 0-.93-.75-1.68-1.68-1.68-.93 0-1.68.75-1.68 1.68z"
          fill-rule="nonzero" fill="#b2dfdb"/>
</svg>