<svg clip-rule="evenodd" fill-rule="evenodd" stroke-linejoin="round" stroke-miterlimit="1.4142" version="1.1"
     width="16px" height="16px"
     viewBox="0 0 24 24" xml:space="preserve" xmlns="http://www.w3.org/2000/svg">
    <path d="M 1,19.260657 H 22.968108 V 5.1383012 H 11.959843 L 9.9383992,3.116435 C 9.1935075,2.4481407 8.2427303,2.0542611 7.243462,2 H 1.080466 C 1.0360259,2 1,2.0360259 1,2.080466 Z"
          fill="#e57373" fill-rule="nonzero" style="fill:#f9a825"/>
    <path d="m19.017 17.774a1.1955 1.1955 0 0 0 1.1955 -1.1955c0-.66351-.53798-1.1955-1.1955-1.1955a1.1955 1.1955 0 0 0 -1.1955 1.1955 1.1955 1.1955 0 0 0 1.1955 1.1955m3.5865-5.3798a1.1955 1.1955 0 0 1 1.1955 1.1955v5.9776a1.1955 1.1955 0 0 1 -1.1955 1.1955h-7.1731a1.1955 1.1955 0 0 1 -1.1955 -1.1955v-5.9776c0-.66351.53798-1.1955 1.1955-1.1955h.59776v-1.1955a2.9888 2.9888 0 0 1 2.9888 -2.9888 2.9888 2.9888 0 0 1 2.9888 2.9888v1.1955h.59776m-3.5865-2.9888a1.7933 1.7933 0 0 0 -1.7933 1.7933v1.1955h3.5865v-1.1955a1.7933 1.7933 0 0 0 -1.7933 -1.7933z"
          fill="#fff9c4"/>
</svg>
