<svg xmlns="http://www.w3.org/2000/svg" clip-rule="evenodd" fill-rule="evenodd" stroke-linejoin="round"
     stroke-miterlimit="1.414" viewBox="0 0 24 24" width="16px" height="16px">
    <path fill="#66BB6A"
          d="M 1,19.260657 H 22.968108 V 5.1383012 H 11.959843 L 9.9383992,3.116435 C 9.1935075,2.4481407 8.2427303,2.0542611 7.243462,2 H 1.080466 C 1.0360259,2 1,2.0360259 1,2.080466 Z"
          fill-rule="nonzero"/>
    <path fill="#C8E6C9"
          d="M21.355 19.603c.61 0 1.103-.498 1.103-1.108l.006-5.542c0-.615-.499-1.108-1.109-1.108h-8.867c-.615 0-1.108.493-1.108 1.108v5.542c0 .61.493 1.108 1.108 1.108h-2.216v1.109h13.3v-1.109zm-3.88-1.956v-1.213c-1.54 0-2.554.47-3.325 1.507.31-1.48 1.17-2.954 3.326-3.253v-1.18l2.216 2.067z"/>
</svg>