<svg viewBox="0 0 24 24" xmlns="http://www.w3.org/2000/svg" clip-rule="evenodd" fill-rule="evenodd"
     stroke-linejoin="round" stroke-miterlimit="1.414" width="16px" height="16px">
    <path d="M 1,19.260657 H 22.968108 V 5.1383012 H 11.959843 L 9.9383992,3.116435 C 9.1935075,2.4481407 8.2427303,2.0542611 7.243462,2 H 1.080466 C 1.0360259,2 1,2.0360259 1,2.080466 Z"
          fill-rule="nonzero" fill="#AD1457"/>
    <g fill-rule="nonzero" fill="#F48FB1" transform="scale(1.2) translate(-3 -3)">
        <path d="M22.3 10.39l-.746.056v1.462l-.665-.285-.664.285v-1.364l-5.15.38.443 9.36 6.783.325zm-3.488 1.926c1.267 0 1.995.691 1.959 2.093l-1.446.036c.026-.755-.297-.827-.477-.827-.17 0-.458.054-.458.458 0 .997 2.461.943 2.461 2.955 0 1.132-.88 1.653-2.003 1.653-1.158 0-2.173-.395-2.057-2.129h1.518c-.018.7.135.953.521.953.297 0 .432-.171.432-.459 0-1.024-2.426-1.06-2.426-2.937 0-1.078.71-1.796 1.976-1.796z"/>
        <path d="M14.49 10.924H13.7l.332 9.36h.902z" fill="#ba68c8"/>
    </g>
</svg>