<?xml version="1.0" encoding="UTF-8"?>
<svg clip-rule="evenodd" fill-rule="evenodd" stroke-linejoin="round" stroke-miterlimit="1.4142"
     version="1.1" viewBox="0 0 24 24" width="16px" height="16px"
     xml:space="preserve" xmlns="http://www.w3.org/2000/svg">
    <path d="M 1,19.260657 H 22.968108 V 5.1383012 H 11.959843 L 9.9383992,3.116435 C 9.1935075,2.4481407 8.2427303,2.0542611 7.243462,2 H 1.080466 C 1.0360259,2 1,2.0360259 1,2.080466 Z" fill="#795774" fill-rule="nonzero"/>
<path id="file_type_shell.svg" class="i-color" fill="#AA759F"
          d="M13.992,2H2a0.961,0.961,0,0,0-1,.916v9.165a0.961,0.961,0,0,0,1,.917h12a0.961,0.961,0,0,0,1-.917V2.912A0.961,0.961,0,0,0,13.992,2ZM3,8.411L5,6.578,3,4.745l1-.916,3,2.75L4,9.327Zm8,0.917h-4V8.411h4V9.327Z"
          transform="translate(8 9)"/>
</svg>
