<svg clip-rule="evenodd" fill-rule="evenodd" stroke-linejoin="round" stroke-miterlimit="1.4142" version="1.1"
     viewBox="0 0 24 24" xml:space="preserve" xmlns="http://www.w3.org/2000/svg" width="16px" height="16px">
    <path d="M 1,19.260657 H 22.968108 V 5.1383012 H 11.959843 L 9.9383992,3.116435 C 9.1935075,2.4481407 8.2427303,2.0542611 7.243462,2 H 1.080466 C 1.0360259,2 1,2.0360259 1,2.080466 Z"
          fill="#78909C"/>
    <path fill="#CFD8DC"
          d="m18.648 14.536-7.2169 7.2105-.89492-.89492 7.2105-7.2169.90131.90131m2.8637-1.8474.37714-.37714-.50499-.50499.40911-.40911-.9077-.9077-.40911.40911-.50499-.50499-.37714.37714c-1.1123-.9077-2.3651-1.6364-3.7075-2.1478l-.53056 1.1442c1.1186.58809 2.1478 1.2976 3.1066 2.135l-.31961.31961 1.9177 1.9177.31961-.31961c.83739.95884 1.5469 1.988 2.135 3.1066l1.1442-.53056c-.51138-1.3424-1.2401-2.5953-2.1478-3.7075z"/>
</svg>