<svg clip-rule="evenodd" fill-rule="evenodd" stroke-linejoin="round" stroke-miterlimit="1.414" version="1.1"
     viewBox="0 0 24 24" xmlns="http://www.w3.org/2000/svg" width="16px" height="16px">
    <path d="M 1,19.260657 H 22.968108 V 5.1383012 H 11.959843 L 9.9383992,3.116435 C 9.1935075,2.4481407 8.2427303,2.0542611 7.243462,2 H 1.080466 C 1.0360259,2 1,2.0360259 1,2.080466 Z"
          fill="#7CB342" fill-rule="nonzero"/>
    <path d="m13.314 11.766h-1.1222v7.8554c0 .61774.50446 1.1222 1.1222 1.1222h7.8554v-1.1222h-7.8554zm8.9776-2.2444h-6.7332c-.61668 0-1.1222.50446-1.1222 1.1222v6.7332c0 .61774.50552 1.1222 1.1222 1.1222h6.7332c.61774 0 1.1222-.50446 1.1222-1.1222v-6.7332c0-.61774-.50446-1.1222-1.1222-1.1222zm-.5611 5.0499h-2.2444v2.2444h-1.1222v-2.2444h-2.2444v-1.1222h2.2444v-2.2444h1.1222v2.2444h2.2444z"
          style="fill:#dcedc8;stroke-width:1.0688"/>
</svg>
