<svg clip-rule="evenodd" fill-rule="evenodd" stroke-linejoin="round"
     stroke-miterlimit="1.4142" version="1.1" viewBox="0 0 24 24" width="16px" height="16px"
     xml:space="preserve" xmlns="http://www.w3.org/2000/svg">
    <path d="M 1,19.260657 H 22.968108 V 5.1383012 H 11.959843 L 9.9383992,3.116435 C 9.1935075,2.4481407 8.2427303,2.0542611 7.243462,2 H 1.080466 C 1.0360259,2 1,2.0360259 1,2.080466 Z" style="fill-rule:nonzero;fill:#FFEB3B"/>
<g transform="matrix(.65434 0 0 .65434 3.2169 2.9566)" style="fill:#ffccbc">
    <path d="m14.167 28.901l-1.685-18.901h18.516l-1.687 18.898-7.582 2.102-7.562-2.099zm6.823-4.89l-6-3.607v-1.307l6-3.608v2.023l-3.828 2.238 3.828 2.239v2.022zm1.5-.002v-2.021l3.855-2.238-3.855-2.237v-2.022l6 3.591v1.336l-6 3.591z" style="fill:#FFF9C4"/>
</g>
</svg>
