<?xml version="1.0" encoding="UTF-8" standalone="no"?>
<svg
   xmlns:dc="http://purl.org/dc/elements/1.1/"
   xmlns:cc="http://creativecommons.org/ns#"
   xmlns:rdf="http://www.w3.org/1999/02/22-rdf-syntax-ns#"
   xmlns:svg="http://www.w3.org/2000/svg"
   xmlns="http://www.w3.org/2000/svg"
   xmlns:sodipodi="http://sodipodi.sourceforge.net/DTD/sodipodi-0.dtd"
   xmlns:inkscape="http://www.inkscape.org/namespaces/inkscape"
   version="1.1"
   width="13px"
   height="13px"
   viewBox="0 0 24 24"
   id="svg4"
   sodipodi:docname="toolWindowFind_dark.svg"
   inkscape:version="0.92.3 (unknown)">
  <metadata
     id="metadata10">
    <rdf:RDF>
      <cc:Work
         rdf:about="">
        <dc:format>image/svg+xml</dc:format>
        <dc:type
           rdf:resource="http://purl.org/dc/dcmitype/StillImage" />
      </cc:Work>
    </rdf:RDF>
  </metadata>
  <defs
     id="defs8" />
  <sodipodi:namedview
     pagecolor="#ffffff"
     bordercolor="#666666"
     borderopacity="1"
     objecttolerance="10"
     gridtolerance="10"
     guidetolerance="10"
     inkscape:pageopacity="0"
     inkscape:pageshadow="2"
     inkscape:window-width="861"
     inkscape:window-height="491"
     id="namedview6"
     showgrid="false"
     inkscape:zoom="11.313709"
     inkscape:cx="4.2299939"
     inkscape:cy="3.1040097"
     inkscape:window-x="67"
     inkscape:window-y="27"
     inkscape:window-maximized="0"
     inkscape:current-layer="svg4" />
  <path
     style="fill:#e0e0e0;stroke-width:0.54166669"
     d="M 3.25 1.0839844 C 2.6516915 1.0839844 2.1660156 1.5677071 2.1660156 2.1660156 L 2.1660156 10.833984 C 2.1660156 11.432293 2.6516915 11.916016 3.25 11.916016 L 9.75 11.916016 C 9.99375 11.916016 10.210365 11.834635 10.394531 11.699219 L 8.0039062 9.3105469 C 7.5589641 9.6275778 7.1113746 9.8901954 6.6660156 10.185547 C 5.8061615 9.6153279 4.9349381 9.1727004 4.0957031 8.2089844 C 3.2737064 7.0500593 3.6389133 5.5598228 4.8105469 5.4492188 C 4.9779231 5.4334189 5.1621887 5.4467146 5.3613281 5.4921875 C 6.05231 5.6500552 6.5257462 5.9620104 6.6660156 6.0390625 C 6.8061935 5.9619416 7.2777686 5.6499663 7.96875 5.4921875 C 9.5618442 5.1284004 10.173798 6.8844983 9.234375 8.2089844 C 9.1020308 8.3609551 8.9676667 8.4807763 8.8339844 8.609375 L 10.833984 10.611328 L 10.833984 4.3339844 L 7.5839844 1.0839844 L 3.25 1.0839844 z M 5.5175781 6.4707031 C 4.7926838 6.5391351 4.5656465 7.4607031 5.0742188 8.1777344 C 5.5934571 8.7739891 6.1340204 9.0475934 6.6660156 9.4003906 C 7.1979962 9.0475934 7.736609 8.7739902 8.2558594 8.1777344 C 8.8370845 7.3582702 8.4583103 6.2710177 7.4726562 6.4960938 C 7.0451431 6.5937124 6.752744 6.7862744 6.6660156 6.8339844 C 6.5792314 6.7863123 6.2849345 6.5937676 5.8574219 6.4960938 C 5.7342133 6.4679379 5.621134 6.460926 5.5175781 6.4707031 z "
     transform="scale(1.8461538)"
     id="path2" />
</svg>
