<?xml version="1.0" encoding="UTF-8" standalone="no"?>
<svg
    xmlns:dc="http://purl.org/dc/elements/1.1/"
    xmlns:cc="http://creativecommons.org/ns#"
    xmlns:rdf="http://www.w3.org/1999/02/22-rdf-syntax-ns#"
    xmlns:svg="http://www.w3.org/2000/svg"
    xmlns="http://www.w3.org/2000/svg"
    xmlns:sodipodi="http://sodipodi.sourceforge.net/DTD/sodipodi-0.dtd"
    xmlns:inkscape="http://www.inkscape.org/namespaces/inkscape"
    version="1.1"
    viewBox="0 0 24 24"
    width="16px"
    height="16px"
    id="svg4"
    sodipodi:docname="settings.svg"
    inkscape:version="0.92.3 (unknown)">
    <metadata
        id="metadata10">
        <rdf:RDF>
            <cc:Work
                rdf:about="">
                <dc:format>image/svg+xml</dc:format>
                <dc:type
                    rdf:resource="http://purl.org/dc/dcmitype/StillImage" />
            </cc:Work>
        </rdf:RDF>
    </metadata>
    <defs
        id="defs8" />
    <sodipodi:namedview
        pagecolor="#ffffff"
        bordercolor="#666666"
        borderopacity="1"
        objecttolerance="10"
        gridtolerance="10"
        guidetolerance="10"
        inkscape:pageopacity="0"
        inkscape:pageshadow="2"
        inkscape:window-width="640"
        inkscape:window-height="491"
        id="namedview6"
        showgrid="false"
        showguides="false"
        inkscape:zoom="5.6568543"
        inkscape:cx="23.623593"
        inkscape:cy="4.1209992"
        inkscape:window-x="1239"
        inkscape:window-y="274"
        inkscape:window-maximized="0"
        inkscape:current-layer="svg4" />
    <path
        style="fill:#81C784;stroke-width:0.66666669"
        d="M 6.6679688 1.3339844 C 6.5013021 1.3339844 6.360651 1.4532813 6.3339844 1.6132812 L 6.0878906 3.3808594 C 5.6678906 3.547526 5.3076042 3.7732031 4.9609375 4.0332031 L 3.3007812 3.3671875 C 3.1541146 3.3071875 2.9745313 3.3670052 2.8945312 3.5136719 L 1.5605469 5.8203125 C 1.4738802 5.9669792 1.5139583 6.1460937 1.640625 6.2460938 L 3.0488281 7.3339844 C 3.0221615 7.560651 3.0019531 7.78 3.0019531 8 C 3.0019531 8.22 3.0221615 8.433151 3.0488281 8.6464844 L 1.640625 9.7539062 C 1.5139583 9.8539062 1.4738802 10.033021 1.5605469 10.179688 L 2.8945312 12.486328 C 2.9745313 12.632995 3.1541146 12.686146 3.3007812 12.632812 L 4.9609375 11.960938 C 5.3076042 12.227604 5.6678906 12.452474 6.0878906 12.619141 L 6.3339844 14.386719 C 6.360651 14.546719 6.5013021 14.666016 6.6679688 14.666016 L 9.3339844 14.666016 C 9.500651 14.666016 9.6413021 14.546719 9.6679688 14.386719 L 9.9140625 12.619141 C 10.334063 12.445807 10.694349 12.227604 11.041016 11.960938 L 12.701172 12.632812 C 12.847839 12.686146 13.027422 12.632995 13.107422 12.486328 L 14.441406 10.179688 C 14.521406 10.033021 14.487995 9.8539063 14.361328 9.7539062 L 12.955078 8.6464844 C 12.981745 8.433151 13.001953 8.22 13.001953 8 C 13.001953 7.78 12.981745 7.560651 12.955078 7.3339844 L 14.361328 6.2460938 C 14.487995 6.1460937 14.521406 5.9669792 14.441406 5.8203125 L 13.107422 3.5136719 C 13.027422 3.3670052 12.847839 3.3071875 12.701172 3.3671875 L 11.041016 4.0332031 C 10.694349 3.7732031 10.334063 3.547526 9.9140625 3.3808594 L 9.6679688 1.6132812 C 9.6413021 1.4532813 9.500651 1.3339844 9.3339844 1.3339844 L 6.6679688 1.3339844 z M 6.125 5.7070312 C 6.300819 5.6904334 6.4939406 5.7041863 6.703125 5.7519531 C 7.4289617 5.9177875 7.924921 6.245232 8.0722656 6.3261719 C 8.2195156 6.2451603 8.717524 5.9176925 9.4433594 5.7519531 C 11.116811 5.3698188 11.760248 7.2141741 10.773438 8.6054688 C 9.8918462 9.6177981 8.975469 10.084612 8.0722656 10.683594 C 7.1690396 10.084612 6.2546145 9.6177981 5.3730469 8.6054688 C 4.5095874 7.3880859 4.8942669 5.8232163 6.125 5.7070312 z "
        transform="scale(1.5)"
        id="path2" />
</svg>
