<?xml version="1.0" encoding="UTF-8" standalone="no"?>
<svg
   xmlns:dc="http://purl.org/dc/elements/1.1/"
   xmlns:cc="http://creativecommons.org/ns#"
   xmlns:rdf="http://www.w3.org/1999/02/22-rdf-syntax-ns#"
   xmlns:svg="http://www.w3.org/2000/svg"
   xmlns="http://www.w3.org/2000/svg"
   xmlns:sodipodi="http://sodipodi.sourceforge.net/DTD/sodipodi-0.dtd"
   xmlns:inkscape="http://www.inkscape.org/namespaces/inkscape"
   version="1.1"
   width="13px"
   height="13px"
   viewBox="0 0 24 24"
   id="svg4"
   sodipodi:docname="toolWindowFind.svg"
   inkscape:version="0.92.3 (unknown)">
  <metadata
     id="metadata10">
    <rdf:RDF>
      <cc:Work
         rdf:about="">
        <dc:format>image/svg+xml</dc:format>
        <dc:type
           rdf:resource="http://purl.org/dc/dcmitype/StillImage" />
      </cc:Work>
    </rdf:RDF>
  </metadata>
  <defs
     id="defs8" />
  <sodipodi:namedview
     pagecolor="#ffffff"
     bordercolor="#666666"
     borderopacity="1"
     objecttolerance="10"
     gridtolerance="10"
     guidetolerance="10"
     inkscape:pageopacity="0"
     inkscape:pageshadow="2"
     inkscape:window-width="863"
     inkscape:window-height="491"
     id="namedview6"
     showgrid="false"
     inkscape:zoom="25.673415"
     inkscape:cx="10.038546"
     inkscape:cy="3.9970689"
     inkscape:window-x="1153"
     inkscape:window-y="578"
     inkscape:window-maximized="0"
     inkscape:current-layer="svg4" />
  <path
     style="fill:#757575;stroke-width:0.54166669"
     d="M 3.25 1.1230469 C 2.6516915 1.1230469 2.1660156 1.6067696 2.1660156 2.2050781 L 2.1660156 10.873047 C 2.1660156 11.471355 2.6516915 11.955078 3.25 11.955078 L 9.75 11.955078 C 9.99375 11.955078 10.210365 11.873698 10.394531 11.738281 L 8.0058594 9.2148438 C 7.6782113 9.4305419 7.350525 9.636599 7.0234375 9.8535156 C 6.1635834 9.2832966 5.29236 8.8406691 4.453125 7.8769531 C 3.6311282 6.718028 3.9963351 5.2277915 5.1679688 5.1171875 C 5.3353449 5.1013876 5.5196106 5.1146833 5.71875 5.1601562 C 6.409732 5.3180239 6.883168 5.6299792 7.0234375 5.7070312 C 7.1636154 5.6299104 7.6351905 5.3179351 8.3261719 5.1601562 C 9.9192661 4.7963691 10.53122 6.5524671 9.5917969 7.8769531 C 9.3349701 8.1718671 9.0738179 8.409093 8.8125 8.625 L 10.833984 10.650391 L 10.833984 4.3730469 L 7.5839844 1.1230469 L 3.25 1.1230469 z M 5.875 6.1386719 C 5.1501058 6.2071039 4.9230685 7.1286719 5.4316406 7.8457031 C 5.950879 8.4419579 6.4914423 8.7155616 7.0234375 9.0683594 C 7.5554181 8.7155621 8.0940309 8.441959 8.6132812 7.8457031 C 9.1945064 7.0262389 8.8157322 5.938987 7.8300781 6.1640625 C 7.402565 6.2616811 7.1101654 6.4542431 7.0234375 6.5019531 C 6.9366533 6.454281 6.6423563 6.2617364 6.2148438 6.1640625 C 6.0916352 6.1359067 5.9785558 6.1288894 5.875 6.1386719 z "
     transform="scale(1.8461538)"
     id="path2" />
</svg>
