<?xml version="1.0" encoding="UTF-8" standalone="no"?>
<svg
   xmlns:dc="http://purl.org/dc/elements/1.1/"
   xmlns:cc="http://creativecommons.org/ns#"
   xmlns:rdf="http://www.w3.org/1999/02/22-rdf-syntax-ns#"
   xmlns:svg="http://www.w3.org/2000/svg"
   xmlns="http://www.w3.org/2000/svg"
   xmlns:sodipodi="http://sodipodi.sourceforge.net/DTD/sodipodi-0.dtd"
   xmlns:inkscape="http://www.inkscape.org/namespaces/inkscape"
   version="1.1"
   width="16px"
   height="16px"
   viewBox="0 0 24 24"
   id="svg4"
   sodipodi:docname="sourceRoot.svg"
   inkscape:version="0.92.3 (unknown)">
  <metadata
     id="metadata10">
    <rdf:RDF>
      <cc:Work
         rdf:about="">
        <dc:format>image/svg+xml</dc:format>
        <dc:type
           rdf:resource="http://purl.org/dc/dcmitype/StillImage" />
      </cc:Work>
    </rdf:RDF>
  </metadata>
  <defs
     id="defs8" />
  <sodipodi:namedview
     pagecolor="#ffffff"
     bordercolor="#666666"
     borderopacity="1"
     objecttolerance="10"
     gridtolerance="10"
     guidetolerance="10"
     inkscape:pageopacity="0"
     inkscape:pageshadow="2"
     inkscape:window-width="873"
     inkscape:window-height="491"
     id="namedview6"
     showgrid="false"
     inkscape:zoom="5.2149125"
     inkscape:cx="0.55474854"
     inkscape:cy="11.843823"
     inkscape:window-x="67"
     inkscape:window-y="27"
     inkscape:window-maximized="0"
     inkscape:current-layer="svg4" />
  <path
     style="fill:#82aaff;stroke-width:0.66666669"
     d="M 2.6660156 2.6660156 C 1.9260156 2.6660156 1.3339844 3.26 1.3339844 4 L 1.3339844 12 A 1.3333333 1.3333333 0 0 0 2.6660156 13.333984 L 13.333984 13.333984 A 1.3333333 1.3333333 0 0 0 14.666016 12 L 14.666016 5.3339844 C 14.666016 4.5939844 14.067318 4 13.333984 4 L 8 4 L 6.6660156 2.6660156 L 2.6660156 2.6660156 z M 8.0117188 6.6757812 C 8.1499521 6.6627317 8.3023308 6.673382 8.4667969 6.7109375 C 9.0374682 6.8413202 9.4290759 7.0984727 9.5449219 7.1621094 C 9.6606932 7.098416 10.050422 6.8412455 10.621094 6.7109375 C 11.936805 6.4104931 12.441871 7.8612061 11.666016 8.9550781 C 10.972886 9.7509975 10.255043 10.116955 9.5449219 10.587891 C 8.8347819 10.116955 8.1149857 9.7509975 7.421875 8.9550781 C 6.7430004 7.9979401 7.044085 6.7671284 8.0117188 6.6757812 z "
     transform="scale(1.5)"
     id="path2" />
</svg>
