<?xml version="1.0" encoding="UTF-8" standalone="no"?>
<svg
   xmlns:dc="http://purl.org/dc/elements/1.1/"
   xmlns:cc="http://creativecommons.org/ns#"
   xmlns:rdf="http://www.w3.org/1999/02/22-rdf-syntax-ns#"
   xmlns:svg="http://www.w3.org/2000/svg"
   xmlns="http://www.w3.org/2000/svg"
   xmlns:sodipodi="http://sodipodi.sourceforge.net/DTD/sodipodi-0.dtd"
   xmlns:inkscape="http://www.inkscape.org/namespaces/inkscape"
   clip-rule="evenodd"
   fill-rule="evenodd"
   stroke-linejoin="round"
   stroke-miterlimit="1.4142"
   version="1.1"
   viewBox="0 0 24 24"
   width="16px"
   height="16px"
   xml:space="preserve"
   id="svg6"
   sodipodi:docname="ddlc.svg"
   inkscape:version="0.92.3 (unknown)"><metadata
   id="metadata12"><rdf:RDF><cc:Work
       rdf:about=""><dc:format>image/svg+xml</dc:format><dc:type
         rdf:resource="http://purl.org/dc/dcmitype/StillImage" /><dc:title></dc:title></cc:Work></rdf:RDF></metadata><defs
   id="defs10" /><sodipodi:namedview
   pagecolor="#ffffff"
   bordercolor="#666666"
   borderopacity="1"
   objecttolerance="10"
   gridtolerance="10"
   guidetolerance="10"
   inkscape:pageopacity="0"
   inkscape:pageshadow="2"
   inkscape:window-width="863"
   inkscape:window-height="491"
   id="namedview8"
   showgrid="false"
   inkscape:zoom="5.2149125"
   inkscape:cx="32.125192"
   inkscape:cy="11.111836"
   inkscape:window-x="67"
   inkscape:window-y="27"
   inkscape:window-maximized="0"
   inkscape:current-layer="svg6" />
    <path
   d="m10 4h-6c-1.11 0-2 .89-2 2v12c0 1.097.903 2 2 2h16c1.097 0 2-.903 2-2v-10c0-1.11-.9-2-2-2h-8l-2-2z"
   fill="#00acc1"
   fill-rule="nonzero"
   style="fill:#f49ae5;fill-opacity:1"
   id="path2" />
    <circle
   style="fill:#fee6f3;fill-opacity:1;stroke:#fbbedf;stroke-width:0.92350894;stroke-linecap:round;stroke-linejoin:round;stroke-miterlimit:4.69999981;stroke-dasharray:none;stroke-opacity:1"
   id="path2540"
   cx="16.198011"
   cy="14.884555"
   r="7.0588918" /><path
   style="fill:#7bd4f4;fill-opacity:1;stroke:#7bd4f4;stroke-width:0.65985024;stroke-linecap:round;stroke-linejoin:miter;stroke-miterlimit:4;stroke-dasharray:none;stroke-dashoffset:0;stroke-opacity:1"
   d="m 16.344344,13.024946 c 0.199861,-0.109797 0.873721,-0.553997 1.858314,-0.778829 2.270034,-0.518361 3.142641,1.984519 1.804057,3.871783 -1.195854,1.373219 -2.437164,2.004043 -3.662371,2.816556 -1.225203,-0.812513 -2.466512,-1.443337 -3.662367,-2.816556 -1.338586,-1.887264 -0.465977,-4.390144 1.804056,-3.871783 0.984593,0.224832 1.658455,0.669032 1.858311,0.778829"
   id="path2548"
   inkscape:connector-curvature="0"
   sodipodi:nodetypes="cscccsc" /><path
   sodipodi:nodetypes="cscccsc"
   inkscape:connector-curvature="0"
   id="path1445"
   d="m 16.344344,13.024946 c 0.199861,-0.109797 0.873721,-0.553997 1.858314,-0.778829 2.270034,-0.518361 3.142641,1.984519 1.804057,3.871783 -1.195854,1.373219 -2.437164,2.004043 -3.662371,2.816556 -1.225203,-0.812513 -2.466512,-1.443337 -3.662367,-2.816556 -1.338586,-1.887264 -0.465977,-4.390144 1.804056,-3.871783 0.984593,0.224832 1.658455,0.669032 1.858311,0.778829"
   style="fill:#7bd4f4;fill-opacity:1;stroke:#558bba;stroke-width:0.16496256;stroke-linecap:round;stroke-linejoin:miter;stroke-miterlimit:4;stroke-dasharray:0.9897754, 0.9897754;stroke-dashoffset:0;stroke-opacity:1" /></svg>