<?xml version="1.0" encoding="UTF-8" standalone="no"?>
<!-- Created with Inkscape (http://www.inkscape.org/) -->

<svg
   xmlns:dc="http://purl.org/dc/elements/1.1/"
   xmlns:cc="http://creativecommons.org/ns#"
   xmlns:rdf="http://www.w3.org/1999/02/22-rdf-syntax-ns#"
   xmlns:svg="http://www.w3.org/2000/svg"
   xmlns="http://www.w3.org/2000/svg"
   xmlns:sodipodi="http://sodipodi.sourceforge.net/DTD/sodipodi-0.dtd"
   xmlns:inkscape="http://www.inkscape.org/namespaces/inkscape"
   width="16px"
   height="16px"
   viewBox="0 0 32 32"
   version="1.1"
   id="SVGRoot"
   inkscape:version="0.92.4 (f8dce91, 2019-08-02)"
   sodipodi:docname="menagerieTheme.svg">
  <sodipodi:namedview
     id="base"
     pagecolor="#ffffff"
     bordercolor="#666666"
     borderopacity="1.0"
     inkscape:pageopacity="0.0"
     inkscape:pageshadow="2"
     inkscape:zoom="11.313709"
     inkscape:cx="5.4288086"
     inkscape:cy="2.5105817"
     inkscape:document-units="px"
     inkscape:current-layer="layer1"
     showgrid="false"
     inkscape:window-width="863"
     inkscape:window-height="802"
     inkscape:window-x="1991"
     inkscape:window-y="139"
     inkscape:window-maximized="0"
     inkscape:grid-bbox="true" />
  <defs
     id="defs1981" />
  <metadata
     id="metadata1984">
    <rdf:RDF>
      <cc:Work
         rdf:about="">
        <dc:format>image/svg+xml</dc:format>
        <dc:type
           rdf:resource="http://purl.org/dc/dcmitype/StillImage" />
        <dc:title></dc:title>
      </cc:Work>
    </rdf:RDF>
  </metadata>
  <g
     id="layer1"
     inkscape:groupmode="layer"
     inkscape:label="Layer 1">
    <path
       style="fill:#7bd4f4;fill-opacity:1;stroke:#7bd4f4;stroke-width:1.37946367;stroke-linecap:round;stroke-linejoin:miter;stroke-miterlimit:4;stroke-dasharray:none;stroke-dashoffset:0;stroke-opacity:1"
       d="m 16.072513,12.246649 c 0.417824,-0.229539 1.826576,-1.158171 3.884937,-1.628198 4.745667,-1.08367 6.569915,4.148779 3.771509,8.094237 -2.500018,2.87081 -5.095063,4.189593 -7.656446,5.888209 C 13.51114,22.902281 10.916096,21.583498 8.4160756,18.712688 5.6176661,14.76723 7.4419189,9.534781 12.187583,10.618451 c 2.058362,0.470027 3.467117,1.398659 3.88493,1.628198"
       id="path2548"
       inkscape:connector-curvature="0"
       sodipodi:nodetypes="cscccsc" />
    <path
       sodipodi:nodetypes="cscccsc"
       inkscape:connector-curvature="0"
       id="path1445"
       d="M 16.167182,8.3812445 C 16.862571,7.9992213 19.207167,6.4536916 22.632913,5.6714217 30.531166,3.867861 33.567277,12.576267 28.909868,19.142725 24.749066,23.920637 20.430112,26.115499 16.167182,28.942519 11.904268,26.115499 7.5853155,23.920637 3.4245114,19.142725 -1.232904,12.576267 1.8032145,3.867861 9.701461,5.6714217 c 3.425749,0.7822699 5.770352,2.3277996 6.465721,2.7098228"
       style="fill:#c27bf4;fill-opacity:1;stroke:#a055ba;stroke-width:0.57396311;stroke-linecap:round;stroke-linejoin:miter;stroke-miterlimit:4;stroke-dasharray:3.44377883, 3.44377883;stroke-dashoffset:0;stroke-opacity:1" />
  </g>
</svg>
