<?xml version="1.0" encoding="UTF-8" standalone="no"?>
<svg
   xmlns:dc="http://purl.org/dc/elements/1.1/"
   xmlns:cc="http://creativecommons.org/ns#"
   xmlns:rdf="http://www.w3.org/1999/02/22-rdf-syntax-ns#"
   xmlns:svg="http://www.w3.org/2000/svg"
   xmlns="http://www.w3.org/2000/svg"
   xmlns:sodipodi="http://sodipodi.sourceforge.net/DTD/sodipodi-0.dtd"
   xmlns:inkscape="http://www.inkscape.org/namespaces/inkscape"
   version="1.1"
   width="16px"
   height="16px"
   viewBox="0 0 24 24"
   id="svg4"
   sodipodi:docname="closeHover.svg"
   inkscape:version="0.92.3 (unknown)">
  <metadata
     id="metadata10">
    <rdf:RDF>
      <cc:Work
         rdf:about="">
        <dc:format>image/svg+xml</dc:format>
        <dc:type
           rdf:resource="http://purl.org/dc/dcmitype/StillImage" />
        <dc:title></dc:title>
      </cc:Work>
    </rdf:RDF>
  </metadata>
  <defs
     id="defs8" />
  <sodipodi:namedview
     pagecolor="#ffffff"
     bordercolor="#666666"
     borderopacity="1"
     objecttolerance="10"
     gridtolerance="10"
     guidetolerance="10"
     inkscape:pageopacity="0"
     inkscape:pageshadow="2"
     inkscape:window-width="853"
     inkscape:window-height="491"
     id="namedview6"
     showgrid="false"
     inkscape:pagecheckerboard="true"
     inkscape:zoom="14.75"
     inkscape:cx="8"
     inkscape:cy="8"
     inkscape:window-x="67"
     inkscape:window-y="27"
     inkscape:window-maximized="0"
     inkscape:current-layer="svg4" />
  <path
     inkscape:connector-curvature="0"
     style="fill-opacity:1;stroke:none;stroke-width:1.86735058;stroke-linecap:round;stroke-linejoin:miter;stroke-miterlimit:4.69999981;stroke-dasharray:none;stroke-opacity:0.94117647;fill:#ffffff"
     d="M 6.0157822,3.3056641 C 0.7085359,2.9126872 -1.1562011,9.1647026 2.2394151,13.952148 c 3.2357047,3.715644 6.5959325,5.421615 9.9111329,7.620117 3.315113,-2.198502 6.672413,-3.90447 9.908202,-7.620117 C 25.680736,8.8455396 23.320126,2.0729957 17.177892,3.4755859 14.513781,4.0839127 12.691014,5.2846869 12.150548,5.5820312 11.609735,5.2849551 9.787313,4.0842552 7.1232042,3.4755859 6.7393092,3.3879241 6.3695986,3.3318625 6.0157822,3.3056641 Z M 17.403476,3.560547 v 0.032226 c -0.01305,-0.00837 -0.02503,-0.018057 -0.03808,-0.026367 0.0129,-0.00225 0.02523,-0.00357 0.03808,-0.00587 z M 8.4122667,7 12.001134,10.591797 15.59,7 17.002109,8.4121095 13.410313,12.000977 17.002109,15.589843 15.59,17.001952 12.001134,13.410156 8.4122667,17.001952 7.0001572,15.589843 10.591954,12.000977 7.0001572,8.4121095 Z"
     id="path845" />
</svg>
