<?xml version="1.0" encoding="UTF-8" standalone="no"?>
<svg
   xmlns:dc="http://purl.org/dc/elements/1.1/"
   xmlns:cc="http://creativecommons.org/ns#"
   xmlns:rdf="http://www.w3.org/1999/02/22-rdf-syntax-ns#"
   xmlns:svg="http://www.w3.org/2000/svg"
   xmlns="http://www.w3.org/2000/svg"
   xmlns:sodipodi="http://sodipodi.sourceforge.net/DTD/sodipodi-0.dtd"
   xmlns:inkscape="http://www.inkscape.org/namespaces/inkscape"
   version="1.1"
   width="16px"
   height="16px"
   viewBox="0 0 24 24"
   fill="#E57373"
   id="svg8"
   sodipodi:docname="colDotIndex.svg"
   inkscape:version="0.92.3 (unknown)">
  <metadata
     id="metadata14">
    <rdf:RDF>
      <cc:Work
         rdf:about="">
        <dc:format>image/svg+xml</dc:format>
        <dc:type
           rdf:resource="http://purl.org/dc/dcmitype/StillImage" />
      </cc:Work>
    </rdf:RDF>
  </metadata>
  <defs
     id="defs12" />
  <sodipodi:namedview
     pagecolor="#ffffff"
     bordercolor="#666666"
     borderopacity="1"
     objecttolerance="10"
     gridtolerance="10"
     guidetolerance="10"
     inkscape:pageopacity="0"
     inkscape:pageshadow="2"
     inkscape:window-width="863"
     inkscape:window-height="491"
     id="namedview10"
     showgrid="false"
     inkscape:zoom="14.75"
     inkscape:cx="8"
     inkscape:cy="8"
     inkscape:window-x="114"
     inkscape:window-y="466"
     inkscape:window-maximized="0"
     inkscape:current-layer="svg8" />
  <path
     d="M8,2H16A2,2 0 0,1 18,4V20A2,2 0 0,1 16,22H8A2,2 0 0,1 6,20V4A2,2 0 0,1 8,2M8,10V14H16V10H8M8,16V20H16V16H8M8,4V8H16V4H8Z"
     id="path2" />
  <circle
     fill="#00FF00"
     stroke="#000000"
     r="3"
     cx="20"
     cy="20"
     id="circle4" />
  <path
     inkscape:connector-curvature="0"
     style="fill:#fdd835;stroke:#000000;stroke-width:0.5"
     d="m 14.998048,1.647458 c -0.276142,0 -0.500976,0.224834 -0.500976,0.500976 v 3.0000001 c 0,0.2761429 0.224834,0.4980469 0.500976,0.4980469 h 7.998048 c 0.27614,0 0.500975,-0.221904 0.500975,-0.4980469 V 2.148434 c 0,-0.276142 -0.224835,-0.500976 -0.500975,-0.500976 z m 1.400391,0.814453 c 0.09315,-0.0088 0.196798,-0.0019 0.307616,0.02344 0.384528,0.08785 0.648505,0.261808 0.726562,0.304687 0.07802,-0.04291 0.339107,-0.216884 0.723633,-0.304687 C 19.042794,2.282907 19.385088,3.2629319 18.862305,4 18.395265,4.536301 17.911108,4.7813091 17.432617,5.098632 16.954116,4.7813091 16.467029,4.5362999 16,4 15.542567,3.355065 15.746433,2.523464 16.398439,2.461914 Z m -1.400391,4.186523 c -0.276142,0 -0.500976,0.2219051 -0.500976,0.498047 v 3 c 0,0.276143 0.224834,0.500977 0.500976,0.500977 h 7.998048 c 0.27614,0 0.500975,-0.224834 0.500975,-0.500977 v -3 c 0,-0.2761419 -0.224835,-0.498047 -0.500975,-0.498047 z m 1.49121,0.9023441 c 0.08934,-0.0084 0.186679,-8.34e-4 0.292971,0.02344 0.368811,0.084259 0.622396,0.251842 0.697263,0.292969 0.07482,-0.04116 0.325528,-0.2087539 0.694338,-0.292969 0.850311,-0.1941699 1.178173,0.7432521 0.676758,1.450195 C 18.402634,9.538795 17.938427,9.7747471 17.479492,10.079101 17.020549,9.7747471 16.55341,9.538795 16.105471,9.0244141 15.666731,8.405839 15.863902,7.609816 16.489258,7.5507811 Z"
     id="path54" />
</svg>
