<?xml version="1.0" encoding="UTF-8" standalone="no"?>
<svg
   xmlns:dc="http://purl.org/dc/elements/1.1/"
   xmlns:cc="http://creativecommons.org/ns#"
   xmlns:rdf="http://www.w3.org/1999/02/22-rdf-syntax-ns#"
   xmlns:svg="http://www.w3.org/2000/svg"
   xmlns="http://www.w3.org/2000/svg"
   xmlns:sodipodi="http://sodipodi.sourceforge.net/DTD/sodipodi-0.dtd"
   xmlns:inkscape="http://www.inkscape.org/namespaces/inkscape"
   version="1.1"
   width="16px"
   height="16px"
   fill="#81D4FA"
   viewBox="0 0 24 24"
   id="svg30"
   sodipodi:docname="colGoldKeyDot.svg"
   inkscape:version="0.92.3 (unknown)">
  <metadata
     id="metadata36">
    <rdf:RDF>
      <cc:Work
         rdf:about="">
        <dc:format>image/svg+xml</dc:format>
        <dc:type
           rdf:resource="http://purl.org/dc/dcmitype/StillImage" />
      </cc:Work>
    </rdf:RDF>
  </metadata>
  <defs
     id="defs34" />
  <sodipodi:namedview
     pagecolor="#ffffff"
     bordercolor="#666666"
     borderopacity="1"
     objecttolerance="10"
     gridtolerance="10"
     guidetolerance="10"
     inkscape:pageopacity="0"
     inkscape:pageshadow="2"
     inkscape:window-width="640"
     inkscape:window-height="491"
     id="namedview32"
     showgrid="false"
     inkscape:zoom="14.75"
     inkscape:cx="8"
     inkscape:cy="8"
     inkscape:window-x="67"
     inkscape:window-y="27"
     inkscape:window-maximized="0"
     inkscape:current-layer="svg30" />
  <path
     inkscape:connector-curvature="0"
     style="fill:#fdd835;stroke-width:1"
     d="m 6.9980484,5.9990234 c -3.3137085,0 -6,2.6862915 -6,5.9999996 0,3.313709 2.6862915,6.000001 6,6.000001 2.61,0 4.8313666,-1.669023 5.6513666,-3.999024 H 17 v 3.999024 h 3.999024 V 14 H 23 V 9.9980468 H 12.649415 c -0.82,-2.33 -3.0413666,-3.9990234 -5.6513666,-3.9990234 z M 4.8212907,9.5791016 C 5.0286408,9.5595266 5.2542789,9.5725766 5.5009782,9.6289061 6.3569853,9.824478 6.9443967,10.213139 7.1181657,10.308594 7.2918225,10.213053 7.8764163,9.8243683 8.7324234,9.6289062 10.70599,9.1782389 11.46652,11.354308 10.302736,12.995117 9.2630424,14.188995 8.1833475,14.737933 7.1181657,15.444336 6.0529555,14.737933 4.9732622,14.188994 3.9335954,12.995117 2.9152834,11.559409 3.3698394,9.7161218 4.8212907,9.5791016 Z"
     id="path52" />
  <circle
     fill="#00FF00"
     stroke="#000000"
     r="3"
     cx="20"
     cy="20"
     id="circle28" />
</svg>
