<?xml version="1.0" encoding="UTF-8" standalone="no"?>
<svg
   xmlns:dc="http://purl.org/dc/elements/1.1/"
   xmlns:cc="http://creativecommons.org/ns#"
   xmlns:rdf="http://www.w3.org/1999/02/22-rdf-syntax-ns#"
   xmlns:svg="http://www.w3.org/2000/svg"
   xmlns="http://www.w3.org/2000/svg"
   xmlns:sodipodi="http://sodipodi.sourceforge.net/DTD/sodipodi-0.dtd"
   xmlns:inkscape="http://www.inkscape.org/namespaces/inkscape"
   version="1.1"
   width="16px"
   height="16px"
   viewBox="0 0 24 24"
   id="svg10"
   sodipodi:docname="colGoldBlueKeyDotIndex.svg"
   inkscape:version="0.92.3 (unknown)">
  <metadata
     id="metadata16">
    <rdf:RDF>
      <cc:Work
         rdf:about="">
        <dc:format>image/svg+xml</dc:format>
        <dc:type
           rdf:resource="http://purl.org/dc/dcmitype/StillImage" />
      </cc:Work>
    </rdf:RDF>
  </metadata>
  <defs
     id="defs14" />
  <sodipodi:namedview
     pagecolor="#ffffff"
     bordercolor="#666666"
     borderopacity="1"
     objecttolerance="10"
     gridtolerance="10"
     guidetolerance="10"
     inkscape:pageopacity="0"
     inkscape:pageshadow="2"
     inkscape:window-width="863"
     inkscape:window-height="491"
     id="namedview12"
     showgrid="false"
     inkscape:zoom="5.2149125"
     inkscape:cx="5.7159789"
     inkscape:cy="15.093052"
     inkscape:window-x="67"
     inkscape:window-y="157"
     inkscape:window-maximized="0"
     inkscape:current-layer="svg10" />
  <path
     inkscape:connector-curvature="0"
     style="fill:#fdd835;stroke-width:0.77966106"
     d="m 5.0265928,4.3310419 c -2.583569,0 -4.67796596,2.094397 -4.67796596,4.677966 0,2.5835701 2.09439696,4.6779661 4.67796596,4.6779661 2.034915,0 3.766828,-1.301271 4.40615,-3.117882 h 3.3919822 v 3.117882 h 3.117883 v -3.117882 h 1.560083 V 7.4489249 H 9.4327428 c -0.639322,-1.81661 -2.371235,-3.117883 -4.40615,-3.117883 z m -1.697133,2.791248 c 0.161663,-0.01526 0.337584,-0.0051 0.529926,0.03883 0.667395,0.152478 1.125377,0.455502 1.260858,0.529924 0.135393,-0.07449 0.591178,-0.377531 1.258573,-0.529925 1.538714,-0.351368 2.131669,1.345229 1.224312,2.624503 -0.810609,0.9308201 -1.652405,1.3588061 -2.482885,1.9095611 -0.830503,-0.550754 -1.672298,-0.97874 -2.482885,-1.9095601 -0.793939,-1.119365 -0.439539,-2.556505 0.692101,-2.663333 z"
     id="path52" />
  <path
     inkscape:connector-curvature="0"
     style="fill:#29b6f6;stroke-width:0.75"
     d="m 11.195243,10.448925 c -2.4852812,0 -4.5000002,2.014719 -4.5000002,4.5 0,2.48528 2.014719,4.499999 4.5000002,4.499999 1.9575,0 3.621328,-1.2525 4.236328,-3 h 3.263672 v 3 h 3 v -3 h 1.5 v -2.999999 h -7.763672 c -0.615,-1.7475 -2.278828,-3 -4.236328,-3 z m -1.584961,2.698242 c 0.156412,-0.01476 0.326602,-0.0015 0.512695,0.04102 0.645716,0.147527 1.087671,0.437762 1.21875,0.509766 0.130997,-0.07207 0.573034,-0.362322 1.21875,-0.509766 1.488729,-0.339955 2.061475,1.30232 1.183594,2.540038 -0.784276,0.900584 -1.598839,1.312839 -2.402344,1.845703 C 10.538204,17.04106 9.72657,16.628803 8.9423138,15.728221 8.1741658,14.645218 8.5154028,13.250525 9.610282,13.147167 Z"
     id="path4" />
  <circle
     fill="#00FF00"
     stroke="#000000"
     r="3"
     cx="20"
     cy="20"
     id="circle6" />
  <path
     inkscape:connector-curvature="0"
     style="fill:#fdd835;stroke:#000000;stroke-width:0.5"
     d="m 13.866056,1.4872671 c -0.276142,0 -0.500976,0.2248342 -0.500976,0.5009766 v 3.0000002 c 0,0.276142 0.224834,0.498047 0.500976,0.498047 h 7.998048 c 0.27614,0 0.500975,-0.221905 0.500975,-0.498047 V 1.9882437 c 0,-0.2761424 -0.224835,-0.5009766 -0.500975,-0.5009766 z m 1.400391,0.8144528 c 0.09315,-0.0088 0.196798,-0.0019 0.307616,0.02344 0.384528,0.08785 0.648506,0.261808 0.726563,0.304688 0.07802,-0.04291 0.339106,-0.216884 0.723633,-0.304688 0.886543,-0.202443 1.228837,0.777582 0.706054,1.514649 -0.46704,0.536302 -0.951196,0.78131 -1.429688,1.098633 -0.478501,-0.317323 -0.965588,-0.562332 -1.432616,-1.098633 -0.457434,-0.644934 -0.253568,-1.476535 0.398438,-1.538086 z m -1.400391,4.186524 c -0.276142,0 -0.500976,0.221904 -0.500976,0.498047 v 2.999999 c 0,0.2761431 0.224834,0.5009771 0.500976,0.5009771 h 7.998048 c 0.27614,0 0.500975,-0.224834 0.500975,-0.5009771 v -2.999999 c 0,-0.276143 -0.224835,-0.498047 -0.500975,-0.498047 z m 1.491211,0.902344 c 0.08934,-0.0084 0.186678,-8.34e-4 0.29297,0.02344 0.368811,0.08426 0.622396,0.251841 0.697264,0.292968 0.07482,-0.04116 0.325527,-0.208754 0.694337,-0.292968 0.850311,-0.19417 1.178173,0.743252 0.676758,1.450195 -0.447953,0.514382 -0.912161,0.750333 -1.371095,1.054688 -0.458944,-0.304354 -0.926083,-0.540306 -1.374022,-1.054688 -0.43874,-0.618575 -0.241569,-1.414597 0.383788,-1.473632 z"
     id="path54" />
</svg>
