<?xml version="1.0" encoding="UTF-8" standalone="no"?>
<svg
   xmlns:dc="http://purl.org/dc/elements/1.1/"
   xmlns:cc="http://creativecommons.org/ns#"
   xmlns:rdf="http://www.w3.org/1999/02/22-rdf-syntax-ns#"
   xmlns:svg="http://www.w3.org/2000/svg"
   xmlns="http://www.w3.org/2000/svg"
   xmlns:sodipodi="http://sodipodi.sourceforge.net/DTD/sodipodi-0.dtd"
   xmlns:inkscape="http://www.inkscape.org/namespaces/inkscape"
   version="1.1"
   width="16px"
   height="16px"
   fill="#81D4FA"
   viewBox="0 0 24 24"
   id="svg44"
   sodipodi:docname="colGoldKeyDotIndex.svg"
   inkscape:version="0.92.3 (unknown)">
  <metadata
     id="metadata50">
    <rdf:RDF>
      <cc:Work
         rdf:about="">
        <dc:format>image/svg+xml</dc:format>
        <dc:type
           rdf:resource="http://purl.org/dc/dcmitype/StillImage" />
        <dc:title></dc:title>
      </cc:Work>
    </rdf:RDF>
  </metadata>
  <defs
     id="defs48" />
  <sodipodi:namedview
     pagecolor="#ffffff"
     bordercolor="#666666"
     borderopacity="1"
     objecttolerance="10"
     gridtolerance="10"
     guidetolerance="10"
     inkscape:pageopacity="0"
     inkscape:pageshadow="2"
     inkscape:window-width="640"
     inkscape:window-height="491"
     id="namedview46"
     showgrid="false"
     inkscape:zoom="29.5"
     inkscape:cx="8.3579913"
     inkscape:cy="10.368422"
     inkscape:window-x="67"
     inkscape:window-y="27"
     inkscape:window-maximized="0"
     inkscape:current-layer="svg44" />
  <path
     inkscape:connector-curvature="0"
     style="fill:#fdd835;stroke-width:1"
     d="m 6.9980478,5.999023 c -3.3137085,0 -6,2.686291 -6,6 0,3.313709 2.6862915,6 6,6 2.61,0 4.8313672,-1.669022 5.6513672,-3.999023 H 17 v 3.999023 h 3.999024 V 14 H 23 V 9.998046 H 12.649415 c -0.82,-2.33 -3.0413672,-3.999023 -5.6513672,-3.999023 z M 4.8212901,9.579101 c 0.2073501,-0.01958 0.4329882,-0.0065 0.6796875,0.0498 0.8560071,0.195572 1.4434185,0.584233 1.6171875,0.679688 C 7.2918219,10.213049 7.8764157,9.824364 8.7324228,9.628902 10.705989,9.178234 11.46652,11.354304 10.302735,12.995113 9.2630418,14.188995 8.1833469,14.737933 7.1181651,15.444336 6.0529549,14.737933 4.9732616,14.188994 3.9335948,12.995117 2.9152828,11.559409 3.3698388,9.716121 4.8212901,9.579101 Z"
     id="path52" />
  <circle
     fill="#00FF00"
     stroke="#000000"
     r="3"
     cx="20"
     cy="20"
     id="circle40" />
  <path
     inkscape:connector-curvature="0"
     style="fill:#fdd835;stroke:#000000;stroke-width:0.5"
     d="m 14.000001,1.499023 c -0.276142,0 -0.500976,0.224834 -0.500976,0.500976 v 3 c 0,0.276143 0.224834,0.498047 0.500976,0.498047 h 7.998047 c 0.276142,0 0.500976,-0.221904 0.500976,-0.498047 v -3 c 0,-0.276142 -0.224834,-0.500976 -0.500976,-0.500976 z m 1.400391,0.814453 c 0.09315,-0.0088 0.196798,-0.0019 0.307617,0.02344 0.384527,0.08785 0.648505,0.261808 0.726562,0.304687 0.07802,-0.04291 0.339106,-0.216884 0.723633,-0.304687 0.886544,-0.202444 1.228837,0.777581 0.706054,1.514649 C 17.397218,4.387866 16.913062,4.632874 16.43457,4.950197 15.95607,4.632874 15.468982,4.387865 15.001954,3.851565 14.54452,3.20663 14.748386,2.375029 15.400392,2.313479 Z m -1.400391,4.186523 c -0.276142,0 -0.500976,0.221905 -0.500976,0.498047 v 3 c 0,0.276143 0.224834,0.500977 0.500976,0.500977 h 7.998047 c 0.276142,0 0.500976,-0.224834 0.500976,-0.500977 v -3 c 0,-0.276142 -0.224834,-0.498047 -0.500976,-0.498047 z m 1.491211,0.902344 c 0.08934,-0.0084 0.186678,-8.34e-4 0.29297,0.02344 0.36881,0.08426 0.622396,0.251842 0.697264,0.292969 0.07482,-0.04116 0.325527,-0.208754 0.694336,-0.292969 0.850311,-0.19417 1.178174,0.743252 0.676758,1.450195 C 17.404588,9.39036 16.94038,9.626312 16.481446,9.930666 16.022501,9.626312 15.555363,9.39036 15.107424,8.875979 14.668684,8.257404 14.865855,7.461381 15.491212,7.402346 Z"
     id="path54" />
</svg>
