<?xml version="1.0" encoding="UTF-8" standalone="no"?>
<svg
   xmlns:dc="http://purl.org/dc/elements/1.1/"
   xmlns:cc="http://creativecommons.org/ns#"
   xmlns:rdf="http://www.w3.org/1999/02/22-rdf-syntax-ns#"
   xmlns:svg="http://www.w3.org/2000/svg"
   xmlns="http://www.w3.org/2000/svg"
   xmlns:sodipodi="http://sodipodi.sourceforge.net/DTD/sodipodi-0.dtd"
   xmlns:inkscape="http://www.inkscape.org/namespaces/inkscape"
   version="1.1"
   width="16px"
   height="16px"
   fill="#81D4FA"
   viewBox="0 0 24 24"
   id="svg56"
   sodipodi:docname="colGoldKeyIndex.svg"
   inkscape:version="0.92.3 (unknown)">
  <metadata
     id="metadata62">
    <rdf:RDF>
      <cc:Work
         rdf:about="">
        <dc:format>image/svg+xml</dc:format>
        <dc:type
           rdf:resource="http://purl.org/dc/dcmitype/StillImage" />
      </cc:Work>
    </rdf:RDF>
  </metadata>
  <defs
     id="defs60" />
  <sodipodi:namedview
     pagecolor="#ffffff"
     bordercolor="#666666"
     borderopacity="1"
     objecttolerance="10"
     gridtolerance="10"
     guidetolerance="10"
     inkscape:pageopacity="0"
     inkscape:pageshadow="2"
     inkscape:window-width="863"
     inkscape:window-height="491"
     id="namedview58"
     showgrid="false"
     inkscape:zoom="7.375"
     inkscape:cx="8.7087254"
     inkscape:cy="14.078192"
     inkscape:window-x="67"
     inkscape:window-y="27"
     inkscape:window-maximized="0"
     inkscape:current-layer="svg56" />
  <path
     style="fill:#fdd835;stroke-width:0.66666669"
     d="M 4.6660156 4 C 2.4568766 4 0.66601562 5.790861 0.66601562 8 C 0.66601562 10.209139 2.4568766 12 4.6660156 12 C 6.4060156 12 7.8869271 10.887318 8.4335938 9.3339844 L 11.333984 9.3339844 L 11.333984 12 L 14 12 L 14 9.3339844 L 15.333984 9.3339844 L 15.333984 6.6660156 L 8.4335938 6.6660156 C 7.8869271 5.1126823 6.4060156 4 4.6660156 4 z M 3.2148438 6.3867188 C 3.3530772 6.3736692 3.5035026 6.3823663 3.6679688 6.4199219 C 4.2386402 6.5503032 4.6302478 6.8094102 4.7460938 6.8730469 C 4.861865 6.8093529 5.2515942 6.5502299 5.8222656 6.4199219 C 7.1379767 6.119477 7.6449966 7.5701898 6.8691406 8.6640625 C 6.1760116 9.4599812 5.456215 9.8259397 4.7460938 10.296875 C 4.0359537 9.8259397 3.3161581 9.4599805 2.6230469 8.6640625 C 1.9441723 7.7069239 2.2472096 6.4780656 3.2148438 6.3867188 z "
     transform="scale(1.5)"
     id="path52" />
  <path
     style="fill:#fdd835;stroke:#000000;stroke-width:0.33333334"
     d="M 9.3339844 1 C 9.1498895 1 9 1.1498895 9 1.3339844 L 9 3.3339844 C 9 3.5180794 9.1498895 3.6660156 9.3339844 3.6660156 L 14.666016 3.6660156 C 14.850111 3.6660156 15 3.5180794 15 3.3339844 L 15 1.3339844 C 15 1.1498895 14.850111 1 14.666016 1 L 9.3339844 1 z M 10.267578 1.5429688 C 10.329674 1.5371068 10.398777 1.5417234 10.472656 1.5585938 C 10.729008 1.6171624 10.904993 1.7331323 10.957031 1.7617188 C 11.009038 1.7331094 11.183102 1.6171293 11.439453 1.5585938 C 12.030483 1.4236312 12.258678 2.0769809 11.910156 2.5683594 C 11.598796 2.9258935 11.276025 3.0892323 10.957031 3.3007812 C 10.63803 3.0892324 10.313305 2.9258928 10.001953 2.5683594 C 9.6969971 2.1384032 9.8329079 1.5840025 10.267578 1.5429688 z M 9.3339844 4.3339844 C 9.1498895 4.3339844 9 4.4819206 9 4.6660156 L 9 6.6660156 C 9 6.8501106 9.1498895 7 9.3339844 7 L 14.666016 7 C 14.850111 7 15 6.8501106 15 6.6660156 L 15 4.6660156 C 15 4.4819206 14.850111 4.3339844 14.666016 4.3339844 L 9.3339844 4.3339844 z M 10.328125 4.9355469 C 10.387683 4.9299245 10.452577 4.9349911 10.523438 4.9511719 C 10.769312 5.0073465 10.938369 5.1190664 10.988281 5.1464844 C 11.038161 5.1190444 11.205299 5.0073151 11.451172 4.9511719 C 12.018046 4.8217254 12.236621 5.4466734 11.902344 5.9179688 C 11.603709 6.2608901 11.294237 6.4181911 10.988281 6.6210938 C 10.682318 6.4181911 10.370892 6.2608894 10.072266 5.9179688 C 9.779773 5.5055853 9.9112203 4.9749036 10.328125 4.9355469 z "
     transform="scale(1.5)"
     id="path54" />
</svg>
