<?xml version="1.0" encoding="UTF-8" standalone="no"?>
<svg
   xmlns:dc="http://purl.org/dc/elements/1.1/"
   xmlns:cc="http://creativecommons.org/ns#"
   xmlns:rdf="http://www.w3.org/1999/02/22-rdf-syntax-ns#"
   xmlns:svg="http://www.w3.org/2000/svg"
   xmlns="http://www.w3.org/2000/svg"
   xmlns:sodipodi="http://sodipodi.sourceforge.net/DTD/sodipodi-0.dtd"
   xmlns:inkscape="http://www.inkscape.org/namespaces/inkscape"
   version="1.1"
   width="16px"
   height="16px"
   viewBox="0 0 24 24"
   id="svg8"
   sodipodi:docname="colGoldBlueKeyIndex.svg"
   inkscape:version="0.92.3 (unknown)">
  <metadata
     id="metadata14">
    <rdf:RDF>
      <cc:Work
         rdf:about="">
        <dc:format>image/svg+xml</dc:format>
        <dc:type
           rdf:resource="http://purl.org/dc/dcmitype/StillImage" />
      </cc:Work>
    </rdf:RDF>
  </metadata>
  <defs
     id="defs12" />
  <sodipodi:namedview
     pagecolor="#ffffff"
     bordercolor="#666666"
     borderopacity="1"
     objecttolerance="10"
     gridtolerance="10"
     guidetolerance="10"
     inkscape:pageopacity="0"
     inkscape:pageshadow="2"
     inkscape:window-width="640"
     inkscape:window-height="491"
     id="namedview10"
     showgrid="false"
     inkscape:zoom="5.2149125"
     inkscape:cx="-27.280647"
     inkscape:cy="3.1408171"
     inkscape:window-x="67"
     inkscape:window-y="27"
     inkscape:window-maximized="0"
     inkscape:current-layer="svg8" />
  <path
     inkscape:connector-curvature="0"
     style="fill:#fdd835;stroke-width:0.779661"
     d="m 5.08135,4.3821171 c -2.5835694,0 -4.6779661,2.0943969 -4.6779661,4.6779659 0,2.58357 2.0943967,4.677966 4.6779661,4.677966 2.034915,0 3.766828,-1.301271 4.40615,-3.117882 h 3.391982 v 3.117882 h 3.117883 v -3.117882 h 1.560083 V 7.5 H 9.4875 C 8.848178,5.6833896 7.116265,4.3821171 5.08135,4.3821171 Z M 3.3842168,7.173365 c 0.1616628,-0.01526 0.337584,-0.0051 0.5299259,0.03883 C 4.581538,7.364674 5.03952,7.667698 5.175001,7.74212 5.310394,7.66763 5.766179,7.364589 6.433574,7.212195 7.972288,6.860827 8.565243,8.557424 7.657886,9.836698 6.847277,10.767518 6.005481,11.195504 5.175001,11.746259 4.3444978,11.195505 3.5027031,10.767519 2.6921154,9.836699 1.8981772,8.717334 2.2525768,7.280194 3.3842168,7.173365 Z"
     id="path52" />
  <path
     style="fill:#29b6f6;stroke-width:0.5"
     d="M 7.5 7 C 5.8431457 7 4.5 8.3431457 4.5 10 C 4.5 11.656854 5.8431457 13 7.5 13 C 8.805 13 9.9142187 12.165 10.324219 11 L 12.5 11 L 12.5 13 L 14.5 13 L 14.5 11 L 15.5 11 L 15.5 9 L 10.324219 9 C 9.9142187 7.835 8.805 7 7.5 7 z M 6.4433594 8.7988281 C 6.5476336 8.7889845 6.6610938 8.7978423 6.7851562 8.8261719 C 7.2156336 8.9245225 7.5102696 9.118013 7.5976562 9.1660156 C 7.6849869 9.117969 7.9796789 8.9244679 8.4101562 8.8261719 C 9.4026422 8.5995352 9.7844728 9.6943852 9.1992188 10.519531 C 8.6763681 11.11992 8.1333256 11.394757 7.5976562 11.75 C 7.0619736 11.394757 6.5208845 11.119919 5.9980469 10.519531 C 5.4859485 9.7975285 5.7134396 8.8677337 6.4433594 8.7988281 z "
     transform="scale(1.5)"
     id="path4" />
  <path
     inkscape:connector-curvature="0"
     style="fill:#fdd835;stroke:#000000;stroke-width:0.5"
     d="m 13.920813,1.538342 c -0.276142,0 -0.500976,0.2248342 -0.500976,0.5009766 v 3 c 0,0.2761425 0.224834,0.4980468 0.500976,0.4980468 h 7.998047 c 0.276142,0 0.500976,-0.2219043 0.500976,-0.4980468 v -3 c 0,-0.2761424 -0.224834,-0.5009766 -0.500976,-0.5009766 z m 1.400391,0.8144532 c 0.09315,-0.00879 0.196798,-0.00188 0.307617,0.023437 0.384527,0.087854 0.648505,0.2618078 0.726562,0.3046875 0.07802,-0.042914 0.339106,-0.2168842 0.723633,-0.3046875 0.886544,-0.2024434 1.228837,0.7775812 0.706054,1.514649 -0.46704,0.5363011 -0.951196,0.7813093 -1.429688,1.0986326 -0.4785,-0.3173231 -0.965588,-0.5623325 -1.432616,-1.0986326 -0.457434,-0.6449344 -0.253568,-1.4765354 0.398438,-1.538086 z m -1.400391,4.1865234 c -0.276142,0 -0.500976,0.2219044 -0.500976,0.4980468 v 2.9999996 c 0,0.276143 0.224834,0.500977 0.500976,0.500977 h 7.998047 c 0.276142,0 0.500976,-0.224834 0.500976,-0.500977 V 7.0373654 c 0,-0.2761424 -0.224834,-0.4980468 -0.500976,-0.4980468 z m 1.491211,0.9023438 c 0.08934,-0.00843 0.186678,-8.337e-4 0.29297,0.023437 0.36881,0.084262 0.622396,0.2518417 0.697264,0.2929687 0.07482,-0.04116 0.325527,-0.2087539 0.694336,-0.2929687 0.850311,-0.1941698 1.178174,0.7432522 0.676758,1.4501953 C 17.3254,9.4296767 16.861192,9.6656282 16.402258,9.9699823 15.943313,9.6656287 15.476175,9.4296762 15.028236,8.9152952 14.589496,8.29672 14.786667,7.5006974 15.412024,7.4416624 Z"
     id="path54" />
</svg>
