<?xml version="1.0" encoding="UTF-8" standalone="no"?>
<svg
   xmlns:dc="http://purl.org/dc/elements/1.1/"
   xmlns:cc="http://creativecommons.org/ns#"
   xmlns:rdf="http://www.w3.org/1999/02/22-rdf-syntax-ns#"
   xmlns:svg="http://www.w3.org/2000/svg"
   xmlns="http://www.w3.org/2000/svg"
   xmlns:sodipodi="http://sodipodi.sourceforge.net/DTD/sodipodi-0.dtd"
   xmlns:inkscape="http://www.inkscape.org/namespaces/inkscape"
   version="1.1"
   width="16px"
   height="16px"
   viewBox="0 0 24 24"
   id="svg8"
   sodipodi:docname="colGoldBlueKeyDot.svg"
   inkscape:version="0.92.3 (unknown)">
  <metadata
     id="metadata14">
    <rdf:RDF>
      <cc:Work
         rdf:about="">
        <dc:format>image/svg+xml</dc:format>
        <dc:type
           rdf:resource="http://purl.org/dc/dcmitype/StillImage" />
      </cc:Work>
    </rdf:RDF>
  </metadata>
  <defs
     id="defs12" />
  <sodipodi:namedview
     pagecolor="#ffffff"
     bordercolor="#666666"
     borderopacity="1"
     objecttolerance="10"
     gridtolerance="10"
     guidetolerance="10"
     inkscape:pageopacity="0"
     inkscape:pageshadow="2"
     inkscape:window-width="863"
     inkscape:window-height="491"
     id="namedview10"
     showgrid="false"
     inkscape:zoom="20.85965"
     inkscape:cx="12.262686"
     inkscape:cy="3.3249596"
     inkscape:window-x="67"
     inkscape:window-y="77"
     inkscape:window-maximized="0"
     inkscape:current-layer="svg8" />
  <path
     inkscape:connector-curvature="0"
     style="fill:#fdd835;stroke-width:0.77966106"
     d="m 4.9518681,4.2619496 c -2.5835693,0 -4.6779661,2.0943969 -4.6779661,4.6779654 0,2.583571 2.0943968,4.677967 4.6779661,4.677967 2.034915,0 3.7668281,-1.301271 4.40615,-3.117882 H 12.75 v 3.117882 h 3.117883 V 10.5 h 1.560083 V 7.379833 H 9.3580181 C 8.7186962,5.5632221 6.9867831,4.2619496 4.9518681,4.2619496 Z M 3.2547349,7.053198 c 0.1616628,-0.01526 0.337584,-0.0051 0.529926,0.03883 C 4.4520561,7.244507 4.9100381,7.547531 5.0455191,7.621953 5.1809122,7.547463 5.6366972,7.244422 6.3040922,7.092028 7.8428061,6.74066 8.4357611,8.437256 7.5284042,9.716531 6.7177952,10.647351 5.8759991,11.075337 5.0455191,11.626092 4.215016,11.075338 3.3732212,10.647352 2.5626335,9.716532 1.7686953,8.597167 2.1230949,7.160027 3.2547349,7.053198 Z"
     id="path52" />
  <path
     inkscape:connector-curvature="0"
     style="fill:#29b6f6;stroke-width:0.75"
     d="m 11.120518,10.379833 c -2.4852813,0 -4.4999999,2.014718 -4.4999999,4.5 0,2.485281 2.0147186,4.5 4.4999999,4.5 1.9575,0 3.621328,-1.2525 4.236328,-3 h 3.263673 v 3 h 3 v -3 h 1.5 v -3 h -7.763673 c -0.615,-1.7475 -2.278828,-3 -4.236328,-3 z m -1.5849608,2.698242 c 0.1564113,-0.01476 0.3266016,-0.0015 0.5126948,0.04102 0.645716,0.147526 1.087671,0.437761 1.21875,0.509765 0.130997,-0.07207 0.573034,-0.362321 1.21875,-0.509765 1.488729,-0.339956 2.061475,1.30232 1.183594,2.540038 -0.784276,0.900584 -1.598839,1.312839 -2.402344,1.845704 C 10.463479,16.971968 9.6518449,16.559711 8.8675885,15.659129 8.0994409,14.576126 8.4406775,13.181433 9.5355572,13.078075 Z"
     id="path4-3" />
  <path
     sodipodi:nodetypes="cscccsc"
     inkscape:connector-curvature="0"
     id="path1445-6"
     d="m 19.775023,17.788599 c 0.173657,-0.09554 0.759623,-0.481629 1.61563,-0.677091 1.973567,-0.450667 2.732233,1.725328 1.56845,3.366137 -1.039694,1.193878 -2.118898,1.742331 -3.18408,2.448734 -1.06521,-0.706403 -2.144412,-1.254857 -3.184079,-2.448734 -1.163785,-1.640809 -0.405144,-3.816804 1.568449,-3.366137 0.856007,0.195572 1.441861,0.581637 1.61563,0.677091"
     style="fill:#00ff00;fill-opacity:1;stroke:#00000f;stroke-width:1.04999995;stroke-linecap:round;stroke-linejoin:miter;stroke-miterlimit:4.69999981;stroke-dasharray:none;stroke-opacity:0.94117647" />
</svg>
