<?xml version="1.0" encoding="UTF-8" standalone="no"?>
<svg
   xmlns:dc="http://purl.org/dc/elements/1.1/"
   xmlns:cc="http://creativecommons.org/ns#"
   xmlns:rdf="http://www.w3.org/1999/02/22-rdf-syntax-ns#"
   xmlns:svg="http://www.w3.org/2000/svg"
   xmlns="http://www.w3.org/2000/svg"
   xmlns:sodipodi="http://sodipodi.sourceforge.net/DTD/sodipodi-0.dtd"
   xmlns:inkscape="http://www.inkscape.org/namespaces/inkscape"
   version="1.1"
   width="16px"
   height="16px"
   viewBox="0 0 24 24"
   id="svg58"
   sodipodi:docname="submitDB.svg"
   inkscape:version="0.92.3 (unknown)">
  <metadata
     id="metadata64">
    <rdf:RDF>
      <cc:Work
         rdf:about="">
        <dc:format>image/svg+xml</dc:format>
        <dc:type
           rdf:resource="http://purl.org/dc/dcmitype/StillImage" />
      </cc:Work>
    </rdf:RDF>
  </metadata>
  <defs
     id="defs62" />
  <sodipodi:namedview
     pagecolor="#ffffff"
     bordercolor="#666666"
     borderopacity="1"
     objecttolerance="10"
     gridtolerance="10"
     guidetolerance="10"
     inkscape:pageopacity="0"
     inkscape:pageshadow="2"
     inkscape:window-width="855"
     inkscape:window-height="638"
     id="namedview60"
     showgrid="false"
     inkscape:zoom="22.627417"
     inkscape:cx="3.3007204"
     inkscape:cy="9.3768759"
     inkscape:window-x="138"
     inkscape:window-y="458"
     inkscape:window-maximized="0"
     inkscape:current-layer="svg58" />
  <path
     style="fill:#c792ea;stroke-width:0.66666669"
     d="M 3.3339844 2 C 2.5939844 2 2 2.600651 2 3.3339844 L 2 12.666016 C 2 13.402395 2.5976047 14 3.3339844 14 L 12.666016 14 C 13.402395 14 14 13.402395 14 12.666016 L 14 4.6660156 L 11.333984 2 L 3.3339844 2 z M 3.3339844 3.3339844 L 10 3.3339844 L 10 6 L 3.3339844 6 L 3.3339844 3.3339844 z M 6.1269531 7.8867188 C 6.295918 7.8707681 6.4825642 7.8818295 6.6835938 7.9277344 C 7.3811344 8.0871017 7.8584 8.4026861 8 8.4804688 C 8.14151 8.4026161 8.6188662 8.0870117 9.3164062 7.9277344 C 10.924621 7.5604957 11.542091 9.3348177 10.59375 10.671875 C 9.7465273 11.644739 8.8679933 12.090384 8 12.666016 C 7.1319853 12.090384 6.2534505 11.644738 5.40625 10.671875 C 4.576451 9.5019498 4.9441988 7.9983732 6.1269531 7.8867188 z "
     transform="scale(1.5)"
     id="path56" />
</svg>
