<?xml version="1.0" encoding="UTF-8" standalone="no"?>
<svg
   xmlns:dc="http://purl.org/dc/elements/1.1/"
   xmlns:cc="http://creativecommons.org/ns#"
   xmlns:rdf="http://www.w3.org/1999/02/22-rdf-syntax-ns#"
   xmlns:svg="http://www.w3.org/2000/svg"
   xmlns="http://www.w3.org/2000/svg"
   xmlns:sodipodi="http://sodipodi.sourceforge.net/DTD/sodipodi-0.dtd"
   xmlns:inkscape="http://www.inkscape.org/namespaces/inkscape"
   version="1.1"
   width="16px"
   height="16px"
   fill="#F78C6C"
   viewBox="0 0 24 24"
   id="svg4"
   sodipodi:docname="folders.svg"
   inkscape:version="0.92.3 (unknown)">
  <metadata
     id="metadata10">
    <rdf:RDF>
      <cc:Work
         rdf:about="">
        <dc:format>image/svg+xml</dc:format>
        <dc:type
           rdf:resource="http://purl.org/dc/dcmitype/StillImage" />
      </cc:Work>
    </rdf:RDF>
  </metadata>
  <defs
     id="defs8" />
  <sodipodi:namedview
     pagecolor="#ffffff"
     bordercolor="#666666"
     borderopacity="1"
     objecttolerance="10"
     gridtolerance="10"
     guidetolerance="10"
     inkscape:pageopacity="0"
     inkscape:pageshadow="2"
     inkscape:window-width="863"
     inkscape:window-height="491"
     id="namedview6"
     showgrid="false"
     inkscape:zoom="14.75"
     inkscape:cx="8"
     inkscape:cy="8"
     inkscape:window-x="67"
     inkscape:window-y="27"
     inkscape:window-maximized="0"
     inkscape:current-layer="svg4" />
  <path
     d="M22,4A2,2 0 0,1 24,6V16A2,2 0 0,1 22,18H6A2,2 0 0,1 4,16V4A2,2 0 0,1 6,2H12L14,4H22M2,6V20H20V22H2A2,2 0 0,1 0,20V11H0V6H2M6,6V16H22V6H6Z"
     id="path2" />
  <path
     sodipodi:nodetypes="cscccsc"
     inkscape:connector-curvature="0"
     id="path1445-6"
     d="m 16.316348,8.7429587 c 0.173657,-0.09554 0.759623,-0.4816287 1.61563,-0.6770907 1.973567,-0.4506675 2.732233,1.7253277 1.56845,3.366137 -1.039694,1.193878 -2.118898,1.742331 -3.18408,2.448734 -1.06521,-0.706403 -2.144413,-1.254857 -3.184079,-2.448734 -1.163785,-1.6408093 -0.405144,-3.8168045 1.568449,-3.366137 0.856007,0.1955721 1.441861,0.5816367 1.61563,0.6770907"
     style="fill-opacity:1;stroke:#00000f;stroke-width:0.60000002;stroke-linecap:round;stroke-linejoin:miter;stroke-miterlimit:4.69999981;stroke-dasharray:none;stroke-opacity:0.94117647" />
</svg>
