<svg clip-rule="evenodd" fill-rule="evenodd"
     stroke-linejoin="round" stroke-miterlimit="1.4142"
     version="1.1" viewBox="0 0 24 24" xml:space="preserve"
          width="16px" height="16px"
     xmlns="http://www.w3.org/2000/svg">
    <path d="M 1,19.260657 H 22.968108 V 5.1383012 H 11.959843 L 9.9383992,3.116435 C 9.1935075,2.4481407 8.2427303,2.0542611 7.243462,2 H 1.080466 C 1.0360259,2 1,2.0360259 1,2.080466 Z" fill="#0288d1" fill-rule="nonzero"/>
    <path d="m17.813 11.575v1.9513l2.6017-2.6017-2.6017-2.6017v1.9513a5.2034 5.2034 0 0 0 -5.2034 5.2034c0 1.0212.2992 1.9708.80653 2.7708l.94962-.94962c-.29269-.53985-.4553-1.1708-.4553-1.8212a3.9026 3.9026 0 0 1 3.9026 -3.9026m4.3969 1.1317-.94962.94962c.28619.54636.4553 1.1708.4553 1.8212a3.9026 3.9026 0 0 1 -3.9026 3.9026l-1e-6-1.9513-2.6017 2.6017 2.6017 2.6017 1e-6-1.9513a5.2034 5.2034 0 0 0 5.2034 -5.2034c0-1.0212-.2992-1.9708-.80653-2.7708z" fill="#b3e5fc" stroke="#b3e5fc" stroke-miterlimit="1.4142" stroke-width=".29"/>
</svg>
