<?xml version="1.0" encoding="UTF-8"?>
<svg width="16px" height="16px" version="1.1" viewBox="0 0 280.91 280.91" xmlns="http://www.w3.org/2000/svg" xmlns:cc="http://creativecommons.org/ns#" xmlns:dc="http://purl.org/dc/elements/1.1/" xmlns:osb="http://www.openswatchbook.org/uri/2009/osb" xmlns:rdf="http://www.w3.org/1999/02/22-rdf-syntax-ns#" xmlns:xlink="http://www.w3.org/1999/xlink">
    <defs>
        <radialGradient id="radialGradient991" cx="318.68" cy="134.66" r="35.122" gradientTransform="matrix(.57411 .024125 -.0099723 .20613 42.653 131.39)" gradientUnits="userSpaceOnUse" xlink:href="#linearGradient1099"/>
        <linearGradient id="linearGradient1099">
            <stop stop-color="#fec9da" offset="0"/>
            <stop stop-color="#fee2e6" stop-opacity="0" offset="1"/>
        </linearGradient>
        <radialGradient id="radialGradient1595" cx="318.68" cy="134.66" r="35.122" gradientTransform="matrix(.57411 .024125 -.0099723 .20613 -423.08 219.39)" gradientUnits="userSpaceOnUse" xlink:href="#linearGradient1099"/>
    </defs>
    <g transform="translate(-89.752 -52.771)">
        <path d="m161.68 208.27c2.4195 71.935-40.646 47.322-36.931 109.04 1.0477 40.19 29.088 42.971 41.01 62.839-0.0283 12.737-8.3357 14.279-11.434 10.442 2.085 3.4632 12.425 4.1879 16.395-6.9926l124.39 3.7084c4.5284-6.6504 4.4769-8.5511 5.8799-11.96-3.1472 15.961 4.18 19.31 8.1183 17.306-8.8952 2.6958-10.255-16.145-0.13863-28.328 57.877-78.408 4.6652-89.256-1.0304-152.11-38.177-43.625-116.79-21.716-146.26-3.9422z" fill="#722a14" accentTintDarker="fill"/>
    </g>
    <g transform="translate(-89.752 -52.771)">
        <path d="m126.16 299.58c12.101-24.475 21.913-35.221 30.238-37.042 17.781 0.10138 29.522 2.5661 41.691 4.8635 7.9916-1.4396 14.674-3.8358 16.17-10.023 1.0078-7.1104 0.75281-12.958 0.53454-18.842l42.028-0.96885c-0.83552 14.38-0.865 20.957 4.0425 26.159 11.764 8.3353 32.725-0.0994 49.087-0.1491 10.642 2.6061 20.223 26.438 34.49 46.302 4.7182 6.4571 9.2298 12.914 14.174 19.371 16.292 21.851-16.291 18.191-33.039 19-6.2777-9.573-18.98-26.832-20.58-25.725-0.74136 0.67577-1.095 6.0775-1.1693 9.6885l-142.55 0.889c-0.15136-1.7091-0.12924-5.3503-2.781-10.377-5.6992 2.3479-21.152 26.66-32.173 40.959-9.2424-19.266-34.777-9.7364-0.16677-64.106z" fill="#ffdebd"/>
    </g>
    <g transform="translate(-89.752 -52.771)">
        <path d="m169.75 299.44c0.0744 7.722-1.0815 14.829-1.6775 22.216-1.83 4.8348-4.3026 9.8832-8.032 13.513-0.15032 2.202 0.57652 3.3388 0.78125 5.0082-10.226 22.135 3.8374 31.008 9.3769 41.105 2.1176 11.456 4.8594 23.146 5.6696 34.112-1.5997 14.131-6.8422 24.473-12.851 34.018 30.868 23.605 90.736 26.128 146.89-0.66146-15.972-16.029-16.69-34.86-15.45-54.051 0.1519-5.7331 3.6636-13.948 3.2601-16.466 11.171-11.957 12.631-22.553 11.434-28.325-1.387-5.746-2.1909-10.631-1.9371-15.45-0.18671-0.96386-3.4812-1.9351-5.9059-6.9453-3.3039-12.539-3.0557-20.557-3.7798-29.813z" fill="#f6f5f8"/>
    </g>
    <g transform="translate(-89.752 -52.771)">
        <path d="m212.16 298.71c17.48-9.236 21.716-10.63 21.716-10.63 1.9806-0.75308 2.0239-0.75684 3.815 0.0611 2.168 0.96681 15.066 6.2147 19.149 9.6102-6.6305 9.677-16.555 26.002-20.897 29.07-17.907-15.351-17.488-17.929-23.784-28.111z" fill="#2a79a5"/>
        <path d="m242.68 303.2h-1.1802v-3.1472c0-0.87335-0.70814-1.5736-1.5736-1.5736h-3.1472v-1.1802a1.967 1.967 0 0 0-1.967-1.967 1.967 1.967 0 0 0-1.967 1.967v1.1802h-3.1472a1.5736 1.5736 0 0 0-1.5736 1.5736v2.9899h1.1802c1.1802 0 2.1244 0.94415 2.1244 2.1244 0 1.1802-0.94418 2.1244-2.1244 2.1244h-1.1802v2.9898a1.5736 1.5736 0 0 0 1.5736 1.5736h2.9899v-1.1802c0-1.1802 0.94418-2.1244 2.1244-2.1244 1.1802 0 2.1244 0.94418 2.1244 2.1244v1.1802h2.9899a1.5736 1.5736 0 0 0 1.5736-1.5736v-3.1472h1.1802a1.967 1.967 0 0 0 1.967-1.967 1.967 1.967 0 0 0-1.967-1.967z" fill="#74cfe6" stroke-width=".78681"/>
    </g>
    <g transform="translate(-89.752 -52.771)">
        <path d="m154.19 260.32c5.2552 15.597 9.2311 29.023 16.37 42.696 5.1473 9.6356 9.9941 17.469 14.767 24.856 14.29-0.56849 26.659-0.70641 38.487 0.0668 2.541 0.0176 8.9799 1.6609 11.19-1.7831-17.31-16.566-30.093-39.107-42.225-57.416l-5.8586-5.9531c-2.1521 0.66129-11.78-0.85958-17.67-1.0394-0.94494-0.85439-1.8899-1.2009-2.8348-1.63-4.4899-0.15107-8.5442-0.36974-12.225 0.20206z" fill="#fff"/>
        <path d="m236.79 326.3c3.5639-2.8214 21.404-31.33 36.97-55.861l5.4091-3.2836c5.2892-0.37966 13.734-6.0794 28.467-4.2287l4.7719 0.8977c-3.4689 0.65306-5.0316 5.362-6.5201 8.032-6.2602 14.573-9.9453 29.146-13.787 43.719-2.3657 7.6483-12.366 11.137-20.045 11.559-10.227 0.0391-20.146-0.23055-31.132 0.56746-1.74 0.0119-3.2083 0.0282-4.1333-1.402z" fill="#fff"/>
        <path d="m160.81 259.95-4e-3 0.23386c20.468 79.788 34.646 58.173 74.034 66.016 0.24311 0.0422 0.74607 0.17963 0.76363 0.0796l-0.76363-0.0796" fill="none"/>
        <path d="m235.31 326.02c0.27365 1.0705 3.8701-1.0236 15.229-1.0877 52.499 5.0823 33.655-43.816 55.889-61.228 0.51781-0.26419 1.1903-0.52893 1.2368-0.78224" fill="none"/>
    </g>
    <g transform="translate(-89.752 -52.771)" fill="#722a14" accentTintDarker="fill">
        <path d="m144.68 264.54c-23.857 21.806-29.264 38.932-27.781 47.956 3.6857 10.586 15.171 7.804 19.749 3.4963-9.1871 6.5784-18.617-2.1475-18.71-10.867 2.1614-10.803 12.37-22.149 14.269-22.584 0.58254-0.13349 12.473-18.001 12.473-18.001z"/>
        <path d="m312.03 236.24c8.6706 23.656 9.1063 20.602 17.198 29.104 11.131 8.9551 23.043 16.886 28.22 29.659 3.7707 7.8646-0.96223 16.749-4.5436 20.847-7.6167 8.7158-25.834 10.902-24.188-1.7373-2.0752 5.9636 3.281 21.519 17.306 16.972-4.1178 2.1244-8.5124 2.2504-13.43-1.4032 11.605 10.471 21.562-5.1191 23.119-8.3522 11.057-23.987-1.4213-38.63-4.2763-42.429-9.3188-13.721-17.578-21.351-26.259-31.404-4.1242-4.9837-11.606-10.856-17.306-39.69 0.71548 8.2278-3.7055 6.951 4.1602 28.433z"/>
    </g>
    <g transform="translate(-89.752 -52.771)">
        <path d="m226.8 247.1c5.3651 2.0232 7.3158 2.2297 13.891-0.28348 15.847-6.3914 40.201-19.409 42.948-24.474 9.0424-24.033 7.1178-41.767 10.671-62.651l-46.721-84.854-16.253-0.37798-58.964 79.375 3.9386 42.74c2.4611 8.5638 3.9271 16.53 7.3833 25.691 4.2229 7.2912 19.345 14.477 43.107 24.834z" fill="#ffeed6"/>
        <path transform="matrix(.98202 .18877 -.1656 .98619 0 0)" d="m247.77 167.46a23.102 8.7161 0 0 1-22.209 8.7096 23.102 8.7161 0 0 1-23.926-8.0364 23.102 8.7161 0 0 1 20.36-9.3308 23.102 8.7161 0 0 1 25.5 7.3152" fill="url(#radialGradient991)" style="mix-blend-mode:normal"/>
        <path transform="matrix(-.98202 .18877 .1656 .98619 0 0)" d="m-217.96 255.45a23.102 8.7161 0 0 1-22.209 8.7096 23.102 8.7161 0 0 1-23.926-8.0364 23.102 8.7161 0 0 1 20.36-9.3308 23.102 8.7161 0 0 1 25.5 7.3152" fill="url(#radialGradient1595)" style="mix-blend-mode:normal"/>
    </g>
    <g transform="translate(-89.752 -52.771)">
        <g>
            <path d="m199.84 199.31c-1.5092-0.41686-13.004-2.6816-19.759-9.2576 0.91834-24.686 19.727-39.706 33.782-22.7 0.99964 2.1502 1.2885 5.0111 1.7954 7.654-6.3952 7.926-7.5281 18.114-15.818 24.303z" fill="#fff" stroke="#fefefe" stroke-width=".26458px"/>
            <path d="m202.61 199.57c-14.694-0.0232-21.148-25.101-0.44885-36.616-3.0054 3.5186-1.628 5.5485-0.39468 6.0028 1.1356 0.82058 3.4188 0.75719 4.7247 0.0945 1.5322-0.97886 2.135-2.1829 1.7481-3.3545-0.46632-0.83605-1.1021-1.4179-1.6536-2.1261 8.0173 4.7641 18.206 25.929-0.0472 35.53-0.6202 0.23784-2.2286 0.41566-3.9285 0.47009z" fill="#1f409a" stroke="#1f409a" stroke-linejoin="round" stroke-width=".265"/>
            <g>
                <path d="m179.94 190.12c0.46968-18.489 17.057-42.695 34.207-22.584-0.33488-1.5091-0.33974-1.837-1.9883-4.6504-3.3671-3.0514-5.1973-4.1415-10.201-5.4605l6.9926 1.2284c-12.329-4.3547-25.853-0.1353-29.01 31.467z" stroke="#000" stroke-width=".26458px"/>
                <path d="m201.39 151.9c2.2081 0.5838 4.5955 1.2273 7.1816 1.9371-3.2035-1.9951-5.0504-1.7292-7.1816-1.9371z" stroke="#000" stroke-width=".465"/>
                <path d="m269.27 198.5c1.5092-0.41686 15.828-3.3538 19.723-9.3579-0.91834-24.686-19.691-39.606-33.746-22.599-0.99964 2.1502-1.2885 5.0111-1.7954 7.654 6.3952 7.926 7.5281 18.114 15.818 24.303z" fill="#fff" stroke="#fefefe" stroke-width=".26458px"/>
            </g>
            <path d="m266.5 198.77c14.694-0.0232 21.148-25.101 0.44885-36.616 3.0054 3.5186 1.628 5.5485 0.39468 6.0028-1.1356 0.82058-3.4188 0.75719-4.7247 0.0945-1.5322-0.97886-2.135-2.1829-1.7481-3.3545 0.46632-0.83605 1.1021-1.4179 1.6536-2.1261-8.0173 4.7641-18.206 25.929 0.0472 35.53 0.6202 0.23784 2.2286 0.41566 3.9285 0.47009z" fill="#1f409a" stroke="#1f409a" stroke-linejoin="round" stroke-width=".265"/>
            <path d="m289.18 189.32c-0.46968-18.489-17.057-42.695-34.207-22.584 0.33488-1.5091 0.33974-1.837 1.9883-4.6504 3.3671-3.0514 5.1973-4.1415 10.201-5.4605l-6.9926 1.2284c12.329-4.3547 25.853-0.1353 29.01 31.467z" stroke="#000" stroke-width=".26458px"/>
            <path d="m267.72 151.1c-2.2081 0.5838-4.5955 1.2273-7.1816 1.9371 3.2035-1.9951 5.0504-1.7292 7.1816-1.9371z" stroke="#000" stroke-width=".465"/>
        </g>
        <path d="m215.13 216.67c13.961-5.4671 35.404-3.582 37.981-2.4269 0.59946 9.7079-1.2583 15.827-9.9504 20.811l-10.449 0.92777c-5.2105 0.23417-13.674-1.4953-16.611-9.058-1.1386-4.5501-1.4496-9.3438-0.97078-10.254z" fill="#b35c52"/>
        <path d="m217.61 227.59c-0.31828-4.5516 2.0016-8.9966 5.5213-12.074 6.2172-2.6303 20.286-1.4366 21.964-1.1528 4.3123 2.7091 5.7119 6.0384 6.3707 9.5864-0.79287 5.1094-4.9746 8.3128-7.8269 10.375-8.5437 1.5896-16.288-0.15283-21.903-1.9416-2.9748-2.9043-3.3054-2.8572-4.1258-4.7932z" fill="#e699a9" stroke="#e699a9" stroke-width=".33977px"/>
        <path d="m220.63 231.36c9.3235-9.6096 25.95-7.4291 28.66-2.6775-1.1029 2.1609-3.3034 4.6732-6.2494 6.1887-2.3662 0.58651-10.023 2.3622-18.566-0.78876-1.4521-0.82354-2.2086-1.0859-3.8448-2.7224z" fill="#fbbfb7" stroke="#fbbfb7" stroke-width=".33977px"/>
    </g>
    <g transform="translate(-89.752 -52.771)">
        <path d="m225.73 52.773c-18.45 0.21907-35.723 15.297-52.697 34.162-56.077 82.621 19.029 175.55 21.45 200.89 1.787 10.162 6.5732 17.258-1.9844 30.427-27.41 26.506-44.613 53.871-30.805 66.902-4.6634-4.742-3.409-13.027 0.21756-23.943-1.961 12.743-1.0236 18.964 9.8221 26.025 2.0964 2.7059 10.786 7.6919 16.47 1.203-12.738 8.3681-14.529-9.4272-14.731-17.021 0.61148 5.3375 3.6437 14.351 10.726 12.252-3.1698 0.54698-12.003-3.8446-6.1572-21.29 1.7146-6.0098 13.276-23.85 17.482-38.679 19.615-63.577-19.362-68.376-20.317-159 8.0261-21.092 19.11-35.709 31.206-48.181-2.8435 4.054-6.1673 10.649-9.2025 21.628 4.1581-12.996 10.538-22.228 16.177-28.517 2.7984-2.6647 5.6274-5.264 8.4662-7.8434-3.1944 3.2166-9.0613 10.78-13.544 32.762 9.2112-33.114 27.391-43.941 30.729-48.656 13.217 28.157 31.373 26.225 53.72 73.139-0.93017 75.739-27.013 105.41-37.136 160.78-12.243 48.368 13.975 67.811 26.007 55.723-5.6234 5.0647-32.889 4.0219-24.377-52.77-0.13171 21.597 3.1328 27.961 12.922 36.688 5.9922 5.5784 9.7415 10.925 11.857 15.664 8e-3 -9e-3 0.0172-0.0167 0.0254-0.0259-7e-3 9e-3 -0.0167 0.0182-0.0243 0.0274 5.6281 12.608-0.33303 20.897-6.5665 17.69 8.909 4.97 13.992-9.7726 6.2368-24.19 6.0704 10.366 10.226 21.585 4.0638 29.691 36.157-45.392-29.648-48.664-16.088-110.53 18.766-43.464 87.6-117.59 27.994-200.28-24.521-29.645-49.065-34.662-56.147-31.174-5.3698-2.5116-10.628-3.6156-15.794-3.5543zm60.036 345.54c-0.16909 0.21227-0.33597 0.42357-0.50953 0.63769 0.17777-0.21015 0.34639-0.42309 0.50953-0.63769zm-3.7341-23.191c-2.4e-4 0 0 0 0-3e-3 -0.13198 0.14433-0.26689 0.28175-0.40257 0.41806 0.14984-0.13493 0.2856-0.27384 0.4036-0.41653zm-97.833 8.5535c0.24652-0.0425 0.46258-0.11131 0.63097-0.20981-0.21432 0.0809-0.42363 0.14838-0.63097 0.20981z" accentTint="fill" fill="#8f3518"/>
    </g>
    <g transform="translate(-89.752 -52.771)" stroke="#000" stroke-width=".26458px">
        <path d="m262.05 131.35c14.345-11.847 26.974 4.9948 31.746 12.775-3.9747-4.9198-15.715-18.41-31.746-12.775z"/>
        <path d="m207.92 132.91c-14.345-11.847-26.974 4.9948-31.746 12.775 3.9747-4.9198 15.715-18.41 31.746-12.775z"/>
    </g>
</svg>
