<?xml version="1.0" encoding="UTF-8"?><svg id="a" xmlns="http://www.w3.org/2000/svg" width="16" height="16" viewBox="0 0 24 24"><path d="M1.47,4.51l.92,6.38c.13,.88,1.2,1.24,1.83,.63l5.42-5.25c.64-.62,.31-1.7-.57-1.85L2.74,3.28c-.73-.13-1.37,.49-1.27,1.23Z" fill="#ff8bf5"/><g><rect x="6.04" y="7.9" width="11.87" height="11.87" rx="2.3" ry="2.3" transform="translate(-6.28 12.52) rotate(-45)" fill="#6e85f8"/><path d="M1.47,4.51l.92,6.38c.13,.88,1.2,1.24,1.83,.63l5.42-5.25c.64-.62,.31-1.7-.57-1.85L2.74,3.28c-.73-.13-1.37,.49-1.27,1.23Z" fill="#ff8bf5"/></g><path d="M22.49,4.51l-.92,6.38c-.13,.88-1.2,1.24-1.83,.63l-5.42-5.25c-.64-.62-.31-1.7,.57-1.85l6.35-1.13c.73-.13,1.37,.49,1.27,1.23Z" fill="#6e85f8"/></svg>