<svg xmlns="http://www.w3.org/2000/svg"
     viewBox="0 0 512 512" width="16px" height="16px">
  <path fill="#9AA7B0"
        d="m 136.6,138.79 c -20.39174,5.76372 -36.608764,21.24684 -43.31,41.35 L 0,460 14.69,474.69 164.8,324.58 C 161.81,318.32 160,311.4 160,304 c 0,-26.51 21.49,-48 48,-48 26.51,0 48,21.49 48,48 0,26.51 -21.49,48 -48,48 -7.4,0 -14.32,-1.81 -20.58,-4.8 L 37.31,497.31 52,512 331.86,418.71 c 20.10316,-6.70124 35.58628,-22.91826 41.35,-43.31 L 416,224 288,96 Z"/>
  <path fill="gold"
        accentTint="fill"
        d="M 497.94,74.17 437.83,14.06 c -18.75,-18.75 -49.16,-18.75 -67.91,0 l -56.55,56.55 128.02,128.02 56.55,-56.55 c 18.75,-18.75 18.75,-49.15 0,-67.91 z"/>
</svg>