<svg
        xmlns="http://www.w3.org/2000/svg"
        version="1.1"
        width="16px"
        height="16px"
        viewBox="0 0 16 16">
    <path
            fill="#6E6E6E"
            style="fill-opacity:1;stroke-width:1"
            fill-rule="evenodd"
            d="M 8 0.2109375 C 7.4424728 0.2109375 6.8993415 0.26951257 6.375 0.38085938 L 6.1582031 2.5507812 C 5.4287643 2.7972498 4.764479 3.1854981 4.1992188 3.6835938 L 2.2128906 2.7871094 C 1.4881152 3.5912154 0.92875767 4.547274 0.58789062 5.6015625 L 2.359375 6.8730469 C 2.286918 7.2376116 2.2480469 7.6141479 2.2480469 8 C 2.2480469 8.3858519 2.2869176 8.7623885 2.359375 9.1269531 L 0.58789062 10.398438 C 0.92875766 11.452727 1.4881152 12.408785 2.2128906 13.212891 L 4.1992188 12.316406 C 4.7644792 12.814502 5.4287641 13.20275 6.1582031 13.449219 L 6.375 15.619141 C 6.8993415 15.730492 7.4424728 15.789062 8 15.789062 C 8.5575272 15.789062 9.1006585 15.730488 9.625 15.619141 L 9.8417969 13.449219 C 10.571236 13.20275 11.23552 12.814502 11.800781 12.316406 L 13.787109 13.212891 C 14.511884 12.408785 15.071242 11.452727 15.412109 10.398438 L 13.640625 9.1269531 C 13.71308 8.7623884 13.751953 8.385852 13.751953 8 C 13.751953 7.6141477 13.713085 7.2376117 13.640625 6.8730469 L 15.412109 5.6015625 C 15.071242 4.547274 14.511884 3.5912154 13.787109 2.7871094 L 11.800781 3.6835938 C 11.235521 3.1854981 10.571236 2.7972498 9.8417969 2.5507812 L 9.625 0.38085938 C 9.1006585 0.26951259 8.5575272 0.2109375 8 0.2109375 z M 6.0878906 5.4199219 C 6.1987714 5.4281319 6.3132869 5.4451843 6.4335938 5.4726562 C 7.2684957 5.6633043 7.8402925 6.0397088 8.0097656 6.1328125 C 8.1792381 6.0397088 8.7510369 5.6633044 9.5859375 5.4726562 C 11.510847 5.0331041 12.250307 7.1555233 11.115234 8.7558594 C 10.101191 9.9202987 9.0486967 10.455548 8.0097656 11.144531 C 6.9708335 10.455548 5.9183412 9.9202987 4.9042969 8.7558594 C 3.8401657 7.2555443 4.4246784 5.2967721 6.0878906 5.4199219 z "/>
</svg>
