<?xml version="1.0" encoding="UTF-8" standalone="no"?>
<!-- Created with Inkscape (http://www.inkscape.org/) -->

<svg
   xmlns:dc="http://purl.org/dc/elements/1.1/"
   xmlns:cc="http://creativecommons.org/ns#"
   xmlns:rdf="http://www.w3.org/1999/02/22-rdf-syntax-ns#"
   xmlns:svg="http://www.w3.org/2000/svg"
   xmlns="http://www.w3.org/2000/svg"
   xmlns:sodipodi="http://sodipodi.sourceforge.net/DTD/sodipodi-0.dtd"
   xmlns:inkscape="http://www.inkscape.org/namespaces/inkscape"
   width="210mm"
   height="297mm"
   viewBox="0 0 210 297"
   version="1.1"
   id="svg4698"
   inkscape:version="0.92.3 (unknown)"
   sodipodi:docname="heart.svg">
  <defs
     id="defs4692" />
  <sodipodi:namedview
     id="base"
     pagecolor="#ffffff"
     bordercolor="#666666"
     borderopacity="1.0"
     inkscape:pageopacity="0.0"
     inkscape:pageshadow="2"
     inkscape:zoom="0.49497476"
     inkscape:cx="691.8885"
     inkscape:cy="484.3527"
     inkscape:document-units="mm"
     inkscape:current-layer="layer1"
     showgrid="false"
     inkscape:window-width="991"
     inkscape:window-height="652"
     inkscape:window-x="89"
     inkscape:window-y="122"
     inkscape:window-maximized="0" />
  <metadata
     id="metadata4695">
    <rdf:RDF>
      <cc:Work
         rdf:about="">
        <dc:format>image/svg+xml</dc:format>
        <dc:type
           rdf:resource="http://purl.org/dc/dcmitype/StillImage" />
        <dc:title />
      </cc:Work>
    </rdf:RDF>
  </metadata>
  <g
     inkscape:label="Layer 1"
     inkscape:groupmode="layer"
     id="layer1">
    <path
       sodipodi:nodetypes="cscccsc"
       inkscape:connector-curvature="0"
       id="path1445"
       d="m 100.49948,114.42489 c 3.32117,-1.82455 14.51913,-9.20613 30.88074,-12.94228 37.72257,-8.613926 52.22326,32.978 29.97916,64.33987 -19.87229,22.81961 -40.4999,33.3024 -60.8599,46.80443 -20.360007,-13.50203 -40.987613,-23.98482 -60.859905,-46.80443 -22.244101,-31.36187 -7.74341,-72.9538 29.979163,-64.33988 16.361605,3.73616 27.559569,11.11774 30.880742,12.94229"
       style="fill:none;stroke:#6ee4f8;stroke-width:5.46799994;stroke-linecap:round;stroke-linejoin:miter;stroke-miterlimit:4;stroke-dasharray:none;stroke-opacity:1" />
    <path
       sodipodi:nodetypes="cscccsc"
       inkscape:connector-curvature="0"
       id="path1445-6"
       d="m 101.82969,167.12035 c 0.0618,-0.034 0.27033,-0.1714 0.57496,-0.24096 0.70234,-0.16038 0.97233,0.614 0.55817,1.19792 -0.37,0.42487 -0.75406,0.62005 -1.13313,0.87144 -0.37908,-0.25139 -0.76314,-0.44657 -1.13313,-0.87144 -0.41416,-0.58392 -0.14418,-1.3583 0.55817,-1.19792 0.30463,0.0696 0.51312,0.20699 0.57496,0.24096"
       style="fill:none;stroke:#6ee4f8;stroke-width:0.10180709;stroke-linecap:round;stroke-linejoin:miter;stroke-miterlimit:4;stroke-dasharray:none;stroke-opacity:1" />
  </g>
</svg>
